<svg width="454" height="362" viewBox="0 0 454 362" fill="none" xmlns="http://www.w3.org/2000/svg">
<rect x="31.4346" y="2.72998" width="390" height="359" rx="9" fill="#B6DAD1"/>
<path d="M453.788 297.14H0V297.367H453.788V297.14Z" fill="#EBEBEB"/>
<path d="M408.318 311.743H378.26V311.97H408.318V311.743Z" fill="#EBEBEB"/>
<path d="M300.607 314.212H292.721V314.439H300.607V314.212Z" fill="#EBEBEB"/>
<path d="M377.352 303.321H359.936V303.548H377.352V303.321Z" fill="#EBEBEB"/>
<path d="M86.8097 304.846H47.6115V305.073H86.8097V304.846Z" fill="#EBEBEB"/>
<path d="M100.641 304.846H94.8962V305.073H100.641V304.846Z" fill="#EBEBEB"/>
<path d="M204.341 308.676H119.319V308.903H204.341V308.676Z" fill="#EBEBEB"/>
<path d="M215.096 256.663H39.8517C38.4788 256.66 37.163 256.113 36.1931 255.141C35.2232 254.17 34.6785 252.853 34.6785 251.48V5.13688C34.6904 3.77191 35.2404 2.46677 36.209 1.50496C37.1777 0.543146 38.4866 0.00233827 39.8517 0H215.096C216.47 0 217.788 0.545987 218.76 1.51785C219.732 2.48971 220.278 3.80784 220.278 5.18226V251.48C220.278 252.855 219.732 254.173 218.76 255.145C217.788 256.117 216.47 256.663 215.096 256.663ZM39.8517 0.181516C38.539 0.18392 37.2809 0.707061 36.3535 1.63611C35.4262 2.56516 34.9054 3.82421 34.9054 5.13688V251.48C34.9054 252.793 35.4262 254.052 36.3535 254.981C37.2809 255.91 38.539 256.433 39.8517 256.436H215.096C216.409 256.433 217.668 255.91 218.597 254.982C219.526 254.053 220.049 252.794 220.051 251.48V5.13688C220.049 3.82337 219.526 2.56435 218.597 1.63556C217.668 0.706766 216.409 0.183915 215.096 0.181516H39.8517Z" fill="#EBEBEB"/>
<path d="M411.413 256.663H236.16C234.787 256.66 233.47 256.113 232.499 255.142C231.527 254.171 230.981 252.854 230.978 251.48V5.13688C230.993 3.77108 231.545 2.46595 232.515 1.50439C233.485 0.542829 234.795 0.00231277 236.16 0H411.413C412.777 0.00472348 414.083 0.546587 415.05 1.50814C416.017 2.4697 416.566 3.77348 416.577 5.13688V251.48C416.577 252.852 416.034 254.167 415.066 255.138C414.098 256.11 412.785 256.658 411.413 256.663ZM236.16 0.181516C234.847 0.183915 233.588 0.706766 232.659 1.63556C231.73 2.56435 231.207 3.82337 231.205 5.13688V251.48C231.207 252.794 231.73 254.053 232.659 254.982C233.588 255.91 234.847 256.433 236.16 256.436H411.413C412.727 256.433 413.986 255.91 414.915 254.982C415.843 254.053 416.366 252.794 416.369 251.48V5.13688C416.366 3.82337 415.843 2.56435 414.915 1.63556C413.986 0.706766 412.727 0.183915 411.413 0.181516H236.16Z" fill="#EBEBEB"/>
<path d="M222.919 96.2028C221.506 89.4231 218.824 82.9718 215.014 77.1891L221.821 68.9665L207.3 54.4452L199.077 61.243C193.292 57.439 186.841 54.7602 180.063 53.3471L179.065 42.7466H158.454L157.455 53.3471C150.68 54.7586 144.232 57.4375 138.451 61.243L130.228 54.4543L115.707 68.9755L122.514 77.1982C118.695 82.9774 116.001 89.425 114.572 96.2028L103.981 97.2012V117.785L114.572 118.783C115.999 125.572 118.697 132.029 122.523 137.815L115.716 146.038L130.237 160.559L138.46 153.752C144.24 157.56 150.688 160.242 157.464 161.657L158.463 172.249H179.047L180.045 161.657C186.823 160.241 193.274 157.559 199.059 153.752L207.281 160.559L221.803 146.038L214.996 137.815C218.806 132.036 221.488 125.587 222.901 118.811L233.501 117.812V97.2284L222.919 96.2028ZM196.599 107.493C196.599 113.004 194.965 118.391 191.903 122.973C188.842 127.555 184.49 131.126 179.399 133.235C174.308 135.344 168.706 135.895 163.301 134.82C157.896 133.745 152.931 131.092 149.035 127.195C145.138 123.298 142.484 118.334 141.409 112.929C140.334 107.524 140.886 101.922 142.995 96.8305C145.104 91.7393 148.675 87.3877 153.257 84.3262C157.839 81.2646 163.226 79.6305 168.737 79.6305C172.399 79.6293 176.025 80.35 179.408 81.7514C182.791 83.1528 185.865 85.2074 188.454 87.7977C191.043 90.3879 193.095 93.4631 194.494 96.8473C195.893 100.231 196.612 103.858 196.608 107.52L196.599 107.493Z" fill="#F0F0F0"/>
<path d="M281.948 195.002L282.665 202.616H297.458L298.175 195.011C303.028 193.985 307.646 192.058 311.789 189.329L317.742 194.221L328.198 183.766L323.306 177.885C326.04 173.729 327.967 169.095 328.987 164.226L336.593 163.509V148.715L328.987 147.998C327.962 143.145 326.035 138.527 323.306 134.385L328.198 128.476L317.742 117.985L311.834 122.877C307.692 120.148 303.074 118.221 298.22 117.195L297.503 109.581H282.71L281.993 117.195C277.124 118.215 272.49 120.142 268.334 122.877L262.38 117.985L251.925 128.44L256.844 134.321C254.115 138.464 252.188 143.081 251.163 147.935L243.548 148.652V163.445L251.163 164.162C252.175 169.053 254.103 173.709 256.844 177.885L251.952 183.793L262.38 194.221L268.289 189.329C272.443 192.064 277.078 193.989 281.948 195.002ZM290.061 176.07C286.099 176.07 282.226 174.894 278.933 172.692C275.639 170.489 273.073 167.359 271.559 163.698C270.045 160.036 269.652 156.008 270.429 152.122C271.206 148.237 273.118 144.67 275.924 141.872C278.729 139.074 282.302 137.172 286.189 136.405C290.076 135.639 294.104 136.043 297.761 137.567C301.418 139.091 304.541 141.665 306.735 144.965C308.928 148.265 310.093 152.141 310.083 156.103C310.068 161.403 307.952 166.482 304.199 170.225C300.446 173.968 295.362 176.07 290.061 176.07Z" fill="#F0F0F0"/>
<path d="M203.424 298.592H221.031L221.884 289.517C227.682 288.303 233.199 286.01 238.148 282.755L245.182 288.573L257.625 276.13L251.807 269.096C255.062 264.147 257.355 258.63 258.569 252.832L267.644 251.979V234.372L258.569 233.519C257.358 227.721 255.064 222.203 251.807 217.256L257.625 210.222L245.182 197.77L238.148 203.596C233.201 200.338 227.683 198.043 221.884 196.835L221.031 187.759H203.424L202.571 196.835C196.772 198.043 191.254 200.338 186.307 203.596L179.274 197.77L166.822 210.222L172.648 217.256C169.392 222.203 167.098 227.721 165.887 233.519L156.811 234.372V251.979L165.887 252.832C167.098 258.628 169.392 264.143 172.648 269.087L166.822 276.13L179.274 288.573L186.307 282.755C191.256 286.01 196.774 288.303 202.571 289.517L203.424 298.592ZM212.228 267.027C207.514 267.027 202.906 265.629 198.987 263.01C195.067 260.392 192.013 256.669 190.209 252.315C188.405 247.96 187.933 243.168 188.853 238.544C189.772 233.921 192.042 229.675 195.375 226.342C198.708 223.009 202.955 220.739 207.578 219.819C212.201 218.899 216.993 219.371 221.348 221.175C225.703 222.979 229.425 226.034 232.044 229.953C234.663 233.872 236.061 238.48 236.061 243.194C236.051 249.509 233.536 255.561 229.067 260.023C224.599 264.485 218.542 266.991 212.228 266.991V267.027Z" fill="#F0F0F0"/>
<path d="M295.915 84.6225C296.637 85.8656 296.974 87.2951 296.883 88.7298C296.792 90.1645 296.277 91.5399 295.403 92.6816C294.53 93.8233 293.337 94.68 291.976 95.1431C290.615 95.6061 289.147 95.6547 287.758 95.2827C286.37 94.9107 285.123 94.1348 284.175 93.0534C283.228 91.972 282.623 90.6337 282.437 89.2082C282.251 87.7826 282.493 86.334 283.131 85.0458C283.769 83.7577 284.776 82.688 286.023 81.9724C287.687 81.017 289.662 80.7595 291.516 81.2561C293.37 81.7527 294.951 82.963 295.915 84.6225Z" fill="#F0F0F0"/>
<path d="M287.82 87.6081C288.037 87.9984 288.491 87.9803 289.036 87.8441L288.21 86.4102C287.702 86.8276 287.611 87.2542 287.82 87.6081Z" fill="#E0E0E0"/>
<path d="M290.361 88.6067L291.187 90.0407C291.722 89.605 291.813 89.1876 291.613 88.8427C291.414 88.4978 290.924 88.4615 290.361 88.6067Z" fill="#E0E0E0"/>
<path d="M286.549 82.8888C285.488 83.5 284.632 84.412 284.089 85.5097C283.547 86.6074 283.342 87.8414 283.501 89.0555C283.66 90.2697 284.175 91.4094 284.982 92.3306C285.789 93.2517 286.85 93.9129 288.033 94.2305C289.216 94.548 290.466 94.5077 291.625 94.1146C292.785 93.7214 293.802 92.9932 294.548 92.022C295.293 91.0507 295.734 89.8801 295.815 88.6583C295.895 87.4364 295.611 86.2182 294.999 85.1578C294.593 84.4534 294.053 83.8359 293.409 83.3406C292.765 82.8452 292.029 82.4818 291.244 82.271C290.46 82.0603 289.641 82.0064 288.835 82.1124C288.03 82.2184 287.253 82.4823 286.549 82.8888ZM291.695 90.9118L292.212 91.8194L291.55 92.2006L291.033 91.293C290.313 91.6875 289.489 91.8522 288.673 91.7649L288.609 90.7575C289.283 90.8437 289.967 90.7334 290.579 90.4399L289.671 88.8335C288.655 89.133 287.52 89.3962 286.876 88.2708C286.404 87.4449 286.585 86.383 287.783 85.548L287.257 84.6405L287.919 84.2593L288.437 85.1669C289.031 84.8607 289.692 84.7049 290.361 84.7131L290.497 85.7205C289.96 85.7133 289.428 85.8216 288.936 86.0381L289.844 87.6718C290.86 87.3723 292.004 87.0909 292.648 88.2072C293.084 88.9968 292.884 90.0587 291.695 90.9118Z" fill="#E0E0E0"/>
<path d="M106.865 278.051C111 273.022 110.276 265.593 105.246 261.457C100.217 257.322 92.7878 258.046 88.6524 263.075C84.517 268.105 85.2415 275.534 90.2707 279.67C95.2999 283.805 102.729 283.08 106.865 278.051Z" fill="#F0F0F0"/>
<path d="M96.5389 267.644C96.312 268.334 96.8293 268.851 97.5917 269.369L98.4176 266.8C97.3376 266.628 96.7386 267.009 96.5389 267.644Z" fill="#E0E0E0"/>
<path d="M98.1181 271.801L97.3012 274.352C98.4085 274.533 99.0075 274.188 99.2071 273.562C99.4068 272.936 98.9258 272.319 98.1181 271.801Z" fill="#E0E0E0"/>
<path d="M100.841 260.955C98.9451 260.346 96.9114 260.313 94.9969 260.861C93.0824 261.408 91.3732 262.51 90.0856 264.029C88.7979 265.547 87.9895 267.414 87.7628 269.392C87.5361 271.37 87.9012 273.371 88.8119 275.142C89.7226 276.912 91.138 278.373 92.879 279.339C94.6201 280.305 96.6086 280.733 98.5929 280.569C100.577 280.405 102.468 279.655 104.027 278.416C105.585 277.177 106.741 275.503 107.348 273.607C108.161 271.066 107.933 268.307 106.713 265.935C105.493 263.562 103.381 261.771 100.841 260.955ZM96.793 275.903L96.2757 277.519L95.0958 277.138L95.6041 275.54C94.3442 275.096 93.2469 274.283 92.4548 273.208L93.5711 271.955C94.2074 272.855 95.0852 273.557 96.1032 273.979L97.0108 271.093C95.5314 270.186 93.9795 269.115 94.6239 267.109C95.0958 265.629 96.5752 264.695 98.8986 265.194L99.425 263.56L100.614 263.941L100.097 265.548C101.118 265.921 102.03 266.545 102.747 267.363L101.685 268.634C101.104 267.984 100.393 267.465 99.5974 267.109L98.6898 270.022C100.169 270.93 101.748 271.992 101.104 273.997C100.623 275.504 99.1345 276.421 96.793 275.903Z" fill="#E0E0E0"/>
<path d="M378.786 217.758C384.974 215.733 388.349 209.075 386.324 202.887C384.299 196.698 377.641 193.324 371.453 195.349C365.265 197.374 361.89 204.032 363.915 210.22C365.94 216.408 372.598 219.783 378.786 217.758Z" fill="#F0F0F0"/>
<path d="M372.106 205.529C372.478 206.156 373.214 206.11 374.103 205.883L372.714 203.56C371.916 204.259 371.798 204.958 372.106 205.529Z" fill="#E0E0E0"/>
<path d="M376.308 207.1L377.679 209.405C378.586 208.688 378.686 208.007 378.35 207.444C378.015 206.882 377.216 206.855 376.308 207.1Z" fill="#E0E0E0"/>
<path d="M369.973 197.852C368.264 198.872 366.895 200.375 366.041 202.173C365.186 203.97 364.883 205.98 365.17 207.95C365.458 209.919 366.323 211.759 367.656 213.237C368.989 214.715 370.731 215.765 372.66 216.253C374.589 216.741 376.62 216.647 378.496 215.981C380.372 215.315 382.008 214.109 383.198 212.513C384.388 210.918 385.078 209.005 385.181 207.017C385.284 205.03 384.796 203.056 383.778 201.346C382.409 199.053 380.187 197.397 377.599 196.742C375.01 196.087 372.268 196.486 369.973 197.852ZM378.532 210.794L379.394 212.255L378.332 212.89L377.47 211.447C376.301 212.099 374.964 212.383 373.631 212.264L373.431 210.603C374.528 210.72 375.635 210.525 376.626 210.041L375.074 207.436C373.422 207.944 371.589 208.398 370.536 206.583C369.747 205.258 370.019 203.524 371.934 202.118L371.026 200.647L372.097 200.012L372.959 201.455C373.915 200.937 374.986 200.669 376.072 200.674L376.326 202.308C375.453 202.315 374.591 202.503 373.794 202.862L375.364 205.494C377.025 204.985 378.868 204.495 379.948 206.311C380.737 207.663 380.447 209.396 378.532 210.821V210.794Z" fill="#E0E0E0"/>
<path d="M261.255 57.3497C259.853 59.2153 257.929 60.6233 255.727 61.3956C253.525 62.1679 251.143 62.2697 248.883 61.6883C246.623 61.1069 244.586 59.8683 243.03 58.1291C241.474 56.39 240.468 54.2284 240.141 51.9179C239.813 49.6073 240.178 47.2515 241.19 45.1484C242.201 43.0453 243.814 41.2893 245.823 40.1026C247.833 38.916 250.149 38.3519 252.479 38.4816C254.809 38.6114 257.048 39.4293 258.913 40.8318C261.414 42.712 263.065 45.5083 263.504 48.6059C263.943 51.7035 263.134 54.8486 261.255 57.3497Z" fill="#F0F0F0"/>
<path d="M251.617 47.1215C251.181 47.7023 251.499 48.3648 252.043 49.1L253.668 46.94C252.706 46.4226 252.016 46.586 251.617 47.1215Z" fill="#E0E0E0"/>
<path d="M251.743 51.5684L250.137 53.7102C251.117 54.2457 251.807 54.1096 252.197 53.5923C252.588 53.0749 252.306 52.3126 251.743 51.5684Z" fill="#E0E0E0"/>
<path d="M257.879 42.2114C256.288 41.0154 254.377 40.318 252.39 40.2074C250.402 40.0969 248.427 40.5782 246.713 41.5905C244.999 42.6027 243.623 44.1005 242.761 45.8944C241.898 47.6883 241.586 49.6977 241.866 51.6686C242.145 53.6396 243.002 55.4834 244.329 56.9671C245.656 58.4508 247.394 59.5076 249.321 60.004C251.249 60.5004 253.281 60.414 255.159 59.7558C257.038 59.0976 258.679 57.8971 259.875 56.3061C260.67 55.2496 261.249 54.0469 261.578 52.7667C261.908 51.4866 261.982 50.154 261.797 48.8452C261.611 47.5363 261.17 46.2768 260.498 45.1386C259.825 44.0004 258.935 43.0057 257.879 42.2114ZM249.139 55.0264L248.122 56.3878L247.124 55.6436L248.14 54.2913C247.092 53.4633 246.32 52.3366 245.926 51.0603L247.387 50.2435C247.701 51.2944 248.301 52.2371 249.121 52.9662L250.936 50.543C249.838 49.2089 248.721 47.6841 250.028 46.0051C250.936 44.7708 252.66 44.3715 254.693 45.6058L255.719 44.2353L256.717 44.9886L255.701 46.3318C256.542 47.0209 257.198 47.9103 257.606 48.9184L256.191 49.7715C255.852 48.9672 255.352 48.2412 254.72 47.6387L252.905 50.0892C254.003 51.4233 255.147 52.9571 253.885 54.6271C252.896 55.8886 251.19 56.2698 249.139 55.0264Z" fill="#E0E0E0"/>
<path d="M82.8618 94.6148C84.246 95.3461 85.3822 96.4716 86.1267 97.8488C86.8712 99.226 87.1905 100.793 87.0442 102.352C86.898 103.91 86.2927 105.391 85.305 106.605C84.3173 107.82 82.9915 108.714 81.4954 109.175C79.9993 109.636 78.4 109.643 76.8999 109.195C75.3999 108.747 74.0664 107.864 73.0682 106.658C72.07 105.452 71.4519 103.977 71.2921 102.42C71.1323 100.863 71.438 99.2929 72.1705 97.9093C73.152 96.0554 74.8295 94.6669 76.8342 94.0492C78.839 93.4314 81.007 93.6349 82.8618 94.6148Z" fill="#F0F0F0"/>
<path d="M77.144 102.075C77.5796 102.311 77.979 102.029 78.4146 101.585L76.7628 100.741C76.5268 101.43 76.7084 101.866 77.144 102.075Z" fill="#E0E0E0"/>
<path d="M80.0301 101.521L81.6274 102.365C81.8725 101.658 81.7182 101.213 81.3279 101.013C80.9377 100.814 80.4748 101.068 80.0301 101.521Z" fill="#E0E0E0"/>
<path d="M73.187 98.4446C72.559 99.626 72.2957 100.967 72.4304 102.298C72.565 103.629 73.0915 104.891 73.9433 105.923C74.7951 106.954 75.9339 107.71 77.2154 108.094C78.497 108.479 79.8638 108.474 81.1428 108.081C82.4217 107.688 83.5554 106.925 84.4003 105.888C85.2452 104.85 85.7633 103.585 85.889 102.253C86.0147 100.921 85.7425 99.5819 85.1066 98.4047C84.4708 97.2275 83.5 96.2654 82.3172 95.6402C80.7341 94.8034 78.8838 94.6287 77.1722 95.1545C75.4605 95.6802 74.0273 96.8634 73.187 98.4446ZM82.5894 102.883L83.5969 103.418L83.2066 104.153L82.2083 103.627C81.7665 104.41 81.0992 105.043 80.2933 105.442L79.6035 104.534C80.2724 104.216 80.8384 103.716 81.2372 103.091L79.422 102.138C78.6506 103.046 77.7521 103.908 76.5087 103.246C75.6011 102.765 75.1382 101.676 75.7463 100.196L74.7298 99.6607L75.1201 98.9256L76.1184 99.452C76.4881 98.8225 77.009 98.2953 77.6341 97.9182L78.3511 98.7713C77.8676 99.0872 77.4563 99.5016 77.144 99.9874L78.9591 100.949C79.7306 100.042 80.62 99.1343 81.8634 99.815C82.771 100.305 83.2066 101.394 82.5894 102.883Z" fill="#E0E0E0"/>
<path d="M224.671 165.76C225.986 166.458 227.065 167.53 227.772 168.841C228.479 170.151 228.781 171.642 228.64 173.125C228.5 174.607 227.924 176.015 226.984 177.17C226.044 178.325 224.782 179.175 223.359 179.614C221.936 180.052 220.415 180.059 218.988 179.634C217.561 179.208 216.292 178.369 215.342 177.222C214.391 176.076 213.802 174.673 213.648 173.192C213.495 171.711 213.784 170.217 214.478 168.9C215.414 167.132 217.013 165.808 218.924 165.22C220.836 164.631 222.903 164.825 224.671 165.76Z" fill="#F0F0F0"/>
<path d="M219.18 172.875C219.597 173.093 219.978 172.82 220.387 172.403L218.862 171.595C218.635 172.249 218.808 172.675 219.18 172.875Z" fill="#E0E0E0"/>
<path d="M221.975 172.34L223.491 173.147C223.727 172.467 223.572 172.049 223.209 171.859C222.846 171.668 222.356 171.904 221.975 172.34Z" fill="#E0E0E0"/>
<path d="M215.459 169.408C214.862 170.532 214.611 171.808 214.74 173.075C214.868 174.341 215.369 175.541 216.18 176.523C216.99 177.505 218.074 178.224 219.293 178.59C220.512 178.955 221.813 178.951 223.029 178.578C224.246 178.204 225.325 177.478 226.13 176.491C226.934 175.505 227.427 174.302 227.548 173.034C227.668 171.767 227.41 170.492 226.805 169.372C226.201 168.252 225.278 167.336 224.153 166.74C222.646 165.944 220.884 165.778 219.255 166.278C217.625 166.778 216.26 167.904 215.459 169.408ZM224.426 173.637L225.388 174.146L225.015 174.853L224.062 174.345C223.642 175.088 223.01 175.688 222.247 176.07L221.585 175.226C222.223 174.924 222.764 174.449 223.146 173.855L221.431 172.948C220.695 173.783 219.851 174.636 218.653 174C217.746 173.537 217.355 172.503 217.936 171.096L216.965 170.588L217.337 169.88L218.245 170.388C218.595 169.787 219.091 169.284 219.688 168.927L220.369 169.735C219.894 170.029 219.487 170.418 219.171 170.878L220.904 171.786C221.639 170.96 222.483 170.08 223.672 170.706C224.589 171.178 224.997 172.221 224.426 173.637Z" fill="#E0E0E0"/>
<path d="M336.121 263.061C335.077 266.292 333.099 269.142 330.437 271.25C327.775 273.358 324.547 274.629 321.163 274.904C317.778 275.179 314.388 274.445 311.421 272.794C308.453 271.143 306.041 268.65 304.49 265.629C302.938 262.609 302.317 259.196 302.704 255.823C303.091 252.449 304.468 249.266 306.663 246.675C308.858 244.084 311.772 242.201 315.036 241.265C318.3 240.329 321.769 240.381 325.003 241.415C327.156 242.105 329.151 243.212 330.875 244.673C332.6 246.135 334.019 247.922 335.051 249.932C336.084 251.943 336.71 254.137 336.894 256.39C337.077 258.643 336.815 260.91 336.121 263.061Z" fill="#F0F0F0"/>
<path d="M317.96 253.595C317.643 254.602 318.396 255.355 319.503 256.109L320.701 252.36C319.131 252.115 318.26 252.669 317.96 253.595Z" fill="#E0E0E0"/>
<path d="M320.275 259.648L319.077 263.37C320.683 263.633 321.572 263.124 321.863 262.226C322.153 261.327 321.418 260.411 320.275 259.648Z" fill="#E0E0E0"/>
<path d="M324.232 243.847C321.469 242.963 318.506 242.917 315.718 243.716C312.929 244.515 310.44 246.123 308.566 248.336C306.691 250.55 305.515 253.27 305.186 256.152C304.857 259.034 305.39 261.948 306.718 264.527C308.045 267.107 310.108 269.234 312.644 270.641C315.181 272.048 318.078 272.671 320.969 272.431C323.86 272.192 326.615 271.1 328.885 269.295C331.156 267.49 332.84 265.052 333.725 262.289C334.314 260.455 334.535 258.523 334.377 256.603C334.218 254.683 333.683 252.813 332.801 251.101C331.919 249.388 330.709 247.866 329.238 246.621C327.768 245.376 326.067 244.434 324.232 243.847ZM318.341 265.629L317.588 267.989L315.864 267.435L316.608 265.094C314.768 264.455 313.166 263.271 312.016 261.7L313.64 259.884C314.569 261.196 315.849 262.219 317.334 262.834L318.686 258.623C316.535 257.307 314.276 255.746 315.21 252.823C315.9 250.682 318.051 249.302 321.436 250.037L322.199 247.659L323.923 248.213L323.179 250.554C324.666 251.102 325.992 252.013 327.036 253.205L325.493 255.02C324.647 254.071 323.611 253.31 322.453 252.787L321.082 257.035C323.242 258.36 325.548 259.912 324.613 262.834C323.923 265.012 321.754 266.392 318.341 265.666V265.629Z" fill="#E0E0E0"/>
<path d="M77.2777 205.278C86.2175 202.099 90.8869 192.274 87.7071 183.334C84.5273 174.394 74.7024 169.725 65.7626 172.905C56.8228 176.084 52.1534 185.909 55.3332 194.849C58.513 203.789 68.3379 208.458 77.2777 205.278Z" fill="#F0F0F0"/>
<path d="M73.1325 184.791C72.2249 185.309 72.2249 186.371 72.5153 187.678L75.9641 185.781C74.993 184.519 73.9856 184.329 73.1325 184.791Z" fill="#E0E0E0"/>
<path d="M70.6458 190.772L67.2151 192.66C68.2044 193.958 69.1936 194.194 70.0286 193.731C70.8636 193.268 70.9543 192.116 70.6458 190.772Z" fill="#E0E0E0"/>
<path d="M84.4046 182.024C83.007 179.482 80.8873 177.412 78.3133 176.075C75.7393 174.738 72.8267 174.194 69.9437 174.512C67.0608 174.831 64.3369 175.997 62.1164 177.863C59.896 179.729 58.2788 182.212 57.4693 184.997C56.6597 187.782 56.6942 190.745 57.5683 193.51C58.4424 196.276 60.117 198.72 62.3802 200.534C64.6434 202.348 67.3937 203.451 70.2833 203.702C73.1729 203.953 76.072 203.341 78.6142 201.945C82.0226 200.07 84.5471 196.918 85.6328 193.183C86.7186 189.447 86.2768 185.434 84.4046 182.024ZM65.1186 193.822L62.9494 195.011L62.0419 193.423L64.1928 192.243C63.3016 190.51 62.9536 188.549 63.1945 186.616L65.6268 186.407C65.3953 187.999 65.6252 189.625 66.2893 191.09L70.1556 188.967C69.5022 186.525 68.9304 183.839 71.6259 182.359C73.5953 181.27 76.1093 181.76 78.0606 184.619L80.2479 183.421L81.1554 185.01L78.9591 186.189C79.6626 187.612 79.9996 189.187 79.9393 190.773L77.5523 191.045C77.5833 189.774 77.3515 188.51 76.8717 187.333L72.96 189.484C73.6135 191.925 74.2306 194.639 71.5351 196.118C69.5838 197.207 67.088 196.69 65.1004 193.822H65.1186Z" fill="#E0E0E0"/>
<path d="M226.894 338.127C324.08 338.127 402.864 333.527 402.864 327.853C402.864 322.179 324.08 317.579 226.894 317.579C129.709 317.579 50.9241 322.179 50.9241 327.853C50.9241 333.527 129.709 338.127 226.894 338.127Z" fill="#F5F5F5"/>
<path d="M348.7 47.0034H345.07C335.086 47.0034 326.982 56.778 326.982 68.8397C326.982 80.9014 335.077 90.676 345.07 90.676H348.7C358.683 90.676 366.797 80.9014 366.797 68.8397C366.797 56.778 358.692 47.0034 348.7 47.0034Z" fill="#8EF2D4"/>
<path opacity="0.2" d="M348.7 47.0034H345.07C335.086 47.0034 326.982 56.778 326.982 68.8397C326.982 80.9014 335.077 90.676 345.07 90.676H348.7C358.683 90.676 366.797 80.9014 366.797 68.8397C366.797 56.778 358.692 47.0034 348.7 47.0034Z" fill="black"/>
<path d="M345.061 90.676C355.055 90.676 363.158 80.8995 363.158 68.8397C363.158 56.7799 355.055 47.0034 345.061 47.0034C335.066 47.0034 326.963 56.7799 326.963 68.8397C326.963 80.8995 335.066 90.676 345.061 90.676Z" fill="#8EF2D4"/>
<path opacity="0.3" d="M345.061 87.4815C353.592 87.4815 360.507 79.1353 360.507 68.8399C360.507 58.5444 353.592 50.1982 345.061 50.1982C336.529 50.1982 329.614 58.5444 329.614 68.8399C329.614 79.1353 336.529 87.4815 345.061 87.4815Z" fill="white"/>
<path d="M346.168 78.8864V82.0357H344.262V78.959C342.15 78.8621 340.136 78.0381 338.562 76.6265L339.606 73.7858C340.885 74.9829 342.52 75.7315 344.262 75.9186V70.3098C341.675 69.5475 338.907 68.4947 338.907 64.6375C338.907 61.7695 340.632 59.2737 344.262 58.8471V55.6797H346.168V58.7927C347.877 58.8929 349.52 59.489 350.896 60.508L349.943 63.3396C348.824 62.5402 347.529 62.0205 346.168 61.824V67.4963C348.754 68.2587 351.568 69.2389 351.568 73.1415C351.568 75.9731 349.825 78.4417 346.168 78.8864ZM344.262 66.8701V61.8694C343.617 61.9135 343.013 62.2036 342.576 62.6799C342.138 63.1561 341.9 63.7822 341.911 64.4287C341.911 65.781 342.91 66.3982 344.262 66.8701ZM348.591 73.3593C348.591 71.9798 347.565 71.3354 346.168 70.8634V75.8279C347.865 75.5193 348.591 74.5664 348.591 73.3593Z" fill="#8EF2D4"/>
<path d="M373.649 104.562H324.005C322.888 104.562 321.817 105.005 321.027 105.795C320.237 106.585 319.794 107.656 319.794 108.773V327.635H377.878V108.773C377.88 108.218 377.771 107.668 377.559 107.156C377.346 106.643 377.035 106.177 376.641 105.786C376.248 105.394 375.781 105.085 375.268 104.874C374.754 104.664 374.204 104.558 373.649 104.562Z" fill="#8EF2D4"/>
<path opacity="0.1" d="M373.649 104.562H324.005C322.888 104.562 321.817 105.005 321.027 105.795C320.237 106.585 319.794 107.656 319.794 108.773V327.635H377.878V108.773C377.88 108.218 377.771 107.668 377.559 107.156C377.346 106.643 377.035 106.177 376.641 105.786C376.248 105.394 375.781 105.085 375.268 104.874C374.754 104.664 374.204 104.558 373.649 104.562Z" fill="white"/>
<path opacity="0.3" d="M324.005 104.562H370.963C372.08 104.562 373.151 105.005 373.94 105.795C374.73 106.585 375.174 107.656 375.174 108.773V327.635H319.812V108.773C319.812 107.659 320.253 106.591 321.039 105.801C321.825 105.012 322.891 104.566 324.005 104.562Z" fill="white"/>
<path d="M289.825 177.213H240.145C239.034 177.223 237.972 177.671 237.19 178.46C236.409 179.248 235.97 180.314 235.97 181.425V219.969H261.745C261.091 219.317 260.573 218.542 260.221 217.688C259.869 216.834 259.69 215.919 259.694 214.996C259.675 213.43 260.194 211.904 261.163 210.674C262.133 209.444 263.494 208.583 265.021 208.234C266.548 208.583 267.908 209.444 268.876 210.675C269.844 211.905 270.36 213.431 270.34 214.996C270.345 215.919 270.167 216.833 269.817 217.687C269.466 218.541 268.95 219.317 268.298 219.969H294.055V181.425C294.056 180.87 293.947 180.32 293.735 179.807C293.523 179.295 293.211 178.829 292.818 178.438C292.424 178.046 291.958 177.736 291.444 177.526C290.93 177.316 290.38 177.21 289.825 177.213Z" fill="#8EF2D4"/>
<path d="M270.984 261.791H268.261C268.914 262.443 269.43 263.219 269.781 264.073C270.131 264.926 270.309 265.841 270.303 266.764C270.324 268.329 269.807 269.854 268.84 271.085C267.872 272.315 266.511 273.177 264.985 273.525C263.458 273.177 262.096 272.316 261.127 271.086C260.158 269.855 259.639 268.33 259.658 266.764C259.653 265.841 259.833 264.925 260.185 264.072C260.537 263.218 261.055 262.443 261.709 261.791H235.97V327.635H294.055V261.791H270.984Z" fill="#8EF2D4"/>
<path opacity="0.1" d="M289.825 177.213H240.145C239.034 177.223 237.972 177.671 237.19 178.46C236.409 179.248 235.97 180.314 235.97 181.425V219.969H261.745C261.091 219.317 260.573 218.542 260.221 217.688C259.869 216.834 259.69 215.919 259.694 214.996C259.675 213.43 260.194 211.904 261.163 210.674C262.133 209.444 263.494 208.583 265.021 208.234C266.548 208.583 267.908 209.444 268.876 210.675C269.844 211.905 270.36 213.431 270.34 214.996C270.345 215.919 270.167 216.833 269.817 217.687C269.466 218.541 268.95 219.317 268.298 219.969H294.055V181.425C294.056 180.87 293.947 180.32 293.735 179.807C293.523 179.295 293.211 178.829 292.818 178.438C292.424 178.046 291.958 177.736 291.444 177.526C290.93 177.316 290.38 177.21 289.825 177.213Z" fill="white"/>
<path opacity="0.1" d="M270.984 261.791H268.261C268.914 262.443 269.43 263.219 269.781 264.073C270.131 264.926 270.309 265.841 270.303 266.764C270.324 268.329 269.807 269.854 268.84 271.085C267.872 272.315 266.511 273.177 264.985 273.525C263.458 273.177 262.096 272.316 261.127 271.086C260.158 269.855 259.639 268.33 259.658 266.764C259.653 265.841 259.833 264.925 260.185 264.072C260.537 263.218 261.055 262.443 261.709 261.791H235.97V327.635H294.055V261.791H270.984Z" fill="white"/>
<path opacity="0.3" d="M268.261 261.791C268.914 262.443 269.43 263.219 269.781 264.073C270.131 264.926 270.309 265.841 270.303 266.764C270.337 267.663 270.188 268.559 269.867 269.398C269.546 270.238 269.059 271.005 268.435 271.652C267.811 272.3 267.063 272.815 266.236 273.166C265.408 273.518 264.518 273.699 263.619 273.699C262.72 273.699 261.83 273.518 261.003 273.166C260.175 272.815 259.427 272.3 258.803 271.652C258.179 271.005 257.692 270.238 257.371 269.398C257.05 268.559 256.902 267.663 256.935 266.764C256.931 265.841 257.11 264.925 257.462 264.072C257.814 263.218 258.332 262.443 258.986 261.791H235.97V327.635H291.332V261.791H268.261Z" fill="white"/>
<path opacity="0.3" d="M235.97 181.424V219.969H259.022C258.368 219.317 257.85 218.541 257.498 217.688C257.146 216.834 256.967 215.919 256.971 214.995C256.938 214.097 257.086 213.201 257.407 212.361C257.728 211.521 258.215 210.755 258.839 210.107C259.463 209.46 260.211 208.945 261.039 208.593C261.866 208.241 262.756 208.06 263.655 208.06C264.555 208.06 265.444 208.241 266.272 208.593C267.099 208.945 267.848 209.46 268.471 210.107C269.095 210.755 269.582 211.521 269.903 212.361C270.225 213.201 270.373 214.097 270.34 214.995C270.345 215.918 270.167 216.833 269.817 217.687C269.466 218.54 268.95 219.316 268.298 219.969H291.332V181.424C291.333 180.871 291.225 180.324 291.015 179.813C290.804 179.302 290.495 178.838 290.104 178.447C289.714 178.056 289.25 177.745 288.74 177.534C288.23 177.322 287.683 177.213 287.13 177.213H240.145C239.034 177.222 237.972 177.67 237.19 178.459C236.408 179.248 235.97 180.313 235.97 181.424Z" fill="white"/>
<path d="M165.016 92.7544H141.945C141.012 92.7532 140.088 92.9359 139.226 93.292C138.364 93.6482 137.581 94.1708 136.921 94.8299C136.261 95.4891 135.737 96.2719 135.38 97.1335C135.022 97.9952 134.839 98.9189 134.839 99.8517V123.149C134.839 125.032 135.586 126.838 136.917 128.171C138.248 129.503 140.053 130.253 141.936 130.255H151.066L153.48 136.608L155.885 130.255H165.016C166.899 130.253 168.704 129.503 170.035 128.171C171.365 126.838 172.113 125.032 172.113 123.149V99.8335C172.108 97.9543 171.358 96.1538 170.028 94.8267C168.697 93.4997 166.895 92.7544 165.016 92.7544Z" fill="#8EF2D4"/>
<path opacity="0.4" d="M165.016 92.7544H141.945C141.012 92.7532 140.088 92.9359 139.226 93.292C138.364 93.6482 137.581 94.1708 136.921 94.8299C136.261 95.4891 135.737 96.2719 135.38 97.1335C135.022 97.9952 134.839 98.9189 134.839 99.8517V123.149C134.839 125.032 135.586 126.838 136.917 128.171C138.248 129.503 140.053 130.253 141.936 130.255H151.066L153.48 136.608L155.885 130.255H165.016C166.899 130.253 168.704 129.503 170.035 128.171C171.365 126.838 172.113 125.032 172.113 123.149V99.8335C172.108 97.9543 171.358 96.1538 170.028 94.8267C168.697 93.4997 166.895 92.7544 165.016 92.7544Z" fill="white"/>
<path d="M153.595 126.039C155.715 126.024 157.427 124.995 157.417 123.742C157.408 122.489 155.682 121.486 153.562 121.502C151.442 121.517 149.73 122.546 149.739 123.799C149.749 125.052 151.475 126.055 153.595 126.039Z" fill="#263238"/>
<path opacity="0.4" d="M153.595 126.039C155.715 126.024 157.427 124.995 157.417 123.742C157.408 122.489 155.682 121.486 153.562 121.502C151.442 121.517 149.73 122.546 149.739 123.799C149.749 125.052 151.475 126.055 153.595 126.039Z" fill="white"/>
<path d="M159.053 119.564C159.257 119.365 159.377 119.096 159.388 118.811C159.388 117.586 156.757 116.606 153.535 116.633C150.313 116.66 147.708 117.668 147.717 118.902C147.733 119.185 147.856 119.451 148.062 119.646C148.005 119.768 147.974 119.901 147.971 120.036C147.978 120.176 148.013 120.314 148.073 120.44C148.134 120.566 148.22 120.679 148.325 120.771C148.262 120.895 148.228 121.032 148.225 121.171C148.234 121.311 148.271 121.449 148.333 121.575C148.395 121.701 148.482 121.814 148.588 121.906C148.516 122.03 148.479 122.171 148.479 122.314C148.489 122.454 148.527 122.591 148.591 122.716C148.655 122.84 148.744 122.951 148.852 123.04C148.778 123.164 148.737 123.305 148.734 123.449C148.734 124.474 150.921 125.264 153.598 125.264C156.276 125.264 158.445 124.356 158.436 123.376C158.433 123.231 158.388 123.089 158.308 122.968C158.417 122.879 158.505 122.769 158.568 122.644C158.63 122.519 158.666 122.382 158.672 122.242C158.673 122.097 158.632 121.955 158.554 121.833C158.723 121.707 158.843 121.525 158.892 121.32C158.942 121.114 158.919 120.898 158.826 120.708C159.032 120.513 159.155 120.247 159.171 119.964C159.163 119.823 159.122 119.687 159.053 119.564Z" fill="#263238"/>
<path d="M163.808 108.619C163.802 106.874 163.353 105.159 162.504 103.634C161.655 102.11 160.433 100.825 158.953 99.9003C157.473 98.9756 155.783 98.4409 154.041 98.3463C152.298 98.2516 150.56 98.6 148.989 99.3589C147.417 100.118 146.064 101.263 145.054 102.686C144.045 104.11 143.413 105.766 143.217 107.5C143.021 109.234 143.268 110.99 143.934 112.603C144.601 114.215 145.665 115.633 147.027 116.723C147.246 116.898 147.419 117.123 147.531 117.379C147.643 117.635 147.692 117.915 147.672 118.194C147.667 118.221 147.667 118.248 147.672 118.275C147.672 119.519 150.34 120.517 153.616 120.49C156.893 120.463 159.534 119.437 159.525 118.185V118.103C159.5 117.824 159.545 117.543 159.654 117.285C159.763 117.028 159.934 116.8 160.151 116.624C161.312 115.641 162.243 114.414 162.875 113.03C163.507 111.647 163.826 110.14 163.808 108.619Z" fill="#8EF2D4"/>
<path opacity="0.9" d="M163.808 108.619C163.802 106.874 163.353 105.159 162.504 103.634C161.655 102.11 160.433 100.825 158.953 99.9003C157.473 98.9756 155.783 98.4409 154.041 98.3463C152.298 98.2516 150.56 98.6 148.989 99.3589C147.417 100.118 146.064 101.263 145.054 102.686C144.045 104.11 143.413 105.766 143.217 107.5C143.021 109.234 143.268 110.99 143.934 112.603C144.601 114.215 145.665 115.633 147.027 116.723C147.246 116.898 147.419 117.123 147.531 117.379C147.643 117.635 147.692 117.915 147.672 118.194C147.667 118.221 147.667 118.248 147.672 118.275C147.672 119.519 150.34 120.517 153.616 120.49C156.893 120.463 159.534 119.437 159.525 118.185V118.103C159.5 117.824 159.545 117.543 159.654 117.285C159.763 117.028 159.934 116.8 160.151 116.624C161.312 115.641 162.243 114.414 162.875 113.03C163.507 111.647 163.826 110.14 163.808 108.619Z" fill="white"/>
<g opacity="0.2">
<path d="M151.429 119.065C151.33 119.065 151.236 119.026 151.166 118.956C151.096 118.887 151.057 118.792 151.057 118.693C151.057 115.135 148.144 112.413 148.116 112.386C148.065 112.334 148.03 112.269 148.015 112.197C148 112.126 148.007 112.052 148.034 111.984C148.061 111.916 148.107 111.858 148.167 111.817C148.227 111.775 148.298 111.752 148.371 111.75H150.068L150.585 110.516C150.61 110.451 150.653 110.395 150.71 110.355C150.766 110.314 150.833 110.292 150.903 110.289C150.973 110.283 151.043 110.298 151.104 110.332C151.166 110.366 151.215 110.417 151.248 110.48L152.219 112.231L153.126 110.461C153.162 110.403 153.211 110.355 153.269 110.32C153.328 110.285 153.394 110.265 153.462 110.262C153.53 110.267 153.595 110.288 153.652 110.325C153.709 110.361 153.756 110.411 153.789 110.471L154.751 112.449L155.658 110.461C155.689 110.398 155.737 110.345 155.796 110.306C155.855 110.268 155.924 110.246 155.994 110.244C156.066 110.246 156.135 110.269 156.195 110.309C156.254 110.349 156.301 110.405 156.33 110.471L156.865 111.705H158.563C158.643 111.706 158.721 111.733 158.785 111.782C158.849 111.831 158.895 111.9 158.917 111.977C158.938 112.055 158.934 112.138 158.905 112.213C158.875 112.289 158.822 112.352 158.753 112.395C156.33 113.829 155.649 118.702 155.64 118.748C155.62 118.839 155.567 118.92 155.49 118.973C155.413 119.027 155.319 119.05 155.227 119.037C155.134 119.025 155.049 118.978 154.99 118.905C154.93 118.833 154.9 118.741 154.905 118.648C154.905 118.457 155.486 114.491 157.501 112.458H156.593C156.52 112.461 156.449 112.441 156.387 112.402C156.326 112.363 156.277 112.307 156.248 112.24L155.94 111.532L155.032 113.484C155.001 113.547 154.954 113.599 154.894 113.636C154.835 113.673 154.766 113.693 154.696 113.692C154.627 113.691 154.559 113.67 154.5 113.634C154.441 113.597 154.393 113.545 154.361 113.484L153.371 111.469L152.464 113.202C152.431 113.26 152.384 113.309 152.326 113.342C152.269 113.376 152.204 113.393 152.137 113.393C152.001 113.393 151.874 113.32 151.81 113.202L150.903 111.523L150.594 112.277C150.564 112.344 150.516 112.401 150.455 112.441C150.394 112.481 150.322 112.503 150.249 112.504H149.16C150.71 114.216 151.617 116.413 151.729 118.72C151.729 118.818 151.691 118.911 151.623 118.98C151.555 119.05 151.463 119.09 151.366 119.093L151.429 119.065Z" fill="black"/>
</g>
<path d="M122.178 308.894H72.5063C71.9521 308.892 71.4033 309.001 70.8912 309.213C70.3792 309.424 69.914 309.735 69.5226 310.128C69.1312 310.52 68.8213 310.986 68.6106 311.498C68.3999 312.011 68.2927 312.56 68.2951 313.114V327.635H126.38V313.114C126.382 312.56 126.275 312.012 126.065 311.5C125.855 310.988 125.546 310.523 125.156 310.131C124.765 309.739 124.301 309.427 123.79 309.215C123.279 309.003 122.731 308.894 122.178 308.894Z" fill="#8EF2D4"/>
<path opacity="0.1" d="M122.178 308.894H72.5063C71.9521 308.892 71.4033 309.001 70.8912 309.213C70.3792 309.424 69.914 309.735 69.5226 310.128C69.1312 310.52 68.8213 310.986 68.6106 311.498C68.3999 312.011 68.2927 312.56 68.2951 313.114V327.635H126.38V313.114C126.382 312.56 126.275 312.012 126.065 311.5C125.855 310.988 125.546 310.523 125.156 310.131C124.765 309.739 124.301 309.427 123.79 309.215C123.279 309.003 122.731 308.894 122.178 308.894Z" fill="white"/>
<path opacity="0.3" d="M72.5063 308.894H119.464C120.581 308.894 121.652 309.337 122.442 310.127C123.232 310.917 123.675 311.988 123.675 313.105V327.635H68.3133V313.114C68.3109 311.998 68.751 310.928 69.5371 310.137C70.3231 309.345 71.391 308.898 72.5063 308.894Z" fill="white"/>
<path d="M206.02 264.014H156.321C155.768 264.014 155.221 264.123 154.711 264.334C154.2 264.546 153.737 264.856 153.346 265.248C152.956 265.639 152.647 266.103 152.436 266.614C152.225 267.125 152.118 267.672 152.119 268.225V327.635H210.204V268.189C210.194 267.083 209.75 266.025 208.967 265.244C208.184 264.463 207.126 264.021 206.02 264.014Z" fill="#8EF2D4"/>
<path opacity="0.1" d="M206.02 264.014H156.321C155.768 264.014 155.221 264.123 154.711 264.334C154.2 264.546 153.737 264.856 153.346 265.248C152.956 265.639 152.647 266.103 152.436 266.614C152.225 267.125 152.118 267.672 152.119 268.225V327.635H210.204V268.189C210.194 267.083 209.75 266.025 208.967 265.244C208.184 264.463 207.126 264.021 206.02 264.014Z" fill="white"/>
<path opacity="0.3" d="M156.321 264.014H203.297C204.414 264.014 205.485 264.457 206.275 265.247C207.065 266.037 207.508 267.108 207.508 268.225V327.635H152.146V268.189C152.156 267.084 152.598 266.028 153.379 265.247C154.16 264.466 155.217 264.023 156.321 264.014Z" fill="white"/>
<path d="M167.82 181.315C171.251 183.466 177.713 196.399 177.713 196.399L172.022 200.81L164.271 192.061L167.82 181.315Z" fill="#263238"/>
<path opacity="0.4" d="M177.713 196.399L172.022 200.81L167.738 196.036L164.271 192.061L165.542 188.258L167.865 181.315C171.251 183.466 177.713 196.399 177.713 196.399Z" fill="white"/>
<path opacity="0.2" d="M167.738 196.036L164.271 192.061L165.542 188.258C166.633 190.736 167.372 193.354 167.738 196.036Z" fill="black"/>
<path d="M161.34 223.445L137.825 220.033L140.348 194.348L164.217 196.962L161.34 223.445Z" fill="#263238"/>
<path opacity="0.3" d="M161.34 223.445L137.825 220.033L140.348 194.348L164.217 196.962L161.34 223.445Z" fill="white"/>
<path d="M127.859 261.627L146.347 262.907L145.929 255.728L125.953 257.77" fill="#FFC2BC"/>
<path d="M123.222 255.111L122.94 256.118L124.102 256.744C122.773 258.213 121.649 259.856 120.762 261.627C119.853 263.646 119.342 265.822 119.255 268.035C119.255 268.035 120.218 269.75 122.432 266.056C122.538 265.877 122.663 265.71 122.804 265.557C124.42 263.742 128.658 261.636 128.658 261.636L129.983 257.026C129.807 256.827 129.619 256.639 129.42 256.463C128.611 255.69 127.605 255.154 126.511 254.916C125.417 254.677 124.279 254.745 123.222 255.111Z" fill="#263238"/>
<path d="M129.42 256.463C129.92 257.271 126.153 259.186 124.556 260.928C123.14 262.48 122.16 264.395 122.813 265.566C124.429 263.751 129.747 261.609 129.747 261.609L130.809 257.906C130.809 257.906 129.783 256.844 129.42 256.463Z" fill="#FFC2BC"/>
<path d="M156.929 210.149L159.534 222.175C159.534 222.175 183.467 245.372 183.367 254.394C183.367 256.263 185.273 261.945 170.724 263.714C163.382 264.622 133.74 262.426 133.74 262.426V255.937C133.74 255.937 154.315 252.769 165.36 252.56L140.974 230.833L132.751 220.369L139.104 205.748L156.929 210.149Z" fill="#263238"/>
<path opacity="0.2" d="M170.724 263.714C166.945 263.979 163.154 264.015 159.37 263.823C148.153 263.488 133.74 262.426 133.74 262.426V255.937C133.74 255.937 148.08 253.731 159.243 252.878C161.458 252.715 163.536 252.597 165.36 252.56L157.056 245.164L140.974 230.833L137.825 226.821L132.751 220.369L139.104 205.748L156.956 210.167L159.561 222.193C159.561 222.193 183.494 245.39 183.394 254.412C183.33 256.263 185.273 261.945 170.724 263.714Z" fill="white"/>
<path opacity="0.2" d="M140.974 230.815L137.825 226.804L143.842 223.083C143.842 223.083 151.683 230.116 157.056 245.146L140.974 230.815Z" fill="black"/>
<path opacity="0.2" d="M159.37 263.823C148.153 263.487 133.74 262.426 133.74 262.426V255.936C133.74 255.936 148.08 253.731 159.243 252.878C159.793 256.503 159.836 260.187 159.37 263.823Z" fill="black"/>
<path d="M107.838 308.412H108.882L109.209 307.133L112.612 308.794L121.343 309.048C121.343 309.048 122.768 307.695 118.62 306.461C118.417 306.396 118.22 306.314 118.03 306.216C115.843 305.109 112.794 301.506 112.794 301.506L108.002 301.37C107.296 302.396 106.903 303.604 106.869 304.849C106.835 306.094 107.162 307.322 107.811 308.385L107.838 308.412Z" fill="#263238"/>
<path d="M107.62 302.078C108.274 301.388 111.06 304.574 113.138 305.708C114.954 306.697 117.095 307.178 118.058 306.253C115.87 305.145 112.521 300.508 112.521 300.508L108.664 300.39C108.664 300.39 107.856 301.633 107.62 302.078Z" fill="#FFC2BC"/>
<path d="M112.821 301.533L126.08 288.6L120.454 284.125L108.664 300.38" fill="#FFC2BC"/>
<path d="M155.649 257.752C154.052 246.952 150.785 233.093 148.062 222.356L146.837 208.743L133.74 206.483C133.74 206.483 127.387 217.728 130.319 228.346C132.57 236.605 137.58 246.643 144.178 258.451C129.774 269.922 117.921 284.716 111.196 294.817C111.738 295.735 112.425 296.56 113.229 297.259C114.153 298.152 115.249 298.847 116.451 299.301C127.024 289.19 141.5 276.611 151.701 267.073C155.114 263.996 156.502 261.437 155.649 257.752Z" fill="#263238"/>
<path opacity="0.2" d="M155.649 257.752C154.052 246.952 150.785 233.093 148.062 222.356L146.837 208.743L133.74 206.483C133.74 206.483 127.387 217.728 130.319 228.346C132.57 236.605 137.58 246.643 144.178 258.451C129.774 269.922 117.921 284.716 111.196 294.817C111.738 295.735 112.425 296.56 113.229 297.259C114.153 298.152 115.249 298.847 116.451 299.301C127.024 289.19 141.5 276.611 151.701 267.073C155.114 263.996 156.502 261.437 155.649 257.752Z" fill="white"/>
<path d="M167.82 181.316C167.82 181.316 165.823 197.425 156.929 210.15C156.929 210.15 137.961 207.763 133.74 206.519C136.363 198.75 137.933 193.559 139.023 178.983C139.286 175.471 142.471 173.447 145.947 174.073C149.368 174.307 152.744 174.978 155.994 176.07C160.036 177.585 163.985 179.336 167.82 181.316Z" fill="#8EF2D4"/>
<path opacity="0.8" d="M167.82 181.316C167.224 185.343 166.295 189.314 165.043 193.187C163.193 199.212 160.458 204.928 156.929 210.15C156.929 210.15 137.961 207.763 133.731 206.519C134.231 205.058 134.693 203.688 135.111 202.326C136.566 197.714 137.575 192.973 138.124 188.168C138.424 185.899 138.669 183.331 138.923 180.363C138.923 179.918 138.986 179.455 139.023 178.992C139.286 175.471 142.471 173.447 145.947 174.073C146.437 174.164 147.481 174.182 149.124 174.418C149.278 174.418 149.423 174.418 149.569 174.473C151.749 174.826 153.897 175.351 155.994 176.043C157.047 176.379 158.29 176.869 159.625 177.422C163.527 179.11 167.82 181.316 167.82 181.316Z" fill="white"/>
<path d="M148.743 192.106C148.507 194.112 148.234 196.245 147.88 198.514C147.826 198.841 147.79 199.022 147.79 199.022C147.427 201.327 146.982 203.76 146.456 206.283C145.29 211.948 143.821 217.547 142.054 223.055L127.478 218.88C127.478 218.88 134.457 201.636 136.146 195.945C136.339 195.289 136.496 194.622 136.617 193.949C137.235 190.682 137.471 186.38 137.834 182.74C138.142 179.654 138.551 177.032 139.358 175.906C140.829 173.864 145.711 174.091 148.153 174.291H148.244C148.652 174.291 148.988 174.372 149.215 174.409H149.569C149.758 180.32 149.482 186.238 148.743 192.106Z" fill="#263238"/>
<path d="M159.588 177.44C159.588 177.44 164.589 188.258 160.269 224.18L163.391 223.345L165.179 199.267C165.179 199.267 167.829 185.989 167.847 181.315C167.82 181.315 161.739 177.585 159.588 177.44Z" fill="#263238"/>
<path opacity="0.4" d="M148.743 192.106C148.507 194.112 148.234 196.245 147.88 198.514C147.826 198.841 147.79 199.022 147.79 199.022C147.427 201.327 146.982 203.76 146.456 206.283C145.29 211.948 143.821 217.547 142.054 223.055L127.478 218.88C127.478 218.88 134.457 201.636 136.146 195.945C136.339 195.289 136.496 194.622 136.617 193.949C137.235 190.682 137.471 186.38 137.834 182.74C138.142 179.654 138.551 177.032 139.358 175.906C140.829 173.864 145.711 174.091 148.153 174.291H148.244C148.652 174.291 148.988 174.372 149.215 174.409H149.569C149.758 180.32 149.482 186.238 148.743 192.106Z" fill="white"/>
<path opacity="0.4" d="M159.588 177.44C159.588 177.44 164.589 188.258 160.269 224.18L163.391 223.345L165.179 199.267C165.179 199.267 167.829 185.989 167.847 181.315C167.82 181.315 161.739 177.585 159.588 177.44Z" fill="white"/>
<path d="M148.843 192.406C148.461 195.283 148.071 197.579 147.935 198.559C147.88 198.886 147.844 199.067 147.844 199.067L145.593 185.145L144.922 180.861L148.153 181.624L143.397 177.44L148.153 174.318H148.244L149.215 174.436H149.569C150.358 178.983 149.587 186.77 148.843 192.406Z" fill="#263238"/>
<path d="M159.588 177.44L158.944 176.587C158.944 176.587 163.482 179.464 165.233 182.94L162.456 184.129L164.716 184.937L162.057 200.139C162.057 200.139 161.149 183.276 159.634 178.048" fill="#263238"/>
<path opacity="0.2" d="M148.843 192.406C148.461 195.283 148.071 197.579 147.935 198.559C147.88 198.886 147.844 199.067 147.844 199.067L145.593 185.145L144.922 180.861L148.153 181.624L143.397 177.44L148.153 174.318H148.244L149.215 174.436H149.569C150.358 178.983 149.587 186.77 148.843 192.406Z" fill="white"/>
<path opacity="0.2" d="M159.588 177.44L158.944 176.587C158.944 176.587 163.482 179.464 165.233 182.94L162.456 184.129L164.716 184.937L162.057 200.139C162.057 200.139 161.149 183.276 159.634 178.048" fill="white"/>
<path opacity="0.2" d="M148.843 192.406C148.461 195.283 148.071 197.579 147.935 198.559C147.881 198.886 147.844 199.068 147.844 199.068C147.481 201.373 147.036 203.805 146.51 206.328C142.244 205.012 138.895 199.204 136.672 193.994C137.289 190.727 137.525 186.425 137.888 182.786C140.021 181.878 142.426 181.352 143.842 182.532C144.577 183.291 145.19 184.161 145.657 185.109C146.883 187.362 147.935 189.704 148.806 192.116L148.843 192.406Z" fill="black"/>
<path d="M147.935 182.423C147.935 182.423 145.72 169.807 155.704 173.946C162.002 176.551 162.057 185.944 162.057 185.944L159.271 183.085C158.476 185.849 157.481 188.552 156.294 191.172C153.912 188.189 152.178 184.743 151.202 181.052L147.935 182.423Z" fill="#8EF2D4"/>
<path opacity="0.7" d="M147.935 182.423C147.935 182.423 145.72 169.807 155.704 173.946C162.002 176.551 162.057 185.944 162.057 185.944L159.271 183.085C158.476 185.849 157.481 188.552 156.294 191.172C153.912 188.189 152.178 184.743 151.202 181.052L147.935 182.423Z" fill="white"/>
<path d="M158.49 179.401C158.808 183.167 156.248 190.954 156.248 190.954C152.373 187.17 151.157 174.981 151.157 174.981C152.3 174.854 152.827 172.884 153.072 170.987C153.217 169.801 153.287 168.607 153.281 167.412L159.525 169.535C158.583 171.593 158.038 173.81 157.918 176.07C157.884 176.737 157.938 177.405 158.082 178.057C158.193 178.512 158.329 178.961 158.49 179.401Z" fill="#FFC2BC"/>
<path opacity="0.2" d="M159.525 169.535C158.583 171.593 158.038 173.81 157.918 176.07C155.816 174.913 154.115 173.144 153.045 170.996C153.19 169.81 153.26 168.616 153.253 167.42L159.525 169.535Z" fill="black"/>
<path d="M149.151 153.798C149.151 153.798 147.336 149.995 143.442 151.647C139.549 153.299 139.73 161.421 146.083 158.907C152.437 156.393 149.151 153.798 149.151 153.798Z" fill="#263238"/>
<path d="M151.429 153.48C151.429 153.48 149.224 152.527 146.891 155.241C144.559 157.954 146.147 161.113 146.755 160.777C147.363 160.441 151.738 155.195 151.429 153.48Z" fill="#8EF2D4"/>
<path d="M156.312 169.916C156.312 169.916 149.814 173.646 146.183 164.289C142.553 154.932 155.967 147.045 160.169 155.014C164.371 162.982 156.312 169.916 156.312 169.916Z" fill="#263238"/>
<path d="M148.843 162.138C150.658 167.484 151.329 169.78 154.842 171.968C160.133 175.253 166.313 172.213 166.123 166.522C165.95 161.394 162.992 153.516 157.047 152.518C155.784 152.273 154.479 152.367 153.265 152.792C152.051 153.216 150.972 153.955 150.137 154.934C149.303 155.913 148.743 157.095 148.516 158.361C148.288 159.627 148.401 160.931 148.843 162.138Z" fill="#FFC2BC"/>
<path d="M152.954 157.491C150.485 161.839 157.365 165.442 151.139 166.077C144.913 166.712 146.129 157.555 149.541 155.023C152.954 152.491 152.954 157.491 152.954 157.491Z" fill="#263238"/>
<path d="M149.532 155.086C150.848 158.717 151.592 159.624 154.778 158.109C154.173 157.428 153.824 156.559 153.789 155.649C154.246 156.515 155.025 157.167 155.958 157.464C156.794 156.953 157.682 156.533 158.608 156.212C158.354 155.717 158.218 155.17 158.209 154.614C158.56 155.2 159.074 155.67 159.688 155.967C160.715 155.828 161.757 155.859 162.774 156.057C162.184 152.082 154.878 148.842 149.532 155.086Z" fill="#263238"/>
<path d="M157.637 161.803C157.773 162.256 158.118 162.574 158.417 162.501C158.717 162.429 158.844 162.02 158.708 161.594C158.572 161.167 158.227 160.822 157.927 160.886C157.628 160.95 157.51 161.34 157.637 161.803Z" fill="#263238"/>
<path d="M163.209 160.641C163.336 161.095 163.69 161.412 163.981 161.34C164.271 161.267 164.407 160.859 164.271 160.432C164.135 160.006 163.79 159.661 163.5 159.724C163.209 159.788 163.073 160.196 163.209 160.641Z" fill="#263238"/>
<path d="M163.364 159.733L164.353 159.18C164.353 159.18 164.063 160.187 163.364 159.733Z" fill="#263238"/>
<path d="M161.884 161.739C162.59 162.695 163.417 163.556 164.344 164.299C164.157 164.515 163.924 164.687 163.661 164.8C163.399 164.913 163.114 164.965 162.828 164.952L161.884 161.739Z" fill="#D4827D"/>
<path d="M160.732 167.212C160.991 167.199 161.249 167.166 161.503 167.112C161.52 167.108 161.536 167.1 161.55 167.089C161.564 167.079 161.576 167.065 161.584 167.05C161.593 167.035 161.598 167.018 161.6 167C161.601 166.983 161.599 166.965 161.594 166.948C161.591 166.929 161.584 166.911 161.573 166.895C161.563 166.879 161.549 166.865 161.532 166.855C161.516 166.845 161.498 166.838 161.479 166.835C161.459 166.833 161.44 166.834 161.422 166.839C160.846 166.967 160.249 166.964 159.675 166.832C159.1 166.7 158.562 166.442 158.1 166.077C158.089 166.059 158.074 166.044 158.056 166.033C158.039 166.022 158.019 166.015 157.998 166.013C157.977 166.011 157.956 166.013 157.937 166.021C157.917 166.028 157.9 166.039 157.885 166.054C157.871 166.07 157.86 166.088 157.854 166.108C157.848 166.128 157.846 166.149 157.849 166.169C157.852 166.19 157.86 166.209 157.872 166.226C157.884 166.244 157.9 166.258 157.918 166.268C158.709 166.916 159.71 167.252 160.732 167.212Z" fill="#263238"/>
<path d="M149.033 167.52C149.329 167.972 149.715 168.358 150.169 168.651C150.622 168.945 151.132 169.141 151.665 169.226C152.999 169.381 153.335 167.838 152.7 166.431C152.128 165.169 150.748 163.572 149.541 164.071C148.334 164.57 148.207 166.322 149.033 167.52Z" fill="#FFC2BC"/>
<path d="M155.713 159.525C155.749 159.521 155.784 159.509 155.816 159.49C155.847 159.471 155.874 159.446 155.894 159.416C156.08 159.14 156.329 158.913 156.622 158.755C156.914 158.597 157.241 158.512 157.573 158.508C157.608 158.511 157.643 158.506 157.676 158.495C157.709 158.483 157.739 158.465 157.765 158.441C157.791 158.417 157.811 158.388 157.825 158.356C157.839 158.324 157.846 158.289 157.846 158.254C157.842 158.18 157.811 158.11 157.759 158.057C157.708 158.003 157.638 157.97 157.564 157.964C157.139 157.964 156.72 158.071 156.346 158.273C155.972 158.476 155.655 158.769 155.422 159.126C155.403 159.157 155.389 159.192 155.383 159.229C155.377 159.266 155.378 159.303 155.386 159.34C155.395 159.376 155.41 159.41 155.432 159.44C155.454 159.471 155.481 159.496 155.513 159.516C155.577 159.54 155.647 159.543 155.713 159.525Z" fill="#263238"/>
<path d="M164.081 157.8C164.15 157.798 164.215 157.768 164.262 157.718C164.307 157.66 164.327 157.587 164.319 157.514C164.31 157.441 164.274 157.374 164.217 157.328C163.886 157.027 163.491 156.807 163.061 156.686C162.63 156.565 162.178 156.545 161.739 156.629C161.705 156.638 161.673 156.655 161.645 156.677C161.617 156.699 161.594 156.727 161.578 156.759C161.562 156.791 161.553 156.825 161.551 156.861C161.549 156.896 161.554 156.932 161.567 156.965C161.59 157.034 161.638 157.093 161.702 157.128C161.766 157.163 161.841 157.173 161.912 157.156C162.26 157.099 162.617 157.121 162.957 157.22C163.296 157.318 163.609 157.492 163.872 157.727C163.9 157.754 163.933 157.773 163.969 157.786C164.005 157.798 164.043 157.803 164.081 157.8Z" fill="#263238"/>
<path d="M157.809 160.913L158.799 160.359C158.799 160.359 158.49 161.33 157.809 160.913Z" fill="#263238"/>
<path d="M202.861 246.289L218.871 207.653L197.924 198.977C198.975 198.525 199.902 197.826 200.626 196.94C201.349 196.054 201.848 195.006 202.081 193.885C202.383 192.585 202.291 191.225 201.818 189.977C201.344 188.73 200.51 187.651 199.422 186.879C198.685 186.38 197.852 186.042 196.977 185.886C196.101 185.729 195.203 185.758 194.339 185.971C192.925 185.925 191.531 186.316 190.347 187.09C189.163 187.865 188.247 188.986 187.723 190.3C187.156 191.665 187.029 193.172 187.36 194.611L168.546 186.815L166.731 186.988L150.721 225.614L171.668 234.3C170.616 234.75 169.688 235.447 168.963 236.331C168.238 237.216 167.737 238.263 167.502 239.382C167.201 240.683 167.294 242.044 167.769 243.292C168.245 244.54 169.081 245.618 170.171 246.389C170.907 246.887 171.74 247.226 172.615 247.382C173.491 247.538 174.389 247.509 175.253 247.296C176.667 247.343 178.061 246.952 179.245 246.177C180.429 245.402 181.345 244.281 181.869 242.967C182.436 241.603 182.563 240.096 182.232 238.656L201.046 246.452L202.861 246.289Z" fill="#8EF2D4"/>
<path opacity="0.3" d="M202.861 246.289L218.871 207.653L197.924 198.977C198.975 198.525 199.902 197.826 200.626 196.94C201.349 196.054 201.848 195.006 202.081 193.885C202.383 192.585 202.291 191.225 201.818 189.977C201.344 188.73 200.51 187.651 199.422 186.879C198.685 186.38 197.852 186.042 196.977 185.886C196.101 185.729 195.203 185.758 194.339 185.971C192.925 185.925 191.531 186.316 190.347 187.09C189.163 187.865 188.247 188.986 187.723 190.3C187.156 191.665 187.029 193.172 187.36 194.611L168.546 186.815L166.731 186.988L150.721 225.614L171.668 234.3C170.616 234.75 169.688 235.447 168.963 236.331C168.238 237.216 167.737 238.263 167.502 239.382C167.201 240.683 167.294 242.044 167.769 243.292C168.245 244.54 169.081 245.618 170.171 246.389C170.907 246.887 171.74 247.226 172.615 247.382C173.491 247.538 174.389 247.509 175.253 247.296C176.667 247.343 178.061 246.952 179.245 246.177C180.429 245.402 181.345 244.281 181.869 242.967C182.436 241.603 182.563 240.096 182.232 238.656L201.046 246.452L202.861 246.289Z" fill="black"/>
<path d="M218.871 207.654L197.924 198.977C198.975 198.525 199.902 197.826 200.626 196.94C201.349 196.054 201.848 195.006 202.081 193.886C202.519 192.242 202.3 190.492 201.471 189.006C200.641 187.52 199.267 186.415 197.638 185.925C196.008 185.435 194.252 185.597 192.741 186.378C191.229 187.159 190.081 188.498 189.538 190.11C188.816 191.825 188.799 193.756 189.493 195.483L168.546 186.798L152.536 225.424L173.483 234.155C172.43 234.606 171.502 235.304 170.777 236.19C170.051 237.077 169.551 238.125 169.317 239.246C168.922 240.878 169.167 242.6 170.002 244.057C170.838 245.514 172.2 246.595 173.808 247.078C175.417 247.56 177.149 247.408 178.649 246.652C180.148 245.896 181.301 244.593 181.869 243.013C182.577 241.295 182.577 239.367 181.869 237.649L202.825 246.335L218.871 207.654Z" fill="#8EF2D4"/>
<path d="M199.894 200.983L197.988 199.077C197.905 198.998 197.838 198.903 197.793 198.798C197.748 198.692 197.724 198.579 197.724 198.464C197.724 198.35 197.748 198.236 197.793 198.131C197.838 198.026 197.905 197.931 197.988 197.852L198.895 197.071C199.079 196.904 199.295 196.778 199.531 196.7C199.767 196.623 200.016 196.596 200.263 196.622C200.51 196.647 200.749 196.725 200.963 196.849C201.178 196.974 201.364 197.142 201.509 197.343L203.796 200.493L204.059 201.4L202.662 200.819L200.937 201.228C200.757 201.278 200.567 201.282 200.384 201.239C200.202 201.196 200.033 201.108 199.894 200.983Z" fill="#FFC2BC"/>
<path d="M144.014 182.713C145.448 188.086 146.537 193.895 149.042 198.85C149.042 198.932 149.314 199.186 149.95 199.449C152.591 200.502 156.257 200.574 159.289 200.656C162.738 200.701 166.277 200.502 169.717 200.275C170.154 200.243 170.588 200.375 170.933 200.646C171.279 200.916 171.51 201.306 171.583 201.739C171.656 202.172 171.564 202.616 171.326 202.985C171.089 203.354 170.722 203.62 170.298 203.733C166.775 204.685 163.186 205.37 159.561 205.784C155.568 206.174 151.956 206.465 147.826 205.257C146.107 204.744 144.614 203.659 143.597 202.181L143.116 201.464C140.874 197.706 139.649 193.65 138.424 189.565C137.952 187.75 137.516 186.071 137.126 184.229C137.026 183.775 137.017 183.306 137.099 182.848C137.181 182.39 137.352 181.953 137.603 181.562C138.109 180.771 138.909 180.214 139.826 180.013C140.28 179.914 140.749 179.905 141.207 179.986C141.664 180.068 142.101 180.239 142.493 180.49C143.283 180.996 143.84 181.796 144.041 182.713H144.014Z" fill="#EBC0BB"/>
<path d="M168.628 200.574L172.803 197.806L173.583 203.615C172.604 203.883 171.578 203.927 170.58 203.743C169.582 203.56 168.638 203.153 167.82 202.553L168.628 200.574Z" fill="#FFC2BC"/>
<path d="M177.713 198.215L177.486 202.644L173.583 203.597L172.803 197.788L177.713 198.215Z" fill="#FFC2BC"/>
<path d="M140.556 174.98C135.528 176.796 135.964 183.947 138.56 192.569C141.155 201.191 145.194 206.528 149.133 207.091L152.709 200.048C151.609 199.445 150.58 198.72 149.641 197.888C148.171 196.073 143.397 178.084 143.397 178.084L140.556 174.98Z" fill="#263238"/>
<path opacity="0.4" d="M140.556 174.98C135.528 176.796 135.964 183.947 138.56 192.569C141.155 201.191 145.194 206.528 149.133 207.091L152.709 200.048C151.609 199.445 150.58 198.72 149.641 197.888C148.171 196.073 143.397 178.084 143.397 178.084L140.556 174.98Z" fill="white"/>
<path d="M153.181 199.631L151.157 198.632L145.285 207.055L149.641 207.463L153.181 199.631Z" fill="#263238"/>
<path opacity="0.2" d="M153.181 199.631L151.157 198.632L145.285 207.055L149.641 207.463L153.181 199.631Z" fill="white"/>
</svg>
