<svg width="447" height="359" viewBox="0 0 447 359" fill="none" xmlns="http://www.w3.org/2000/svg">
<rect x="28" width="390" height="359" rx="9" fill="#B6C4DA"/>
<path d="M446.188 292.164H0V292.387H446.188V292.164Z" fill="#EBEBEB"/>
<path d="M401.48 306.522H371.925V306.746H401.48V306.522Z" fill="#EBEBEB"/>
<path d="M295.573 308.95H287.818V309.173H295.573V308.95Z" fill="#EBEBEB"/>
<path d="M371.032 298.241H353.908V298.464H371.032V298.241Z" fill="#EBEBEB"/>
<path d="M85.3558 299.74H46.8141V299.963H85.3558V299.74Z" fill="#EBEBEB"/>
<path d="M98.9556 299.74H93.3069V299.963H98.9556V299.74Z" fill="#EBEBEB"/>
<path d="M200.919 303.506H117.321V303.729H200.919V303.506Z" fill="#EBEBEB"/>
<path d="M211.493 252.364H39.1842C37.8343 252.362 36.5406 251.824 35.5869 250.869C34.6333 249.913 34.0977 248.619 34.0977 247.269V5.05085C34.1094 3.70874 34.6502 2.42546 35.6026 1.47976C36.555 0.53405 37.842 0.00229911 39.1842 0H211.493C212.845 0 214.141 0.536843 215.096 1.49243C216.052 2.44802 216.589 3.74407 216.589 5.09547V247.269C216.589 248.62 216.052 249.916 215.096 250.872C214.141 251.827 212.845 252.364 211.493 252.364ZM39.1842 0.178476C37.8935 0.18084 36.6565 0.69522 35.7447 1.60871C34.8329 2.5222 34.3207 3.76016 34.3208 5.05085V247.269C34.3207 248.559 34.8329 249.797 35.7447 250.711C36.6565 251.624 37.8935 252.139 39.1842 252.141H211.493C212.785 252.139 214.023 251.625 214.936 250.711C215.849 249.798 216.363 248.56 216.366 247.269V5.05085C216.363 3.75934 215.849 2.5214 214.936 1.60817C214.023 0.69493 212.785 0.180835 211.493 0.178476H39.1842Z" fill="#EBEBEB"/>
<path d="M404.523 252.364H232.205C230.855 252.362 229.56 251.824 228.605 250.869C227.65 249.914 227.112 248.619 227.11 247.269V5.05085C227.124 3.70793 227.667 2.42466 228.621 1.4792C229.574 0.533738 230.862 0.00227403 232.205 0H404.523C405.864 0.00464437 407.149 0.537433 408.099 1.48289C409.05 2.42834 409.589 3.71028 409.601 5.05085V247.269C409.601 248.617 409.067 249.91 408.115 250.865C407.163 251.82 405.872 252.359 404.523 252.364ZM232.205 0.178476C230.914 0.180835 229.676 0.69493 228.763 1.60817C227.849 2.5214 227.335 3.75934 227.333 5.05085V247.269C227.335 248.56 227.849 249.798 228.763 250.711C229.676 251.625 230.914 252.139 232.205 252.141H404.523C405.815 252.139 407.053 251.625 407.966 250.711C408.879 249.798 409.393 248.56 409.396 247.269V5.05085C409.393 3.75934 408.879 2.5214 407.966 1.60817C407.053 0.69493 405.815 0.180835 404.523 0.178476H232.205Z" fill="#EBEBEB"/>
<path d="M211.493 112.537V128.208L219.525 128.966C220.602 134.13 222.646 139.044 225.548 143.449L220.364 149.696L231.447 160.779L237.693 155.595C242.096 158.494 247.007 160.535 252.168 161.609L252.926 169.641H268.695L269.453 161.609C274.617 160.535 279.531 158.494 283.936 155.595L290.183 160.779L301.266 149.696L296.082 143.449C298.981 139.044 301.022 134.13 302.096 128.966L310.172 128.208V112.537L302.096 111.77C301.029 106.602 298.994 101.682 296.1 97.2689L301.284 91.0223L290.201 79.9479L283.954 85.1326C279.555 82.2369 274.651 80.1936 269.498 79.109L268.739 71.0776H253.016L252.257 79.109C247.097 80.1905 242.187 82.2339 237.783 85.1326L231.536 79.9479L220.417 91.0223L225.602 97.2689C222.702 101.672 220.658 106.583 219.578 111.743L211.493 112.537ZM260.824 99.1518C265.021 99.1518 269.124 100.396 272.613 102.728C276.103 105.06 278.823 108.374 280.429 112.252C282.035 116.129 282.456 120.396 281.637 124.512C280.818 128.629 278.797 132.41 275.829 135.378C272.861 138.346 269.08 140.367 264.964 141.185C260.847 142.004 256.581 141.584 252.703 139.978C248.825 138.372 245.511 135.652 243.18 132.162C240.848 128.672 239.603 124.57 239.603 120.373C239.603 117.583 240.153 114.82 241.222 112.243C242.291 109.667 243.857 107.326 245.831 105.355C247.805 103.384 250.149 101.821 252.728 100.757C255.307 99.6925 258.07 99.1471 260.86 99.1518H260.824Z" fill="#F0F0F0"/>
<path d="M185.043 182.678L189.505 186.408L197.474 178.44L193.744 173.978C195.848 170.806 197.328 167.262 198.108 163.537L203.908 162.992V151.704L198.108 151.16C197.335 147.449 195.867 143.918 193.78 140.754L197.51 136.293L189.541 128.324L185.079 132.054C181.913 129.97 178.383 128.502 174.674 127.726L174.129 121.925H162.832L162.288 127.726C158.577 128.508 155.047 129.982 151.882 132.072L147.421 128.341L139.452 136.31L143.182 140.772C141.095 143.936 139.626 147.467 138.854 151.177L133.053 151.722V162.984L138.854 163.528C139.626 167.239 141.095 170.769 143.182 173.933L139.452 178.395L147.421 186.364L151.882 182.634C155.048 184.717 158.578 186.185 162.288 186.962L162.832 192.762H174.094L174.638 186.962C178.344 186.199 181.874 184.746 185.043 182.678ZM153.221 157.362C153.221 154.345 154.116 151.396 155.792 148.888C157.468 146.38 159.85 144.425 162.638 143.271C165.425 142.117 168.492 141.815 171.45 142.405C174.409 142.994 177.126 144.447 179.259 146.581C181.391 148.715 182.843 151.433 183.431 154.392C184.018 157.351 183.715 160.417 182.559 163.204C181.403 165.991 179.447 168.372 176.938 170.046C174.429 171.721 171.48 172.614 168.463 172.612C166.461 172.612 164.478 172.218 162.628 171.451C160.778 170.685 159.098 169.561 157.682 168.145C156.267 166.729 155.144 165.047 154.379 163.197C153.613 161.347 153.22 159.364 153.221 157.362Z" fill="#F5F5F5"/>
<path d="M235.097 258.968C239.514 258.049 243.717 256.302 247.483 253.819L252.837 258.28L262.359 248.777L257.897 243.422C260.381 239.656 262.128 235.453 263.046 231.036L269.953 230.394V217.008L263.046 216.357C262.132 211.927 260.385 207.712 257.897 203.935L262.359 198.58L252.846 189.094L247.492 193.556C243.723 191.077 239.521 189.33 235.106 188.407L234.454 181.509H221.068L220.417 188.381C216.001 189.303 211.799 191.05 208.031 193.53L202.677 189.068L193.191 198.554L197.653 203.908C195.173 207.676 193.426 211.879 192.503 216.294L185.596 216.946V230.331L192.503 230.974C193.425 235.39 195.172 239.592 197.653 243.36L193.191 248.714L202.677 258.191L208.031 253.729C211.79 256.244 215.994 258.022 220.417 258.968L221.068 265.875H234.454L235.097 258.968ZM209.593 223.674C209.594 220.085 210.66 216.576 212.656 213.592C214.651 210.609 217.487 208.284 220.804 206.911C224.12 205.539 227.77 205.181 231.29 205.882C234.81 206.583 238.044 208.313 240.581 210.852C243.119 213.39 244.847 216.625 245.546 220.145C246.246 223.666 245.886 227.315 244.512 230.631C243.138 233.947 240.811 236.782 237.827 238.776C234.842 240.77 231.333 241.834 227.743 241.834C225.359 241.834 222.998 241.364 220.795 240.451C218.593 239.539 216.591 238.201 214.906 236.515C213.22 234.828 211.883 232.826 210.972 230.623C210.06 228.42 209.591 226.058 209.593 223.674Z" fill="#FAFAFA"/>
<path d="M126.238 96.7055L85.1866 91.0967L79.5779 132.148L120.63 137.757L126.238 96.7055Z" fill="#F5F5F5"/>
<path d="M91.2251 102.353L90.8627 105.005L117.591 108.657L117.953 106.005L91.2251 102.353Z" fill="#E0E0E0"/>
<path d="M90.0836 110.68L89.7212 113.333L116.449 116.984L116.812 114.332L90.0836 110.68Z" fill="#E0E0E0"/>
<path d="M88.915 119.286L88.5526 121.939L104.291 124.089L104.653 121.437L88.915 119.286Z" fill="#E0E0E0"/>
<path d="M356.076 51.1029L314.643 51.2476L314.788 92.6804L356.22 92.5357L356.076 51.1029Z" fill="#F0F0F0"/>
<path d="M349.188 61.4001L322.212 61.499L322.222 64.1761L349.198 64.0773L349.188 61.4001Z" fill="#E0E0E0"/>
<path d="M349.228 69.8059L322.252 69.9048L322.262 72.5819L349.238 72.483L349.228 69.8059Z" fill="#E0E0E0"/>
<path d="M338.159 78.5385L322.275 78.5967L322.284 81.2738L338.169 81.2156L338.159 78.5385Z" fill="#E0E0E0"/>
<path d="M380.941 152.15L339.836 157.357L345.043 198.461L386.148 193.254L380.941 152.15Z" fill="#F5F5F5"/>
<path d="M375.375 163.254L348.612 166.645L348.949 169.3L375.712 165.91L375.375 163.254Z" fill="#E0E0E0"/>
<path d="M376.432 171.587L349.669 174.978L350.006 177.633L376.769 174.243L376.432 171.587Z" fill="#E0E0E0"/>
<path d="M366.518 181.599L350.76 183.596L351.096 186.252L366.855 184.255L366.518 181.599Z" fill="#E0E0E0"/>
<path d="M160.545 218.864L119.112 219.009L119.257 260.442L160.69 260.297L160.545 218.864Z" fill="#F0F0F0"/>
<path d="M153.705 229.195L126.728 229.294L126.738 231.971L153.715 231.872L153.705 229.195Z" fill="#E0E0E0"/>
<path d="M153.736 237.601L126.759 237.7L126.769 240.377L153.745 240.278L153.736 237.601Z" fill="#E0E0E0"/>
<path d="M142.675 246.333L126.791 246.392L126.801 249.069L142.685 249.01L142.675 246.333Z" fill="#E0E0E0"/>
<path d="M343.543 239.151L302.11 239.296L302.255 280.729L343.688 280.584L343.543 239.151Z" fill="#F0F0F0"/>
<path d="M336.697 249.45L309.721 249.549L309.731 252.226L336.707 252.128L336.697 249.45Z" fill="#E0E0E0"/>
<path d="M336.737 257.857L309.761 257.956L309.77 260.633L336.747 260.534L336.737 257.857Z" fill="#E0E0E0"/>
<path d="M325.668 266.589L309.784 266.647L309.793 269.324L325.678 269.266L325.668 266.589Z" fill="#E0E0E0"/>
<path d="M168.949 48.3965L128.502 57.3784L137.483 97.8262L177.931 88.8443L168.949 48.3965Z" fill="#F0F0F0"/>
<path d="M164.42 59.9904L138.085 65.8384L138.665 68.4519L165 62.6039L164.42 59.9904Z" fill="#E0E0E0"/>
<path d="M166.246 68.1994L139.911 74.0474L140.491 76.6608L166.826 70.8128L166.246 68.1994Z" fill="#E0E0E0"/>
<path d="M157.299 79.083L141.792 82.5264L142.372 85.1398L157.879 81.6964L157.299 79.083Z" fill="#E0E0E0"/>
<path d="M88.5594 95.5733H87.8187L86.7925 90.8438H89.5767L88.5594 95.5733Z" fill="#E0E0E0"/>
<path d="M88.1847 94.4046C90.2645 94.4046 91.9505 93.0742 91.9505 91.433C91.9505 89.7919 90.2645 88.4614 88.1847 88.4614C86.1048 88.4614 84.4188 89.7919 84.4188 91.433C84.4188 93.0742 86.1048 94.4046 88.1847 94.4046Z" fill="#E6E6E6"/>
<path d="M164.26 54.2832H163.519L162.502 49.5625H165.286L164.26 54.2832Z" fill="#E0E0E0"/>
<path d="M163.894 53.1234C165.979 53.1234 167.669 51.793 167.669 50.1518C167.669 48.5106 165.979 47.1802 163.894 47.1802C161.809 47.1802 160.119 48.5106 160.119 50.1518C160.119 51.793 161.809 53.1234 163.894 53.1234Z" fill="#E6E6E6"/>
<path d="M334.766 55.4702H334.026L332.999 50.7495H335.784L334.766 55.4702Z" fill="#E0E0E0"/>
<path d="M334.391 54.3099C336.471 54.3099 338.157 52.9795 338.157 51.3383C338.157 49.6971 336.471 48.3667 334.391 48.3667C332.312 48.3667 330.626 49.6971 330.626 51.3383C330.626 52.9795 332.312 54.3099 334.391 54.3099Z" fill="#E6E6E6"/>
<path d="M377.118 158.084H376.378L375.36 153.364H378.145L377.118 158.084Z" fill="#E0E0E0"/>
<path d="M376.753 156.924C378.832 156.924 380.518 155.594 380.518 153.953C380.518 152.311 378.832 150.981 376.753 150.981C374.673 150.981 372.987 152.311 372.987 153.953C372.987 155.594 374.673 156.924 376.753 156.924Z" fill="#E6E6E6"/>
<path d="M323.567 243.86H322.817L321.8 239.13H324.584L323.567 243.86Z" fill="#E0E0E0"/>
<path d="M323.192 242.691C325.272 242.691 326.958 241.36 326.958 239.719C326.958 238.078 325.272 236.748 323.192 236.748C321.112 236.748 319.426 238.078 319.426 239.719C319.426 241.36 321.112 242.691 323.192 242.691Z" fill="#E6E6E6"/>
<path d="M138.747 222.621H138.006L136.989 217.892H139.773L138.747 222.621Z" fill="#E0E0E0"/>
<path d="M138.381 221.452C140.461 221.452 142.147 220.122 142.147 218.48C142.147 216.839 140.461 215.509 138.381 215.509C136.301 215.509 134.615 216.839 134.615 218.48C134.615 220.122 136.301 221.452 138.381 221.452Z" fill="#E6E6E6"/>
<path d="M223.094 332.464C318.652 332.464 396.117 327.941 396.117 322.362C396.117 316.783 318.652 312.261 223.094 312.261C127.536 312.261 50.0713 316.783 50.0713 322.362C50.0713 327.941 127.536 332.464 223.094 332.464Z" fill="#F5F5F5"/>
<path d="M128.208 172.978C128.208 167.097 132.072 162.27 136.828 162.27C141.584 162.27 145.448 167.053 145.448 172.978C145.448 178.903 141.584 183.633 136.828 183.633C132.072 183.633 128.208 178.859 128.208 172.978ZM129.992 172.978C129.992 177.868 133.062 181.848 136.828 181.848C140.594 181.848 143.664 177.868 143.664 172.978C143.664 168.088 140.603 164.054 136.828 164.054C133.053 164.054 129.992 168.088 129.992 172.978Z" fill="#263238"/>
<path d="M111.244 172.978C111.244 167.097 115.108 162.27 119.864 162.27C124.62 162.27 128.484 167.053 128.484 172.978C128.484 178.903 124.62 183.633 119.864 183.633C115.108 183.633 111.244 178.859 111.244 172.978ZM113.028 172.978C113.028 177.868 116.089 181.848 119.864 181.848C123.639 181.848 126.7 177.868 126.7 172.978C126.7 168.088 123.63 164.054 119.864 164.054C116.098 164.054 113.028 168.088 113.028 172.978Z" fill="#263238"/>
<path d="M94.2706 172.978C94.2706 167.097 98.1435 162.27 102.9 162.27C107.656 162.27 111.52 167.053 111.52 172.978C111.52 178.903 107.647 183.633 102.9 183.633C98.1525 183.633 94.2706 178.859 94.2706 172.978ZM96.0554 172.978C96.0554 177.868 99.1252 181.848 102.9 181.848C106.675 181.848 109.736 177.868 109.736 172.978C109.736 168.088 106.666 164.054 102.9 164.054C99.1341 164.054 96.0554 168.088 96.0554 172.978Z" fill="#263238"/>
<path d="M77.3065 172.978C77.3065 167.097 81.1794 162.27 85.9358 162.27C90.6922 162.27 94.5562 167.053 94.5562 172.978C94.5562 178.903 90.6833 183.633 85.9358 183.633C81.1884 183.633 77.3065 178.859 77.3065 172.978ZM79.0913 172.978C79.0913 177.868 82.1611 181.848 85.9358 181.848C89.7106 181.848 92.7714 177.868 92.7714 172.978C92.7714 168.088 89.7016 164.054 85.9358 164.054C82.17 164.054 79.0913 168.088 79.0913 172.978Z" fill="#263238"/>
<path d="M145.172 172.978C145.172 167.097 149.036 162.27 153.792 162.27C158.548 162.27 162.421 167.053 162.421 172.978C162.421 178.903 158.548 183.633 153.792 183.633C149.036 183.633 145.172 178.859 145.172 172.978ZM146.957 172.978C146.957 177.868 150.026 181.848 153.792 181.848C157.558 181.848 160.637 177.868 160.637 172.978C160.637 168.088 157.567 164.054 153.792 164.054C150.017 164.054 146.957 168.088 146.957 172.978Z" fill="#263238"/>
<path d="M66.0893 320.176H172.354L172.354 173.183H66.0893L66.0893 320.176Z" fill="#263238"/>
<path opacity="0.7" d="M66.0893 320.176H172.354L172.354 173.183H66.0893L66.0893 320.176Z" fill="white"/>
<path opacity="0.6" d="M75.6646 320.176H172.354L172.354 173.183H75.6646L75.6646 320.176Z" fill="white"/>
<path opacity="0.2" d="M69.2752 320.176L68.829 182.803L68.3828 320.176H69.2752Z" fill="black"/>
<path opacity="0.2" d="M73.7192 320.175L73.273 191.361L72.8268 320.175H73.7192Z" fill="black"/>
<path opacity="0.2" d="M70.6047 173.29L71.0509 276.565L71.4971 173.29H70.6047Z" fill="black"/>
<path d="M156.362 180.17C156.454 180.646 156.679 181.086 157.011 181.439C157.343 181.791 157.769 182.042 158.238 182.162C158.708 182.281 159.202 182.265 159.662 182.114C160.122 181.963 160.531 181.685 160.839 181.311C161.147 180.937 161.342 180.483 161.401 180.002C161.461 179.521 161.382 179.034 161.175 178.596C160.967 178.158 160.64 177.788 160.23 177.53C159.82 177.271 159.345 177.135 158.861 177.136C158.13 177.213 157.458 177.574 156.99 178.142C156.523 178.709 156.297 179.438 156.362 180.17Z" fill="#263238"/>
<path d="M159.021 181.072C159.149 181.071 159.274 181.042 159.39 180.988C159.505 180.934 159.608 180.856 159.691 180.76C161.489 178.568 162.456 175.812 162.421 172.978C162.421 167.097 158.548 162.27 153.792 162.27C150.294 162.27 147.162 164.857 145.823 168.846C145.786 168.958 145.77 169.075 145.778 169.193C145.786 169.31 145.817 169.424 145.87 169.529C145.922 169.635 145.994 169.729 146.083 169.806C146.171 169.883 146.274 169.942 146.385 169.98C146.497 170.017 146.614 170.032 146.732 170.024C146.849 170.016 146.963 169.985 147.068 169.933C147.174 169.881 147.268 169.809 147.345 169.72C147.422 169.632 147.481 169.529 147.519 169.417C148.607 166.16 151.088 164.063 153.765 164.063C157.54 164.063 160.61 168.052 160.61 172.987C160.648 175.392 159.836 177.734 158.316 179.6C158.203 179.729 158.129 179.888 158.104 180.059C158.079 180.229 158.104 180.403 158.175 180.56C158.247 180.717 158.363 180.849 158.508 180.942C158.653 181.034 158.822 181.082 158.995 181.081L159.021 181.072Z" fill="#263238"/>
<g opacity="0.4">
<path d="M159.021 181.072C159.149 181.071 159.274 181.042 159.39 180.988C159.505 180.934 159.608 180.856 159.691 180.76C161.489 178.568 162.456 175.812 162.421 172.978C162.421 167.097 158.548 162.27 153.792 162.27C150.294 162.27 147.162 164.857 145.823 168.846C145.786 168.958 145.77 169.075 145.778 169.193C145.786 169.31 145.817 169.424 145.87 169.529C145.922 169.635 145.994 169.729 146.083 169.806C146.171 169.883 146.274 169.942 146.385 169.98C146.497 170.017 146.614 170.032 146.732 170.024C146.849 170.016 146.963 169.985 147.068 169.933C147.174 169.881 147.268 169.809 147.345 169.72C147.422 169.632 147.481 169.529 147.519 169.417C148.607 166.16 151.088 164.063 153.765 164.063C157.54 164.063 160.61 168.052 160.61 172.987C160.648 175.392 159.836 177.734 158.316 179.6C158.203 179.729 158.129 179.888 158.104 180.059C158.079 180.229 158.104 180.403 158.175 180.56C158.247 180.717 158.363 180.849 158.508 180.942C158.653 181.034 158.822 181.082 158.995 181.081L159.021 181.072Z" fill="white"/>
</g>
<path d="M139.398 180.17C139.491 180.643 139.716 181.08 140.048 181.429C140.38 181.779 140.804 182.027 141.271 182.145C141.738 182.263 142.229 182.246 142.687 182.096C143.145 181.946 143.55 181.668 143.857 181.296C144.163 180.924 144.357 180.473 144.417 179.995C144.477 179.517 144.4 179.031 144.194 178.596C143.989 178.16 143.664 177.791 143.257 177.533C142.85 177.274 142.379 177.137 141.897 177.136C141.165 177.213 140.494 177.574 140.026 178.142C139.559 178.709 139.333 179.438 139.398 180.17Z" fill="#263238"/>
<path d="M142.049 181.072C142.177 181.072 142.305 181.044 142.422 180.99C142.539 180.936 142.643 180.858 142.727 180.76C144.522 178.567 145.486 175.812 145.448 172.978C145.448 167.097 141.584 162.27 136.828 162.27C133.321 162.27 130.198 164.857 128.859 168.846C128.783 169.071 128.8 169.317 128.906 169.529C129.011 169.742 129.197 169.904 129.421 169.98C129.646 170.055 129.892 170.039 130.104 169.933C130.317 169.828 130.479 169.642 130.555 169.417C131.643 166.16 134.124 164.063 136.801 164.063C140.576 164.063 143.637 168.052 143.637 172.987C143.678 175.391 142.869 177.733 141.352 179.599C141.239 179.728 141.166 179.887 141.14 180.057C141.115 180.226 141.139 180.4 141.21 180.556C141.28 180.712 141.394 180.845 141.538 180.938C141.682 181.031 141.85 181.081 142.022 181.081L142.049 181.072Z" fill="#263238"/>
<g opacity="0.4">
<path d="M142.049 181.072C142.177 181.072 142.305 181.044 142.422 180.99C142.539 180.936 142.643 180.858 142.727 180.76C144.522 178.567 145.486 175.812 145.448 172.978C145.448 167.097 141.584 162.27 136.828 162.27C133.321 162.27 130.198 164.857 128.859 168.846C128.783 169.071 128.8 169.317 128.906 169.529C129.011 169.742 129.197 169.904 129.421 169.98C129.646 170.055 129.892 170.039 130.104 169.933C130.317 169.828 130.479 169.642 130.555 169.417C131.643 166.16 134.124 164.063 136.801 164.063C140.576 164.063 143.637 168.052 143.637 172.987C143.678 175.391 142.869 177.733 141.352 179.599C141.239 179.728 141.166 179.887 141.14 180.057C141.115 180.226 141.139 180.4 141.21 180.556C141.28 180.712 141.394 180.845 141.538 180.938C141.682 181.031 141.85 181.081 142.022 181.081L142.049 181.072Z" fill="white"/>
</g>
<path d="M122.425 180.17C122.516 180.646 122.741 181.085 123.073 181.438C123.405 181.79 123.83 182.041 124.299 182.161C124.768 182.281 125.261 182.265 125.722 182.115C126.182 181.965 126.59 181.687 126.899 181.314C127.207 180.941 127.403 180.488 127.463 180.008C127.524 179.527 127.447 179.04 127.241 178.602C127.035 178.164 126.708 177.793 126.299 177.534C125.891 177.274 125.417 177.136 124.933 177.136C124.201 177.213 123.528 177.574 123.059 178.141C122.59 178.708 122.363 179.437 122.425 180.17Z" fill="#263238"/>
<path d="M125.084 181.072C125.213 181.072 125.341 181.044 125.458 180.99C125.575 180.936 125.679 180.858 125.763 180.76C127.542 178.561 128.49 175.806 128.44 172.978C128.44 167.097 124.576 162.27 119.819 162.27C116.312 162.27 113.189 164.857 111.85 168.846C111.813 168.958 111.797 169.075 111.805 169.193C111.813 169.31 111.844 169.425 111.896 169.53C111.948 169.635 112.021 169.729 112.109 169.806C112.198 169.883 112.301 169.942 112.413 169.98C112.524 170.017 112.642 170.033 112.759 170.025C112.876 170.017 112.991 169.986 113.096 169.934C113.201 169.882 113.295 169.809 113.373 169.721C113.45 169.632 113.509 169.529 113.546 169.417C114.635 166.16 117.115 164.063 119.793 164.063C123.558 164.063 126.628 168.052 126.628 172.987C126.671 175.393 125.858 177.736 124.335 179.6C124.221 179.729 124.147 179.888 124.122 180.059C124.097 180.229 124.122 180.403 124.194 180.56C124.265 180.717 124.381 180.849 124.526 180.942C124.672 181.034 124.841 181.082 125.013 181.081L125.084 181.072Z" fill="#263238"/>
<g opacity="0.4">
<path d="M125.084 181.072C125.213 181.072 125.341 181.044 125.458 180.99C125.575 180.936 125.679 180.858 125.763 180.76C127.542 178.561 128.49 175.806 128.44 172.978C128.44 167.097 124.576 162.27 119.819 162.27C116.312 162.27 113.189 164.857 111.85 168.846C111.813 168.958 111.797 169.075 111.805 169.193C111.813 169.31 111.844 169.425 111.896 169.53C111.948 169.635 112.021 169.729 112.109 169.806C112.198 169.883 112.301 169.942 112.413 169.98C112.524 170.017 112.642 170.033 112.759 170.025C112.876 170.017 112.991 169.986 113.096 169.934C113.201 169.882 113.295 169.809 113.373 169.721C113.45 169.632 113.509 169.529 113.546 169.417C114.635 166.16 117.115 164.063 119.793 164.063C123.558 164.063 126.628 168.052 126.628 172.987C126.671 175.393 125.858 177.736 124.335 179.6C124.221 179.729 124.147 179.888 124.122 180.059C124.097 180.229 124.122 180.403 124.194 180.56C124.265 180.717 124.381 180.849 124.526 180.942C124.672 181.034 124.841 181.082 125.013 181.081L125.084 181.072Z" fill="white"/>
</g>
<path d="M105.461 180.17C105.552 180.646 105.777 181.085 106.109 181.438C106.441 181.79 106.866 182.041 107.335 182.161C107.804 182.281 108.297 182.265 108.758 182.115C109.218 181.965 109.626 181.687 109.935 181.314C110.243 180.941 110.439 180.488 110.5 180.008C110.56 179.527 110.483 179.04 110.277 178.602C110.071 178.164 109.744 177.793 109.335 177.534C108.927 177.274 108.453 177.136 107.969 177.136C107.237 177.213 106.564 177.574 106.095 178.141C105.626 178.708 105.399 179.437 105.461 180.17Z" fill="#263238"/>
<path d="M108.12 181.072C108.249 181.072 108.377 181.044 108.494 180.99C108.611 180.936 108.715 180.858 108.798 180.76C110.578 178.561 111.526 175.806 111.476 172.978C111.476 167.097 107.603 162.27 102.855 162.27C99.3482 162.27 96.2249 164.857 94.8863 168.846C94.8394 168.959 94.8161 169.081 94.818 169.203C94.8199 169.325 94.8469 169.446 94.8973 169.557C94.9477 169.668 95.0205 169.768 95.1111 169.85C95.2017 169.933 95.3082 169.995 95.424 170.034C95.5398 170.074 95.6625 170.089 95.7843 170.078C95.9062 170.068 96.0247 170.033 96.1324 169.975C96.2401 169.917 96.3348 169.838 96.4106 169.742C96.4864 169.646 96.5416 169.536 96.5729 169.417C97.6616 166.16 100.142 164.063 102.82 164.063C106.585 164.063 109.655 168.052 109.655 172.987C109.693 175.392 108.881 177.734 107.362 179.6C107.248 179.729 107.174 179.888 107.149 180.059C107.124 180.229 107.149 180.403 107.221 180.56C107.292 180.717 107.408 180.849 107.553 180.942C107.699 181.034 107.868 181.082 108.04 181.081L108.12 181.072Z" fill="#263238"/>
<g opacity="0.4">
<path d="M108.12 181.072C108.249 181.072 108.377 181.044 108.494 180.99C108.611 180.936 108.715 180.858 108.798 180.76C110.578 178.561 111.526 175.806 111.476 172.978C111.476 167.097 107.603 162.27 102.855 162.27C99.3482 162.27 96.2249 164.857 94.8863 168.846C94.8394 168.959 94.8161 169.081 94.818 169.203C94.8199 169.325 94.8469 169.446 94.8973 169.557C94.9477 169.668 95.0205 169.768 95.1111 169.85C95.2017 169.933 95.3082 169.995 95.424 170.034C95.5398 170.074 95.6625 170.089 95.7843 170.078C95.9062 170.068 96.0247 170.033 96.1324 169.975C96.2401 169.917 96.3348 169.838 96.4106 169.742C96.4864 169.646 96.5416 169.536 96.5729 169.417C97.6616 166.16 100.142 164.063 102.82 164.063C106.585 164.063 109.655 168.052 109.655 172.987C109.693 175.392 108.881 177.734 107.362 179.6C107.248 179.729 107.174 179.888 107.149 180.059C107.124 180.229 107.149 180.403 107.221 180.56C107.292 180.717 107.408 180.849 107.553 180.942C107.699 181.034 107.868 181.082 108.04 181.081L108.12 181.072Z" fill="white"/>
</g>
<path d="M88.4969 180.17C88.4969 181.848 89.6213 183.204 90.9956 183.204C91.7027 183.071 92.341 182.695 92.8002 182.141C93.2594 181.587 93.5107 180.89 93.5107 180.17C93.5107 179.451 93.2594 178.754 92.8002 178.2C92.341 177.646 91.7027 177.27 90.9956 177.136C89.6213 177.136 88.4969 178.475 88.4969 180.17Z" fill="#263238"/>
<path d="M91.1563 181.072C91.2852 181.072 91.4125 181.044 91.5296 180.99C91.6467 180.936 91.7507 180.858 91.8345 180.76C93.6105 178.559 94.558 175.805 94.5116 172.978C94.5116 167.097 90.6387 162.27 85.8912 162.27C82.3842 162.27 79.252 164.857 77.9223 168.846C77.8754 168.959 77.8521 169.081 77.854 169.203C77.8559 169.325 77.8829 169.446 77.9333 169.557C77.9837 169.668 78.0565 169.768 78.1471 169.85C78.2377 169.933 78.3442 169.995 78.46 170.034C78.5759 170.074 78.6985 170.089 78.8203 170.078C78.9422 170.068 79.0607 170.033 79.1684 169.975C79.2761 169.917 79.3708 169.838 79.4466 169.742C79.5224 169.646 79.5776 169.536 79.6089 169.417C80.6976 166.16 83.1784 164.063 85.8556 164.063C89.6214 164.063 92.6912 168.052 92.6912 172.987C92.729 175.392 91.9168 177.734 90.3978 179.6C90.3197 179.688 90.26 179.792 90.2222 179.904C90.1844 180.015 90.1692 180.134 90.1775 180.252C90.1858 180.37 90.2174 180.485 90.2705 180.59C90.3237 180.696 90.3973 180.79 90.487 180.867C90.579 180.944 90.6856 181.002 90.8007 181.038C90.9157 181.073 91.0366 181.085 91.1563 181.072Z" fill="#263238"/>
<g opacity="0.4">
<path d="M91.1563 181.072C91.2852 181.072 91.4125 181.044 91.5296 180.99C91.6467 180.936 91.7507 180.858 91.8345 180.76C93.6105 178.559 94.558 175.805 94.5116 172.978C94.5116 167.097 90.6387 162.27 85.8912 162.27C82.3842 162.27 79.252 164.857 77.9223 168.846C77.8754 168.959 77.8521 169.081 77.854 169.203C77.8559 169.325 77.8829 169.446 77.9333 169.557C77.9837 169.668 78.0565 169.768 78.1471 169.85C78.2377 169.933 78.3442 169.995 78.46 170.034C78.5759 170.074 78.6985 170.089 78.8203 170.078C78.9422 170.068 79.0607 170.033 79.1684 169.975C79.2761 169.917 79.3708 169.838 79.4466 169.742C79.5224 169.646 79.5776 169.536 79.6089 169.417C80.6976 166.16 83.1784 164.063 85.8556 164.063C89.6214 164.063 92.6912 168.052 92.6912 172.987C92.729 175.392 91.9168 177.734 90.3978 179.6C90.3197 179.688 90.26 179.792 90.2222 179.904C90.1844 180.015 90.1692 180.134 90.1775 180.252C90.1858 180.37 90.2174 180.485 90.2705 180.59C90.3237 180.696 90.3973 180.79 90.487 180.867C90.579 180.944 90.6856 181.002 90.8007 181.038C90.9157 181.073 91.0366 181.085 91.1563 181.072Z" fill="white"/>
</g>
<path d="M103.587 240.808H96.1089V253.56H103.587V240.808Z" fill="#407BFF"/>
<path d="M115.697 231.527H108.219V253.56H115.697V231.527Z" fill="#407BFF"/>
<path d="M127.815 235.007H120.337V253.56H127.815V235.007Z" fill="#407BFF"/>
<path d="M139.934 225.726H132.455V253.559H139.934V225.726Z" fill="#407BFF"/>
<path d="M152.043 216.446H144.565V253.56H152.043V216.446Z" fill="#407BFF"/>
<path opacity="0.5" d="M103.587 240.808H96.1089V253.56H103.587V240.808Z" fill="white"/>
<path opacity="0.5" d="M115.697 231.527H108.219V253.56H115.697V231.527Z" fill="white"/>
<path opacity="0.5" d="M127.815 235.007H120.337V253.56H127.815V235.007Z" fill="white"/>
<path opacity="0.5" d="M139.934 225.726H132.455V253.559H139.934V225.726Z" fill="white"/>
<path opacity="0.5" d="M152.043 216.446H144.565V253.56H152.043V216.446Z" fill="white"/>
<path d="M162.02 251.792H85.8376V255.326H162.02V251.792Z" fill="#263238"/>
<path d="M89.0502 243.431L87.4082 241.361L111.841 221.916L123.933 228.93L156.576 201.106L158.29 203.114L124.228 232.161L112.082 225.111L89.0502 243.431Z" fill="#407BFF"/>
<path d="M159.378 200.472L154.417 201.239L157.915 204.969L159.378 200.472Z" fill="#407BFF"/>
<g opacity="0.3">
<path d="M129.038 266.82H85.9269C85.6902 266.82 85.4633 266.726 85.2959 266.559C85.1286 266.392 85.0345 266.165 85.0345 265.928C85.0345 265.691 85.1286 265.464 85.2959 265.297C85.4633 265.13 85.6902 265.036 85.9269 265.036H129.038C129.274 265.036 129.501 265.13 129.669 265.297C129.836 265.464 129.93 265.691 129.93 265.928C129.93 266.165 129.836 266.392 129.669 266.559C129.501 266.726 129.274 266.82 129.038 266.82Z" fill="black"/>
</g>
<g opacity="0.3">
<path d="M162.341 274.772H92.0843C91.8476 274.772 91.6206 274.678 91.4533 274.51C91.2859 274.343 91.1919 274.116 91.1919 273.879C91.1919 273.643 91.2859 273.416 91.4533 273.248C91.6206 273.081 91.8476 272.987 92.0843 272.987H162.341C162.578 272.987 162.805 273.081 162.972 273.248C163.139 273.416 163.233 273.643 163.233 273.879C163.233 274.116 163.139 274.343 162.972 274.51C162.805 274.678 162.578 274.772 162.341 274.772Z" fill="black"/>
<path d="M162.413 279.242H85.9269C85.6902 279.242 85.4633 279.148 85.2959 278.981C85.1286 278.814 85.0345 278.587 85.0345 278.35C85.0345 278.113 85.1286 277.886 85.2959 277.719C85.4633 277.552 85.6902 277.458 85.9269 277.458H162.413C162.649 277.458 162.876 277.552 163.044 277.719C163.211 277.886 163.305 278.113 163.305 278.35C163.305 278.587 163.211 278.814 163.044 278.981C162.876 279.148 162.649 279.242 162.413 279.242Z" fill="black"/>
<path d="M162.537 283.713H86.0251C85.7884 283.713 85.5614 283.619 85.3941 283.452C85.2267 283.285 85.1327 283.058 85.1327 282.821C85.1327 282.584 85.2267 282.357 85.3941 282.19C85.5614 282.023 85.7884 281.929 86.0251 281.929H162.537C162.774 281.929 163.001 282.023 163.168 282.19C163.336 282.357 163.43 282.584 163.43 282.821C163.43 283.058 163.336 283.285 163.168 283.452C163.001 283.619 162.774 283.713 162.537 283.713Z" fill="black"/>
<path d="M150.133 288.184H86.1232C85.8865 288.184 85.6596 288.09 85.4922 287.922C85.3249 287.755 85.2308 287.528 85.2308 287.291C85.2308 287.055 85.3249 286.828 85.4922 286.66C85.6596 286.493 85.8865 286.399 86.1232 286.399H150.133C150.37 286.399 150.597 286.493 150.764 286.66C150.932 286.828 151.026 287.055 151.026 287.291C151.026 287.528 150.932 287.755 150.764 287.922C150.597 288.09 150.37 288.184 150.133 288.184Z" fill="black"/>
</g>
<g opacity="0.3">
<path d="M162.341 296.207H92.0843C91.8476 296.207 91.6206 296.113 91.4533 295.945C91.2859 295.778 91.1919 295.551 91.1919 295.314C91.1919 295.078 91.2859 294.851 91.4533 294.683C91.6206 294.516 91.8476 294.422 92.0843 294.422H162.341C162.578 294.422 162.805 294.516 162.972 294.683C163.139 294.851 163.233 295.078 163.233 295.314C163.233 295.551 163.139 295.778 162.972 295.945C162.805 296.113 162.578 296.207 162.341 296.207Z" fill="black"/>
<path d="M162.413 300.678H85.9269C85.6902 300.678 85.4633 300.584 85.2959 300.416C85.1286 300.249 85.0345 300.022 85.0345 299.785C85.0345 299.549 85.1286 299.322 85.2959 299.154C85.4633 298.987 85.6902 298.893 85.9269 298.893H162.413C162.649 298.893 162.876 298.987 163.044 299.154C163.211 299.322 163.305 299.549 163.305 299.785C163.305 300.022 163.211 300.249 163.044 300.416C162.876 300.584 162.649 300.678 162.413 300.678Z" fill="black"/>
<path d="M162.537 305.193H86.0251C85.7884 305.193 85.5614 305.099 85.3941 304.932C85.2267 304.764 85.1327 304.537 85.1327 304.301C85.1327 304.064 85.2267 303.837 85.3941 303.67C85.5614 303.502 85.7884 303.408 86.0251 303.408H162.537C162.774 303.408 163.001 303.502 163.168 303.67C163.336 303.837 163.43 304.064 163.43 304.301C163.43 304.537 163.336 304.764 163.168 304.932C163.001 305.099 162.774 305.193 162.537 305.193Z" fill="black"/>
<path d="M150.133 309.655H86.1232C85.8865 309.655 85.6596 309.561 85.4922 309.393C85.3249 309.226 85.2308 308.999 85.2308 308.762C85.2308 308.526 85.3249 308.299 85.4922 308.132C85.6596 307.964 85.8865 307.87 86.1232 307.87H150.133C150.37 307.87 150.597 307.964 150.764 308.132C150.932 308.299 151.026 308.526 151.026 308.762C151.026 308.999 150.932 309.226 150.764 309.393C150.597 309.561 150.37 309.655 150.133 309.655Z" fill="black"/>
</g>
<g opacity="0.3">
<path d="M129.038 192.682H85.9269C85.6902 192.682 85.4633 192.588 85.2959 192.421C85.1286 192.253 85.0345 192.027 85.0345 191.79C85.0345 191.553 85.1286 191.326 85.2959 191.159C85.4633 190.991 85.6902 190.897 85.9269 190.897H129.038C129.274 190.897 129.501 190.991 129.669 191.159C129.836 191.326 129.93 191.553 129.93 191.79C129.93 192.027 129.836 192.253 129.669 192.421C129.501 192.588 129.274 192.682 129.038 192.682Z" fill="black"/>
</g>
<path d="M366.267 103.73H263.796C262.09 103.73 260.708 105.112 260.708 106.818V276.101C260.708 277.807 262.09 279.189 263.796 279.189H366.267C367.972 279.189 369.355 277.807 369.355 276.101V106.818C369.355 105.112 367.972 103.73 366.267 103.73Z" fill="#407BFF"/>
<path d="M286.31 102.891H343.761C343.913 102.891 344.058 102.951 344.165 103.058C344.272 103.166 344.333 103.311 344.333 103.462V109.209H285.73V103.462C285.73 103.387 285.745 103.312 285.774 103.242C285.804 103.172 285.847 103.108 285.901 103.055C285.955 103.002 286.019 102.96 286.089 102.932C286.159 102.904 286.234 102.89 286.31 102.891Z" fill="#263238"/>
<path opacity="0.9" d="M365.062 109.209H265.009V273.683H365.062V109.209Z" fill="white"/>
<path d="M334.641 116.776H317.053L316.847 116.161C316.723 115.779 316.481 115.447 316.157 115.212C315.832 114.976 315.441 114.849 315.04 114.849C314.639 114.849 314.248 114.976 313.924 115.212C313.599 115.447 313.358 115.779 313.233 116.161L313.028 116.776H295.421C294.739 116.776 294.084 116.506 293.601 116.024C293.118 115.543 292.845 114.889 292.842 114.206V107.728C292.847 107.046 293.121 106.394 293.603 105.913C294.086 105.431 294.74 105.16 295.421 105.158H334.686C335.367 105.16 336.019 105.432 336.501 105.913C336.982 106.395 337.254 107.047 337.256 107.728V114.224C337.254 114.564 337.184 114.9 337.051 115.213C336.918 115.525 336.724 115.809 336.481 116.046C336.238 116.283 335.95 116.47 335.634 116.595C335.319 116.721 334.981 116.782 334.641 116.776ZM318.275 114.992H334.641C334.745 114.993 334.847 114.973 334.943 114.934C335.039 114.895 335.126 114.838 335.199 114.764C335.272 114.691 335.33 114.604 335.369 114.508C335.408 114.413 335.428 114.31 335.427 114.206V107.728C335.427 107.519 335.344 107.32 335.197 107.172C335.049 107.025 334.85 106.942 334.641 106.942H295.377C295.273 106.941 295.17 106.961 295.073 107C294.977 107.039 294.89 107.096 294.816 107.169C294.742 107.242 294.683 107.329 294.643 107.425C294.603 107.521 294.583 107.624 294.583 107.728V114.224C294.583 114.328 294.603 114.431 294.643 114.527C294.683 114.623 294.742 114.71 294.816 114.783C294.89 114.856 294.977 114.913 295.073 114.952C295.17 114.991 295.273 115.011 295.377 115.01H311.796C312.112 114.424 312.58 113.935 313.151 113.594C313.723 113.254 314.375 113.074 315.04 113.074C315.705 113.074 316.358 113.254 316.929 113.594C317.5 113.935 317.968 114.424 318.284 115.01L318.275 114.992Z" fill="#263238"/>
<g opacity="0.5">
<path d="M334.641 116.776H317.053L316.847 116.161C316.723 115.779 316.481 115.447 316.157 115.212C315.832 114.976 315.441 114.849 315.04 114.849C314.639 114.849 314.248 114.976 313.924 115.212C313.599 115.447 313.358 115.779 313.233 116.161L313.028 116.776H295.421C294.739 116.776 294.084 116.506 293.601 116.024C293.118 115.543 292.845 114.889 292.842 114.206V107.728C292.847 107.046 293.121 106.394 293.603 105.913C294.086 105.431 294.74 105.16 295.421 105.158H334.686C335.367 105.16 336.019 105.432 336.501 105.913C336.982 106.395 337.254 107.047 337.256 107.728V114.224C337.254 114.564 337.184 114.9 337.051 115.213C336.918 115.525 336.724 115.809 336.481 116.046C336.238 116.283 335.95 116.47 335.634 116.595C335.319 116.721 334.981 116.782 334.641 116.776ZM318.275 114.992H334.641C334.745 114.993 334.847 114.973 334.943 114.934C335.039 114.895 335.126 114.838 335.199 114.764C335.272 114.691 335.33 114.604 335.369 114.508C335.408 114.413 335.428 114.31 335.427 114.206V107.728C335.427 107.519 335.344 107.32 335.197 107.172C335.049 107.025 334.85 106.942 334.641 106.942H295.377C295.273 106.941 295.17 106.961 295.073 107C294.977 107.039 294.89 107.096 294.816 107.169C294.742 107.242 294.683 107.329 294.643 107.425C294.603 107.521 294.583 107.624 294.583 107.728V114.224C294.583 114.328 294.603 114.431 294.643 114.527C294.683 114.623 294.742 114.71 294.816 114.783C294.89 114.856 294.977 114.913 295.073 114.952C295.17 114.991 295.273 115.011 295.377 115.01H311.796C312.112 114.424 312.58 113.935 313.151 113.594C313.723 113.254 314.375 113.074 315.04 113.074C315.705 113.074 316.358 113.254 316.929 113.594C317.5 113.935 317.968 114.424 318.284 115.01L318.275 114.992Z" fill="white"/>
</g>
<path d="M331.893 104.123H298.179C297.691 104.123 297.295 104.518 297.295 105.006V107.121C297.295 107.609 297.691 108.004 298.179 108.004H331.893C332.381 108.004 332.776 107.609 332.776 107.121V105.006C332.776 104.518 332.381 104.123 331.893 104.123Z" fill="#263238"/>
<path opacity="0.2" d="M331.893 104.123H298.179C297.691 104.123 297.295 104.518 297.295 105.006V107.121C297.295 107.609 297.691 108.004 298.179 108.004H331.893C332.381 108.004 332.776 107.609 332.776 107.121V105.006C332.776 104.518 332.381 104.123 331.893 104.123Z" fill="white"/>
<path d="M357.238 246.998C359.647 236.79 353.325 226.563 343.118 224.154C332.91 221.744 322.683 228.066 320.274 238.273C317.864 248.481 324.186 258.708 334.393 261.118C344.601 263.527 354.828 257.205 357.238 246.998Z" fill="#407BFF"/>
<path opacity="0.3" d="M338.764 242.655H357.754C357.754 246.411 356.64 250.082 354.553 253.205C352.467 256.328 349.501 258.762 346.031 260.199C342.561 261.636 338.743 262.012 335.059 261.28C331.376 260.547 327.992 258.738 325.336 256.083C322.68 253.427 320.872 250.043 320.139 246.36C319.406 242.676 319.783 238.858 321.22 235.388C322.657 231.918 325.091 228.952 328.214 226.865C331.337 224.779 335.008 223.665 338.764 223.665H338.835L338.764 242.655Z" fill="white"/>
<path opacity="0.3" d="M338.764 242.655L349.009 258.637C346.525 260.231 343.704 261.224 340.77 261.537C337.836 261.851 334.869 261.476 332.105 260.443C329.341 259.41 326.856 257.747 324.846 255.586C322.837 253.425 321.359 250.825 320.529 247.993C319.7 245.161 319.542 242.175 320.067 239.271C320.593 236.368 321.788 233.627 323.558 231.265C325.328 228.904 327.624 226.988 330.263 225.669C332.903 224.349 335.813 223.663 338.764 223.665H338.827L338.764 242.655Z" fill="white"/>
<path opacity="0.3" d="M338.764 242.655L322.755 252.864C320.925 249.993 319.9 246.684 319.788 243.282C319.675 239.88 320.479 236.51 322.116 233.525C323.752 230.54 326.161 228.05 329.09 226.316C332.019 224.581 335.36 223.666 338.764 223.665H338.827L338.764 242.655Z" fill="white"/>
<g opacity="0.5">
<path d="M272.22 138.667V183.482H357.888V138.667H272.22ZM357.183 145.663H342.36V139.336H357.183V145.663ZM309.842 145.663H294.583V139.336H309.842V145.663ZM310.511 139.336H325.762V145.663H310.547L310.511 139.336ZM309.842 146.332V182.812H294.583V146.35L309.842 146.332ZM310.511 146.332H325.762V182.812H310.547L310.511 146.332ZM326.431 146.332H341.691V182.812H326.431V146.332ZM326.431 145.663V139.336H341.691V145.663H326.431ZM293.913 139.336V145.663H272.889V139.336H293.913ZM272.889 146.35H293.913V182.83H272.889V146.35ZM342.36 182.83V146.35H357.183V182.83H342.36Z" fill="black"/>
<path d="M299.446 152.596H305.621C305.858 152.596 306.085 152.502 306.252 152.335C306.42 152.168 306.514 151.941 306.514 151.704C306.514 151.467 306.42 151.24 306.252 151.073C306.085 150.906 305.858 150.812 305.621 150.812H299.446C299.209 150.812 298.982 150.906 298.815 151.073C298.648 151.24 298.554 151.467 298.554 151.704C298.554 151.941 298.648 152.168 298.815 152.335C298.982 152.502 299.209 152.596 299.446 152.596Z" fill="black"/>
<path d="M315.009 160.691H321.711C321.947 160.691 322.174 160.596 322.342 160.429C322.509 160.262 322.603 160.035 322.603 159.798C322.603 159.561 322.509 159.334 322.342 159.167C322.174 159 321.947 158.906 321.711 158.906H315.009C314.772 158.906 314.545 159 314.378 159.167C314.211 159.334 314.117 159.561 314.117 159.798C314.117 160.035 314.211 160.262 314.378 160.429C314.545 160.596 314.772 160.691 315.009 160.691Z" fill="black"/>
<path d="M322.032 175.103H315.009C314.772 175.103 314.545 175.197 314.378 175.364C314.211 175.531 314.117 175.758 314.117 175.995C314.117 176.232 314.211 176.459 314.378 176.626C314.545 176.793 314.772 176.887 315.009 176.887H322.005C322.242 176.887 322.469 176.793 322.636 176.626C322.804 176.459 322.898 176.232 322.898 175.995C322.898 175.758 322.804 175.531 322.636 175.364C322.469 175.197 322.242 175.103 322.005 175.103H322.032Z" fill="black"/>
<path d="M337.559 167H330.179C329.943 167 329.716 167.094 329.548 167.261C329.381 167.428 329.287 167.655 329.287 167.892C329.287 168.129 329.381 168.356 329.548 168.523C329.716 168.69 329.943 168.784 330.179 168.784H337.577C337.814 168.784 338.041 168.69 338.208 168.523C338.376 168.356 338.47 168.129 338.47 167.892C338.47 167.655 338.376 167.428 338.208 167.261C338.041 167.094 337.814 167 337.577 167H337.559Z" fill="black"/>
<path d="M353.524 150.812H346.028C345.791 150.812 345.564 150.906 345.397 151.073C345.23 151.24 345.136 151.467 345.136 151.704C345.136 151.941 345.23 152.168 345.397 152.335C345.564 152.502 345.791 152.596 346.028 152.596H353.524C353.761 152.596 353.988 152.502 354.155 152.335C354.322 152.168 354.416 151.941 354.416 151.704C354.416 151.467 354.322 151.24 354.155 151.073C353.988 150.906 353.761 150.812 353.524 150.812Z" fill="black"/>
<path d="M352.56 175.103H346.028C345.791 175.103 345.564 175.197 345.397 175.364C345.23 175.531 345.136 175.758 345.136 175.995C345.136 176.232 345.23 176.459 345.397 176.626C345.564 176.793 345.791 176.887 346.028 176.887H352.56C352.797 176.887 353.024 176.793 353.191 176.626C353.359 176.459 353.453 176.232 353.453 175.995C353.453 175.758 353.359 175.531 353.191 175.364C353.024 175.197 352.797 175.103 352.56 175.103Z" fill="black"/>
<path d="M299.446 168.784H304.738C304.974 168.784 305.201 168.69 305.369 168.523C305.536 168.356 305.63 168.129 305.63 167.892C305.63 167.655 305.536 167.428 305.369 167.261C305.201 167.094 304.974 167 304.738 167H299.446C299.209 167 298.982 167.094 298.815 167.261C298.648 167.428 298.554 167.655 298.554 167.892C298.554 168.129 298.648 168.356 298.815 168.523C298.982 168.69 299.209 168.784 299.446 168.784Z" fill="black"/>
<path d="M305.621 175.103H299.446C299.209 175.103 298.982 175.197 298.815 175.364C298.648 175.531 298.554 175.758 298.554 175.995C298.554 176.232 298.648 176.459 298.815 176.626C298.982 176.793 299.209 176.887 299.446 176.887H305.621C305.858 176.887 306.085 176.793 306.252 176.626C306.42 176.459 306.514 176.232 306.514 175.995C306.514 175.758 306.42 175.531 306.252 175.364C306.085 175.197 305.858 175.103 305.621 175.103Z" fill="black"/>
<path d="M276.11 152.596H290.228C290.464 152.596 290.691 152.502 290.859 152.335C291.026 152.168 291.12 151.941 291.12 151.704C291.12 151.467 291.026 151.24 290.859 151.073C290.691 150.906 290.464 150.812 290.228 150.812H276.11C275.874 150.812 275.647 150.906 275.479 151.073C275.312 151.24 275.218 151.467 275.218 151.704C275.218 151.941 275.312 152.168 275.479 152.335C275.647 152.502 275.874 152.596 276.11 152.596Z" fill="black"/>
<path d="M276.11 160.691H285.507C285.744 160.691 285.971 160.596 286.138 160.429C286.305 160.262 286.399 160.035 286.399 159.798C286.399 159.561 286.305 159.334 286.138 159.167C285.971 159 285.744 158.906 285.507 158.906H276.11C275.874 158.906 275.647 159 275.479 159.167C275.312 159.334 275.218 159.561 275.218 159.798C275.218 160.035 275.312 160.262 275.479 160.429C275.647 160.596 275.874 160.691 276.11 160.691Z" fill="black"/>
<path d="M290.228 167H276.11C275.874 167 275.647 167.094 275.479 167.261C275.312 167.428 275.218 167.655 275.218 167.892C275.218 168.129 275.312 168.356 275.479 168.523C275.647 168.69 275.874 168.784 276.11 168.784H290.228C290.464 168.784 290.691 168.69 290.859 168.523C291.026 168.356 291.12 168.129 291.12 167.892C291.12 167.655 291.026 167.428 290.859 167.261C290.691 167.094 290.464 167 290.228 167Z" fill="black"/>
<path d="M283.169 175.103H276.11C275.874 175.103 275.647 175.197 275.479 175.364C275.312 175.531 275.218 175.758 275.218 175.995C275.218 176.232 275.312 176.459 275.479 176.626C275.647 176.793 275.874 176.887 276.11 176.887H283.169C283.406 176.887 283.633 176.793 283.8 176.626C283.967 176.459 284.061 176.232 284.061 175.995C284.061 175.758 283.967 175.531 283.8 175.364C283.633 175.197 283.406 175.103 283.169 175.103Z" fill="black"/>
</g>
<g opacity="0.5">
<path d="M306.523 129.27H273.112C272.875 129.27 272.648 129.176 272.481 129.009C272.314 128.841 272.22 128.614 272.22 128.378C272.22 128.141 272.314 127.914 272.481 127.747C272.648 127.579 272.875 127.485 273.112 127.485H306.523C306.759 127.485 306.986 127.579 307.154 127.747C307.321 127.914 307.415 128.141 307.415 128.378C307.415 128.614 307.321 128.841 307.154 129.009C306.986 129.176 306.759 129.27 306.523 129.27Z" fill="black"/>
</g>
<g opacity="0.5">
<path d="M294.806 134.276H273.112C272.875 134.276 272.648 134.182 272.481 134.015C272.314 133.848 272.22 133.621 272.22 133.384C272.22 133.147 272.314 132.92 272.481 132.753C272.648 132.586 272.875 132.492 273.112 132.492H294.806C295.042 132.492 295.269 132.586 295.437 132.753C295.604 132.92 295.698 133.147 295.698 133.384C295.698 133.621 295.604 133.848 295.437 134.015C295.269 134.182 295.042 134.276 294.806 134.276Z" fill="black"/>
</g>
<g opacity="0.5">
<path d="M316.223 191.218H273.112C272.875 191.218 272.648 191.124 272.481 190.957C272.314 190.79 272.22 190.563 272.22 190.326C272.22 190.089 272.314 189.862 272.481 189.695C272.648 189.528 272.875 189.434 273.112 189.434H316.223C316.459 189.434 316.686 189.528 316.854 189.695C317.021 189.862 317.115 190.089 317.115 190.326C317.115 190.563 317.021 190.79 316.854 190.957C316.686 191.124 316.459 191.218 316.223 191.218Z" fill="black"/>
</g>
<path d="M277.547 226.592H272.22V231.92H277.547V226.592Z" fill="#407BFF"/>
<g opacity="0.5">
<path d="M307.87 230.153H281.42C281.183 230.153 280.956 230.059 280.789 229.892C280.622 229.724 280.528 229.497 280.528 229.261C280.528 229.024 280.622 228.797 280.789 228.63C280.956 228.462 281.183 228.368 281.42 228.368H307.87C308.107 228.368 308.334 228.462 308.501 228.63C308.668 228.797 308.762 229.024 308.762 229.261C308.762 229.497 308.668 229.724 308.501 229.892C308.334 230.059 308.107 230.153 307.87 230.153Z" fill="black"/>
</g>
<path d="M277.547 235.524H272.22V240.852H277.547V235.524Z" fill="#407BFF"/>
<g opacity="0.5">
<path d="M307.87 239.077H281.42C281.183 239.077 280.956 238.983 280.789 238.815C280.622 238.648 280.528 238.421 280.528 238.184C280.528 237.948 280.622 237.721 280.789 237.553C280.956 237.386 281.183 237.292 281.42 237.292H307.87C308.107 237.292 308.334 237.386 308.501 237.553C308.668 237.721 308.762 237.948 308.762 238.184C308.762 238.421 308.668 238.648 308.501 238.815C308.334 238.983 308.107 239.077 307.87 239.077Z" fill="black"/>
</g>
<path d="M277.547 244.448H272.22V249.776H277.547V244.448Z" fill="#407BFF"/>
<g opacity="0.5">
<path d="M307.87 248.009H281.42C281.183 248.009 280.956 247.915 280.789 247.748C280.622 247.581 280.528 247.354 280.528 247.117C280.528 246.88 280.622 246.653 280.789 246.486C280.956 246.319 281.183 246.225 281.42 246.225H307.87C308.107 246.225 308.334 246.319 308.501 246.486C308.668 246.653 308.762 246.88 308.762 247.117C308.762 247.354 308.668 247.581 308.501 247.748C308.334 247.915 308.107 248.009 307.87 248.009Z" fill="black"/>
</g>
<path d="M277.547 253.381H272.22V258.709H277.547V253.381Z" fill="#407BFF"/>
<g opacity="0.5">
<path d="M307.87 256.942H281.42C281.183 256.942 280.956 256.848 280.789 256.681C280.622 256.513 280.528 256.286 280.528 256.05C280.528 255.813 280.622 255.586 280.789 255.419C280.956 255.251 281.183 255.157 281.42 255.157H307.87C308.107 255.157 308.334 255.251 308.501 255.419C308.668 255.586 308.762 255.813 308.762 256.05C308.762 256.286 308.668 256.513 308.501 256.681C308.334 256.848 308.107 256.942 307.87 256.942Z" fill="black"/>
</g>
<g opacity="0.5">
<path d="M356.665 199.197H279.26C279.024 199.197 278.797 199.103 278.629 198.935C278.462 198.768 278.368 198.541 278.368 198.304C278.368 198.068 278.462 197.841 278.629 197.673C278.797 197.506 279.024 197.412 279.26 197.412H356.665C356.902 197.412 357.129 197.506 357.296 197.673C357.464 197.841 357.558 198.068 357.558 198.304C357.558 198.541 357.464 198.768 357.296 198.935C357.129 199.103 356.902 199.197 356.665 199.197Z" fill="black"/>
<path d="M356.763 203.668H273.112C272.875 203.668 272.648 203.574 272.481 203.406C272.314 203.239 272.22 203.012 272.22 202.775C272.22 202.539 272.314 202.312 272.481 202.144C272.648 201.977 272.875 201.883 273.112 201.883H356.763C357 201.883 357.227 201.977 357.394 202.144C357.562 202.312 357.656 202.539 357.656 202.775C357.656 203.012 357.562 203.239 357.394 203.406C357.227 203.574 357 203.668 356.763 203.668Z" fill="black"/>
<path d="M356.861 208.138H273.21C272.973 208.138 272.746 208.044 272.579 207.877C272.412 207.71 272.318 207.483 272.318 207.246C272.318 207.009 272.412 206.782 272.579 206.615C272.746 206.448 272.973 206.354 273.21 206.354H356.861C357.098 206.354 357.325 206.448 357.492 206.615C357.66 206.782 357.754 207.009 357.754 207.246C357.754 207.483 357.66 207.71 357.492 207.877C357.325 208.044 357.098 208.138 356.861 208.138Z" fill="black"/>
<path d="M344.457 212.609H273.308C273.072 212.609 272.845 212.515 272.677 212.348C272.51 212.18 272.416 211.953 272.416 211.717C272.416 211.48 272.51 211.253 272.677 211.086C272.845 210.918 273.072 210.824 273.308 210.824H344.457C344.694 210.824 344.921 210.918 345.088 211.086C345.256 211.253 345.35 211.48 345.35 211.717C345.35 211.953 345.256 212.18 345.088 212.348C344.921 212.515 344.694 212.609 344.457 212.609Z" fill="black"/>
</g>
<path opacity="0.3" d="M277.547 235.524H272.22V240.852H277.547V235.524Z" fill="white"/>
<path opacity="0.5" d="M277.547 244.448H272.22V249.776H277.547V244.448Z" fill="white"/>
<path opacity="0.7" d="M277.547 253.381H272.22V258.709H277.547V253.381Z" fill="white"/>
<path d="M363.563 301.847C363.563 301.847 359.324 292.602 364.17 283.482C369.016 274.361 370.417 272.22 367.329 270.355C364.241 268.49 362.823 277.645 362.823 277.645C361.295 273.503 361.139 268.98 362.376 264.742C364.518 258.147 365.866 247.403 362.939 246.252C360.012 245.1 362.376 259.637 359.824 264.617C358.53 261.131 357.693 257.493 357.334 253.792C356.986 248.5 357.531 240.041 355.22 237.872C352.908 235.704 351.418 237.203 353.694 248.893C355.061 255.879 355.817 262.97 355.951 270.087C355.951 270.087 350.927 254.747 347.545 254.301C344.163 253.855 344.172 258.825 347.063 263.135C349.954 267.446 355.532 275.156 356.442 279.127C356.442 279.127 350.918 267.588 345.957 271.095C340.995 274.602 350.276 281.608 354.416 284.124C358.557 286.641 361.413 302.462 361.413 302.462L363.563 301.847Z" fill="#407BFF"/>
<path opacity="0.2" d="M363.563 301.847C363.563 301.847 359.324 292.602 364.17 283.482C369.016 274.361 370.417 272.22 367.329 270.355C364.241 268.49 362.823 277.645 362.823 277.645C361.295 273.503 361.139 268.98 362.376 264.742C364.518 258.147 365.866 247.403 362.939 246.252C360.012 245.1 362.376 259.637 359.824 264.617C358.53 261.131 357.693 257.493 357.334 253.792C356.986 248.5 357.531 240.041 355.22 237.872C352.908 235.704 351.418 237.203 353.694 248.893C355.061 255.879 355.817 262.97 355.951 270.087C355.951 270.087 350.927 254.747 347.545 254.301C344.163 253.855 344.172 258.825 347.063 263.135C349.954 267.446 355.532 275.156 356.442 279.127C356.442 279.127 350.918 267.588 345.957 271.095C340.995 274.602 350.276 281.608 354.416 284.124C358.557 286.641 361.413 302.462 361.413 302.462L363.563 301.847Z" fill="black"/>
<path d="M360.217 305.64C360.217 305.64 364.349 296.332 359.396 287.292C354.443 278.252 353.015 276.12 356.076 274.201C359.137 272.282 360.672 281.429 360.672 281.429C362.151 277.271 362.254 272.747 360.966 268.526C358.744 261.958 357.263 251.24 360.181 250.044C363.099 248.849 360.904 263.43 363.51 268.356C364.764 264.856 365.559 261.209 365.875 257.505C366.16 252.195 365.509 243.744 367.802 241.54C370.095 239.336 371.595 240.817 369.453 252.543C368.171 259.548 367.502 266.652 367.454 273.773C367.454 273.773 372.3 258.361 375.691 257.897C379.082 257.433 379.117 262.359 376.28 266.714C373.442 271.069 367.963 278.868 367.097 282.848C367.097 282.848 372.451 271.247 377.484 274.692C382.517 278.136 373.29 285.267 369.185 287.846C365.08 290.425 362.385 306.255 362.385 306.255L360.217 305.64Z" fill="#407BFF"/>
<path d="M379.26 299.009H345.162L347.92 323.407H376.494L379.26 299.009Z" fill="#263238"/>
<path d="M173.353 89.7466H199C201.092 89.7466 203.099 90.5777 204.578 92.0571C206.057 93.5365 206.889 95.543 206.889 97.6352V119.945C206.889 122.037 206.057 124.043 204.578 125.523C203.099 127.002 201.092 127.833 199 127.833H191.504L194.181 137.56L186.15 127.833H173.353C172.316 127.834 171.29 127.631 170.332 127.235C169.373 126.839 168.503 126.259 167.769 125.526C167.036 124.793 166.454 123.923 166.057 122.966C165.66 122.008 165.456 120.981 165.456 119.945V97.6352C165.456 96.5985 165.66 95.572 166.057 94.6143C166.454 93.6566 167.036 92.7866 167.769 92.0539C168.503 91.3213 169.373 90.7404 170.332 90.3445C171.29 89.9486 172.316 89.7454 173.353 89.7466Z" fill="#407BFF"/>
<path opacity="0.7" d="M173.353 89.7466H199C201.092 89.7466 203.099 90.5777 204.578 92.0571C206.057 93.5365 206.889 95.543 206.889 97.6352V119.945C206.889 122.037 206.057 124.043 204.578 125.523C203.099 127.002 201.092 127.833 199 127.833H191.504L194.181 137.56L186.15 127.833H173.353C172.316 127.834 171.29 127.631 170.332 127.235C169.373 126.839 168.503 126.259 167.769 125.526C167.036 124.793 166.454 123.923 166.057 122.966C165.66 122.008 165.456 120.981 165.456 119.945V97.6352C165.456 96.5985 165.66 95.572 166.057 94.6143C166.454 93.6566 167.036 92.7866 167.769 92.0539C168.503 91.3213 169.373 90.7404 170.332 90.3445C171.29 89.9486 172.316 89.7454 173.353 89.7466Z" fill="white"/>
<path opacity="0.7" d="M182.295 113.653C186.706 113.653 190.281 110.077 190.281 105.666C190.281 101.255 186.706 97.6797 182.295 97.6797C177.884 97.6797 174.308 101.255 174.308 105.666C174.308 110.077 177.884 113.653 182.295 113.653Z" fill="white"/>
<path d="M182.295 114.805C180.181 114.803 178.133 114.068 176.5 112.726C174.867 111.384 173.75 109.518 173.339 107.444C172.928 105.371 173.248 103.219 174.245 101.355C175.243 99.4916 176.855 98.0313 178.808 97.2231C180.761 96.415 182.934 96.3088 184.957 96.9229C186.979 97.537 188.727 98.8333 189.901 100.591C191.075 102.349 191.603 104.459 191.396 106.563C191.189 108.666 190.259 110.633 188.764 112.128C187.916 112.978 186.907 113.652 185.797 114.112C184.686 114.571 183.496 114.807 182.295 114.805ZM182.295 98.8401C180.715 98.8403 179.185 99.3882 177.964 100.39C176.743 101.392 175.908 102.787 175.6 104.336C175.292 105.885 175.531 107.493 176.276 108.886C177.02 110.278 178.225 111.37 179.684 111.974C181.143 112.578 182.767 112.658 184.278 112.199C185.79 111.741 187.095 110.772 187.972 109.459C188.85 108.145 189.245 106.569 189.09 104.997C188.935 103.425 188.239 101.956 187.122 100.839C186.49 100.203 185.738 99.6984 184.909 99.3552C184.08 99.0121 183.192 98.837 182.295 98.8401Z" fill="#407BFF"/>
<path d="M188.767 110.494L187.126 112.135L196.232 121.24L197.872 119.6L188.767 110.494Z" fill="#407BFF"/>
<path d="M198.027 123.148C197.567 123.144 197.125 122.962 196.796 122.64L189.844 115.688C189.671 115.53 189.531 115.338 189.433 115.124C189.336 114.91 189.283 114.679 189.277 114.444C189.271 114.209 189.313 113.975 189.4 113.757C189.488 113.539 189.618 113.34 189.784 113.174C189.95 113.008 190.148 112.876 190.366 112.788C190.584 112.701 190.817 112.658 191.052 112.662C191.287 112.667 191.519 112.72 191.733 112.816C191.947 112.913 192.139 113.052 192.298 113.225L199.259 120.186C199.5 120.43 199.663 120.739 199.728 121.075C199.794 121.412 199.759 121.76 199.627 122.076C199.496 122.393 199.274 122.663 198.989 122.854C198.705 123.045 198.37 123.147 198.027 123.148Z" fill="#407BFF"/>
<path d="M183.535 102.052C183.535 102.405 183.43 102.75 183.234 103.044C183.038 103.337 182.759 103.566 182.433 103.701C182.107 103.836 181.748 103.872 181.402 103.803C181.056 103.734 180.738 103.564 180.488 103.314C180.239 103.065 180.069 102.747 180 102.401C179.931 102.054 179.966 101.695 180.101 101.369C180.237 101.043 180.465 100.764 180.759 100.568C181.052 100.372 181.397 100.268 181.75 100.268C182.224 100.268 182.678 100.456 183.012 100.79C183.347 101.125 183.535 101.579 183.535 102.052Z" fill="white"/>
<path d="M186.185 103.356C186.185 103.532 186.133 103.705 186.035 103.852C185.937 103.998 185.798 104.113 185.635 104.18C185.472 104.248 185.292 104.265 185.119 104.231C184.946 104.197 184.787 104.112 184.662 103.987C184.537 103.862 184.452 103.703 184.418 103.53C184.383 103.357 184.401 103.177 184.469 103.014C184.536 102.851 184.651 102.712 184.797 102.614C184.944 102.516 185.117 102.463 185.293 102.463C185.53 102.463 185.757 102.557 185.924 102.725C186.091 102.892 186.185 103.119 186.185 103.356Z" fill="white"/>
<path d="M257.701 253.846H124.79V275.236H257.701V253.846Z" fill="#407BFF"/>
<path opacity="0.8" d="M257.701 253.846H124.79V275.236H257.701V253.846Z" fill="white"/>
<path opacity="0.2" d="M257.701 259.503V257.763L166.705 258.486L257.701 259.503Z" fill="black"/>
<path opacity="0.2" d="M257.701 266.999V265.652L216.848 267.115L257.701 266.999Z" fill="black"/>
<path opacity="0.2" d="M257.701 272.014V270.274L191.834 271.282L257.701 272.014Z" fill="black"/>
<path opacity="0.2" d="M154.506 253.846L152.596 269.792L154.872 267.365C155.637 270.276 157.066 272.971 159.048 275.236C160.47 273.374 161.601 271.307 162.404 269.105L224.477 268.391L162.993 267.044C163.184 266.164 163.282 265.267 163.287 264.367C163.284 263.621 163.212 262.877 163.073 262.145L254.149 261.913L162.859 261.199C162.538 259.997 162.089 258.834 161.52 257.728C162.833 256.57 164.526 255.934 166.277 255.943H257.701V253.846H154.506Z" fill="black"/>
<path d="M156.559 264.421C156.566 266.985 157.589 269.441 159.403 271.253C161.218 273.064 163.677 274.083 166.241 274.085H259.235C259.329 274.085 259.422 274.103 259.509 274.139C259.595 274.175 259.674 274.228 259.74 274.294C259.807 274.36 259.859 274.439 259.895 274.526C259.931 274.612 259.949 274.705 259.949 274.799V275.566C259.949 275.756 259.874 275.937 259.74 276.071C259.606 276.205 259.425 276.28 259.235 276.28H121.863C120.296 276.28 118.745 275.97 117.298 275.367C115.852 274.765 114.539 273.882 113.436 272.769C112.332 271.657 111.46 270.337 110.87 268.886C110.279 267.434 109.981 265.88 109.994 264.313C110.072 261.146 111.391 258.137 113.669 255.934C115.946 253.732 118.999 252.514 122.166 252.543H259.235C259.425 252.543 259.606 252.618 259.74 252.752C259.874 252.886 259.949 253.068 259.949 253.257V254.015C259.949 254.205 259.874 254.386 259.74 254.52C259.606 254.654 259.425 254.729 259.235 254.729H166.526C163.929 254.724 161.432 255.734 159.569 257.545C157.707 259.356 156.626 261.824 156.559 264.421Z" fill="#407BFF"/>
<path opacity="0.4" d="M156.559 264.421C156.566 266.985 157.589 269.441 159.403 271.253C161.218 273.064 163.677 274.083 166.241 274.085H259.235C259.329 274.085 259.422 274.103 259.509 274.139C259.595 274.175 259.674 274.228 259.74 274.294C259.807 274.36 259.859 274.439 259.895 274.526C259.931 274.612 259.949 274.705 259.949 274.799V275.566C259.949 275.756 259.874 275.937 259.74 276.071C259.606 276.205 259.425 276.28 259.235 276.28H121.863C120.296 276.28 118.745 275.97 117.298 275.367C115.852 274.765 114.539 273.882 113.436 272.769C112.332 271.657 111.46 270.337 110.87 268.886C110.279 267.434 109.981 265.88 109.994 264.313C110.072 261.146 111.391 258.137 113.669 255.934C115.946 253.732 118.999 252.514 122.166 252.543H259.235C259.425 252.543 259.606 252.618 259.74 252.752C259.874 252.886 259.949 253.068 259.949 253.257V254.015C259.949 254.205 259.874 254.386 259.74 254.52C259.606 254.654 259.425 254.729 259.235 254.729H166.526C163.929 254.724 161.432 255.734 159.569 257.545C157.707 259.356 156.626 261.824 156.559 264.421Z" fill="white"/>
<path d="M156.559 264.42C156.566 266.984 157.589 269.441 159.403 271.253C161.218 273.064 163.677 274.082 166.241 274.085H259.235C259.329 274.085 259.422 274.103 259.509 274.139C259.595 274.175 259.674 274.228 259.74 274.294C259.807 274.36 259.859 274.439 259.895 274.525C259.931 274.612 259.949 274.705 259.949 274.799V275.566C259.949 275.755 259.874 275.937 259.74 276.071C259.606 276.205 259.425 276.28 259.235 276.28H165.705C164.138 276.279 162.587 275.968 161.141 275.365C159.694 274.762 158.382 273.879 157.278 272.767C156.174 271.655 155.301 270.335 154.709 268.885C154.117 267.434 153.817 265.88 153.828 264.313C153.91 261.151 155.228 258.146 157.501 255.946C159.774 253.745 162.819 252.523 165.982 252.543H259.235C259.425 252.543 259.606 252.618 259.74 252.752C259.874 252.886 259.949 253.067 259.949 253.257V254.015C259.949 254.204 259.874 254.386 259.74 254.52C259.606 254.654 259.425 254.729 259.235 254.729H166.526C163.929 254.724 161.432 255.734 159.569 257.545C157.707 259.356 156.626 261.823 156.559 264.42Z" fill="#407BFF"/>
<path d="M174.067 258.656V267.231L177.172 264.126L180.18 267.133V258.656H174.067Z" fill="#263238"/>
<path opacity="0.6" d="M156.559 264.42C156.566 266.984 157.589 269.441 159.403 271.253C161.218 273.064 163.677 274.082 166.241 274.085H259.235C259.329 274.085 259.422 274.103 259.509 274.139C259.595 274.175 259.674 274.228 259.74 274.294C259.807 274.36 259.859 274.439 259.895 274.525C259.931 274.612 259.949 274.705 259.949 274.799V275.566C259.949 275.755 259.874 275.937 259.74 276.071C259.606 276.205 259.425 276.28 259.235 276.28H165.705C164.138 276.279 162.587 275.968 161.141 275.365C159.694 274.762 158.382 273.879 157.278 272.767C156.174 271.655 155.301 270.335 154.709 268.885C154.117 267.434 153.817 265.88 153.828 264.313C153.91 261.151 155.228 258.146 157.501 255.946C159.774 253.745 162.819 252.523 165.982 252.543H259.235C259.425 252.543 259.606 252.618 259.74 252.752C259.874 252.886 259.949 253.067 259.949 253.257V254.015C259.949 254.204 259.874 254.386 259.74 254.52C259.606 254.654 259.425 254.729 259.235 254.729H166.526C163.929 254.724 161.432 255.734 159.569 257.545C157.707 259.356 156.626 261.823 156.559 264.42Z" fill="white"/>
<path d="M264.117 300.981H131.206V322.371H264.117V300.981Z" fill="#407BFF"/>
<path opacity="0.7" d="M264.117 300.981H131.206V322.371H264.117V300.981Z" fill="white"/>
<path opacity="0.2" d="M264.117 306.63V304.89L173.121 305.622L264.117 306.63Z" fill="black"/>
<path opacity="0.2" d="M264.117 314.126V312.787L223.264 314.242L264.117 314.126Z" fill="black"/>
<path opacity="0.2" d="M264.117 319.141V317.41L198.25 318.41L264.117 319.141Z" fill="black"/>
<path opacity="0.2" d="M160.922 300.981L158.995 316.928L161.27 314.5C162.043 317.41 163.475 320.103 165.456 322.371C166.871 320.503 167.999 318.434 168.802 316.232L230.876 315.518L169.391 314.179C169.584 313.3 169.685 312.403 169.694 311.502C169.688 310.756 169.614 310.012 169.471 309.28L260.574 309.075L169.275 308.361C168.954 307.162 168.505 306.002 167.936 304.899C169.243 303.724 170.936 303.073 172.693 303.069H264.144V300.981H160.922Z" fill="black"/>
<path d="M162.975 311.546C162.97 312.821 163.217 314.083 163.702 315.261C164.186 316.44 164.899 317.511 165.799 318.413C166.698 319.315 167.767 320.03 168.944 320.518C170.121 321.006 171.383 321.257 172.657 321.256H265.652C265.841 321.256 266.023 321.331 266.156 321.465C266.29 321.598 266.366 321.78 266.366 321.969V322.737C266.366 322.926 266.29 323.108 266.156 323.242C266.023 323.376 265.841 323.451 265.652 323.451H120.971C119.405 323.448 117.856 323.137 116.411 322.534C114.966 321.931 113.655 321.049 112.552 319.938C111.449 318.827 110.577 317.509 109.985 316.059C109.393 314.61 109.093 313.058 109.102 311.493C109.177 308.322 110.497 305.308 112.776 303.102C115.055 300.896 118.111 299.676 121.283 299.705H265.652C265.841 299.705 266.023 299.78 266.156 299.914C266.29 300.048 266.366 300.229 266.366 300.418V301.186C266.366 301.375 266.29 301.557 266.156 301.691C266.023 301.825 265.841 301.9 265.652 301.9H172.943C170.352 301.894 167.862 302.898 166.001 304.7C164.139 306.501 163.054 308.957 162.975 311.546Z" fill="#263238"/>
<path opacity="0.2" d="M162.975 311.546C162.97 312.821 163.217 314.083 163.702 315.261C164.186 316.44 164.899 317.511 165.799 318.413C166.698 319.315 167.767 320.03 168.944 320.518C170.121 321.006 171.383 321.257 172.657 321.256H265.652C265.841 321.256 266.023 321.331 266.156 321.465C266.29 321.598 266.366 321.78 266.366 321.969V322.737C266.366 322.926 266.29 323.108 266.156 323.242C266.023 323.376 265.841 323.451 265.652 323.451H120.971C119.405 323.448 117.856 323.137 116.411 322.534C114.966 321.931 113.655 321.049 112.552 319.938C111.449 318.827 110.577 317.509 109.985 316.059C109.393 314.61 109.093 313.058 109.102 311.493C109.177 308.322 110.497 305.308 112.776 303.102C115.055 300.896 118.111 299.676 121.283 299.705H265.652C265.841 299.705 266.023 299.78 266.156 299.914C266.29 300.048 266.366 300.229 266.366 300.418V301.186C266.366 301.375 266.29 301.557 266.156 301.691C266.023 301.825 265.841 301.9 265.652 301.9H172.943C170.352 301.894 167.862 302.898 166.001 304.7C164.139 306.501 163.054 308.957 162.975 311.546Z" fill="white"/>
<path d="M162.975 311.546C162.97 312.821 163.217 314.083 163.702 315.261C164.186 316.44 164.899 317.511 165.799 318.413C166.698 319.315 167.767 320.03 168.944 320.518C170.121 321.006 171.383 321.257 172.657 321.256H265.652C265.841 321.256 266.023 321.331 266.156 321.465C266.29 321.598 266.366 321.78 266.366 321.969V322.737C266.366 322.926 266.29 323.108 266.156 323.242C266.023 323.376 265.841 323.451 265.652 323.451H172.122C170.555 323.451 169.005 323.141 167.559 322.539C166.113 321.937 164.801 321.055 163.698 319.943C162.594 318.831 161.722 317.512 161.131 316.062C160.54 314.612 160.241 313.059 160.253 311.493C160.326 308.323 161.643 305.308 163.921 303.102C166.199 300.896 169.254 299.676 172.425 299.705H265.652C265.841 299.705 266.023 299.78 266.156 299.914C266.29 300.048 266.366 300.229 266.366 300.418V301.186C266.366 301.375 266.29 301.557 266.156 301.691C266.023 301.825 265.841 301.9 265.652 301.9H172.943C170.352 301.894 167.862 302.898 166.001 304.7C164.139 306.501 163.054 308.957 162.975 311.546Z" fill="#263238"/>
<path d="M173.121 308.833V317.409L176.218 314.304L179.225 317.311V308.833H173.121Z" fill="#407BFF"/>
<path opacity="0.4" d="M162.975 311.546C162.97 312.821 163.217 314.083 163.702 315.261C164.186 316.44 164.899 317.511 165.799 318.413C166.698 319.315 167.767 320.03 168.944 320.518C170.121 321.006 171.383 321.257 172.657 321.256H265.652C265.841 321.256 266.023 321.331 266.156 321.465C266.29 321.598 266.366 321.78 266.366 321.969V322.737C266.366 322.926 266.29 323.108 266.156 323.242C266.023 323.376 265.841 323.451 265.652 323.451H172.122C170.555 323.451 169.005 323.141 167.559 322.539C166.113 321.937 164.801 321.055 163.698 319.943C162.594 318.831 161.722 317.512 161.131 316.062C160.54 314.612 160.241 313.059 160.253 311.493C160.326 308.323 161.643 305.308 163.921 303.102C166.199 300.896 169.254 299.676 172.425 299.705H265.652C265.841 299.705 266.023 299.78 266.156 299.914C266.29 300.048 266.366 300.229 266.366 300.418V301.186C266.366 301.375 266.29 301.557 266.156 301.691C266.023 301.825 265.841 301.9 265.652 301.9H172.943C170.352 301.894 167.862 302.898 166.001 304.7C164.139 306.501 163.054 308.957 162.975 311.546Z" fill="white"/>
<path d="M119.248 298.768H168.49V277.405H119.248V298.768Z" fill="#407BFF"/>
<path opacity="0.8" d="M119.248 298.768H168.49V277.405H119.248V298.768Z" fill="white"/>
<path opacity="0.2" d="M164.545 279.502H119.248V277.414H164.492L164.545 279.502Z" fill="black"/>
<path opacity="0.2" d="M164.545 281.322L123.683 282.196L164.545 283.062V281.322Z" fill="black"/>
<path opacity="0.2" d="M164.545 289.22L121.274 289.951L164.545 290.567V289.22Z" fill="black"/>
<path opacity="0.2" d="M164.545 293.842L121.658 294.707L164.545 295.573V293.842Z" fill="black"/>
<path opacity="0.2" d="M119.248 284.365L160.735 285.614L119.248 286.489V284.365Z" fill="black"/>
<path d="M229.154 287.979C229.149 290.545 228.127 293.004 226.312 294.817C224.497 296.631 222.037 297.65 219.471 297.653H116.973C116.783 297.653 116.602 297.728 116.468 297.862C116.334 297.996 116.259 298.177 116.259 298.367V299.125C116.259 299.314 116.334 299.496 116.468 299.63C116.602 299.764 116.783 299.839 116.973 299.839H220.007C221.573 299.841 223.125 299.533 224.572 298.932C226.019 298.331 227.332 297.449 228.436 296.336C229.54 295.224 230.412 293.905 231.002 292.453C231.593 291.002 231.889 289.448 231.875 287.881C231.803 284.711 230.485 281.697 228.207 279.49C225.929 277.284 222.874 276.064 219.703 276.093H116.973C116.783 276.093 116.602 276.168 116.468 276.302C116.334 276.436 116.259 276.617 116.259 276.807V277.574C116.259 277.763 116.334 277.945 116.468 278.079C116.602 278.213 116.783 278.288 116.973 278.288H219.186C221.783 278.282 224.28 279.293 226.143 281.104C228.005 282.915 229.086 285.382 229.154 287.979Z" fill="#263238"/>
<path opacity="0.4" d="M229.154 287.979C229.149 290.545 228.127 293.004 226.312 294.817C224.497 296.631 222.037 297.65 219.471 297.653H116.973C116.783 297.653 116.602 297.728 116.468 297.862C116.334 297.996 116.259 298.177 116.259 298.367V299.125C116.259 299.314 116.334 299.496 116.468 299.63C116.602 299.764 116.783 299.839 116.973 299.839H220.007C221.573 299.841 223.125 299.533 224.572 298.932C226.019 298.331 227.332 297.449 228.436 296.336C229.54 295.224 230.412 293.905 231.002 292.453C231.593 291.002 231.889 289.448 231.875 287.881C231.803 284.711 230.485 281.697 228.207 279.49C225.929 277.284 222.874 276.064 219.703 276.093H116.973C116.783 276.093 116.602 276.168 116.468 276.302C116.334 276.436 116.259 276.617 116.259 276.807V277.574C116.259 277.763 116.334 277.945 116.468 278.079C116.602 278.213 116.783 278.288 116.973 278.288H219.186C221.783 278.282 224.28 279.293 226.143 281.104C228.005 282.915 229.086 285.382 229.154 287.979Z" fill="white"/>
<path d="M266.535 288.104C266.535 290.944 265.407 293.668 263.399 295.676C261.39 297.684 258.667 298.813 255.827 298.813H164.545V277.396H255.836C258.674 277.398 261.396 278.527 263.402 280.535C265.408 282.543 266.535 285.265 266.535 288.104Z" fill="#407BFF"/>
<path opacity="0.7" d="M164.545 277.414V298.831H255.844C258.685 298.831 261.408 297.702 263.417 295.694C265.425 293.686 266.553 290.962 266.553 288.122C266.553 285.282 265.425 282.558 263.417 280.55C261.408 278.542 258.685 277.414 255.844 277.414H164.545Z" fill="white"/>
<path opacity="0.2" d="M164.545 283.062V281.322L255.541 282.054L164.545 283.062Z" fill="black"/>
<path opacity="0.2" d="M164.545 290.567V289.22L205.398 290.683L164.545 290.567Z" fill="black"/>
<path opacity="0.2" d="M164.545 295.573V293.842L230.412 294.841L164.545 295.573Z" fill="black"/>
<path opacity="0.2" d="M255.987 279.502C257.744 279.506 259.437 280.157 260.744 281.331C260.175 282.438 259.723 283.601 259.396 284.802L168.106 285.516L259.191 285.739C259.049 286.475 258.974 287.221 258.968 287.97C258.969 288.872 259.074 289.77 259.28 290.647L197.786 291.986L259.851 292.709C260.389 294.19 261.08 295.61 261.913 296.948C263.781 295.648 265.186 293.786 265.925 291.634C266.664 289.481 266.698 287.149 266.021 284.976C265.345 282.802 263.994 280.901 262.164 279.548C260.334 278.195 258.12 277.459 255.845 277.449H164.545V279.537L255.987 279.502Z" fill="black"/>
<path d="M265.687 287.979C265.683 290.545 264.661 293.004 262.846 294.817C261.031 296.631 258.571 297.65 256.005 297.653H163.011C162.821 297.653 162.64 297.728 162.506 297.862C162.372 297.996 162.297 298.177 162.297 298.367V299.125C162.297 299.314 162.372 299.496 162.506 299.63C162.64 299.764 162.821 299.839 163.011 299.839H256.541C258.107 299.841 259.659 299.533 261.106 298.932C262.553 298.331 263.866 297.449 264.97 296.336C266.074 295.224 266.946 293.905 267.536 292.453C268.127 291.002 268.423 289.448 268.409 287.881C268.337 284.711 267.019 281.697 264.741 279.49C262.463 277.284 259.408 276.064 256.237 276.093H163.011C162.821 276.093 162.64 276.168 162.506 276.302C162.372 276.436 162.297 276.617 162.297 276.807V277.574C162.297 277.763 162.372 277.945 162.506 278.079C162.64 278.213 162.821 278.288 163.011 278.288H255.72C258.317 278.282 260.814 279.293 262.677 281.104C264.539 282.915 265.62 285.382 265.687 287.979Z" fill="#263238"/>
<path d="M255.541 285.267V293.842L252.436 290.737L249.428 293.744V285.267H255.541Z" fill="#407BFF"/>
<path d="M279.662 164.724H277.431C277.017 164.733 276.61 164.84 276.245 165.037C275.881 165.234 275.568 165.515 275.334 165.858L273.121 169.088C272.682 169.726 272.402 170.46 272.306 171.229C272.21 171.998 272.299 172.778 272.568 173.505L272.907 174.398C276.61 174.576 280.751 172.042 280.751 172.042L282.018 171.453C282.28 171.339 282.516 171.174 282.714 170.967C282.911 170.761 283.066 170.518 283.169 170.251C283.272 169.985 283.321 169.701 283.313 169.415C283.306 169.13 283.241 168.849 283.124 168.588L281.991 166.134C281.78 165.7 281.448 165.336 281.035 165.086C280.621 164.835 280.145 164.71 279.662 164.724Z" fill="#EEC1BB"/>
<path d="M237.372 168.659C243.101 173.291 249.286 177.753 256.112 180.483L255.264 180.305C255.889 180.457 257.531 179.832 258.388 179.412C263.153 177.092 267.668 173.612 271.952 170.435C272.39 170.118 272.928 169.968 273.467 170.012C274.007 170.057 274.512 170.293 274.893 170.677C275.273 171.062 275.504 171.571 275.542 172.11C275.58 172.65 275.424 173.186 275.102 173.621C270.827 178.975 261.208 189.853 253.587 188.265C245.234 185.775 237.854 181.126 231.277 175.441C227.012 171.336 232.732 164.92 237.372 168.659Z" fill="#EBC0BB"/>
<path d="M225.352 162.35C223.264 168.168 226.628 173.951 234.722 180.76C238.747 180.162 244.181 171.907 244.181 171.907C244.181 171.907 232.794 160.52 225.352 162.35Z" fill="#407BFF"/>
<path d="M232.312 126.209C232.312 126.209 224.344 118.053 213.956 128.288C203.569 138.524 201.543 172.434 201.543 172.434L228.654 177.699C228.654 177.699 232.161 173.674 233.963 162.065C235.766 150.455 236.721 139.354 239.005 136.766C241.29 134.178 232.312 126.209 232.312 126.209Z" fill="#263238"/>
<path d="M255.595 297.938L249.723 295.6L252.016 287.042L254.131 279.189L261.556 280.831L258.406 289.889L255.595 297.938Z" fill="#EEC1BB"/>
<path opacity="0.2" d="M258.334 290.077L251.954 287.203L254.104 279.27L261.538 280.876L258.334 290.077Z" fill="black"/>
<path d="M211.163 220.828C211.163 220.828 260.244 214.207 273.879 222.916C287.515 231.626 261.109 284.669 261.109 284.669L252.846 282.884C252.846 282.884 259.039 240.835 258.575 239.077C258.111 237.319 234.999 248.786 203.364 249.875L211.163 220.828Z" fill="#263238"/>
<path opacity="0.2" d="M211.163 220.828C211.163 220.828 260.244 214.207 273.879 222.916C287.515 231.626 261.109 284.669 261.109 284.669L252.846 282.884C252.846 282.884 259.039 240.835 258.575 239.077C258.111 237.319 234.999 248.786 203.364 249.875L211.163 220.828Z" fill="black"/>
<path d="M252.391 280.207L262.787 283.58L260.922 288.318L251.374 285.07L252.391 280.207Z" fill="#263238"/>
<path d="M261.029 299.258C259.905 299.258 257.924 297.474 257.513 297.045C257.49 297.023 257.471 296.995 257.46 296.965V296.911C257.458 296.854 257.473 296.798 257.504 296.751C257.558 296.688 258.861 294.966 260.11 294.912C260.299 294.893 260.49 294.916 260.669 294.979C260.848 295.042 261.01 295.145 261.145 295.278C261.458 295.573 261.565 295.858 261.458 296.126C261.288 296.554 260.565 296.786 259.753 296.929C260.41 297.023 261.028 297.298 261.538 297.723C261.627 297.813 261.697 297.921 261.741 298.039C261.786 298.158 261.805 298.284 261.797 298.41C261.797 298.928 261.52 299.133 261.324 299.205C261.23 299.241 261.13 299.259 261.029 299.258ZM258.263 297.143C259.298 298.036 260.672 298.999 261.163 298.803C261.163 298.803 261.342 298.741 261.359 298.384C261.363 298.316 261.352 298.248 261.328 298.185C261.303 298.122 261.265 298.065 261.217 298.018C260.735 297.482 259.244 297.233 258.263 297.161V297.143ZM260.208 295.359H260.128C259.339 295.566 258.639 296.027 258.138 296.67C259.503 296.608 260.895 296.349 261.038 295.983C261.083 295.867 260.931 295.698 260.833 295.608C260.662 295.453 260.439 295.37 260.208 295.376V295.359Z" fill="#577AFA"/>
<path d="M248.625 291.95C248.857 291.29 256.826 294.458 256.826 294.458C256.826 294.458 260.181 301.177 264.679 303.908C269.177 306.638 265.5 308.673 260.065 306.897L246.608 302.516C242.727 301.266 246.225 298.768 248.625 291.95Z" fill="#2E353A"/>
<path opacity="0.4" d="M252.391 280.207L262.787 283.58L260.922 288.318L251.374 285.07L252.391 280.207Z" fill="white"/>
<path d="M281.206 314.92L275.12 316.633L271.729 308.441L268.641 300.927L275.53 297.715L278.538 306.826L281.206 314.92Z" fill="#EEC1BB"/>
<path d="M272.416 312.332C272.416 311.636 281.001 312.395 281.001 312.395C281.001 312.395 286.132 317.883 291.218 319.212C296.305 320.542 293.369 323.54 287.649 323.406L273.505 323.049C269.444 322.951 272.068 319.551 272.416 312.332Z" fill="#2E353A"/>
<path d="M285.507 314.688C284.256 314.518 283.047 314.122 281.938 313.519L281.875 313.474C281.872 313.451 281.872 313.427 281.875 313.403C281.871 313.382 281.871 313.361 281.875 313.34C281.866 313.312 281.866 313.28 281.875 313.251C281.875 313.153 282.669 311.19 283.838 310.735C284.014 310.663 284.204 310.631 284.394 310.642C284.584 310.653 284.769 310.706 284.936 310.797C285.32 310.985 285.498 311.226 285.48 311.52C285.436 311.975 284.793 312.412 284.079 312.769C284.742 312.67 285.419 312.76 286.034 313.028C286.143 313.089 286.239 313.172 286.314 313.272C286.389 313.372 286.443 313.486 286.471 313.608C286.528 313.762 286.538 313.93 286.498 314.089C286.458 314.248 286.371 314.392 286.248 314.501C286.031 314.649 285.768 314.715 285.507 314.688ZM282.678 313.403C283.936 313.965 285.516 314.492 285.935 314.161C285.935 314.161 286.087 314.045 286.007 313.706C285.992 313.64 285.963 313.577 285.921 313.523C285.88 313.469 285.826 313.425 285.766 313.394C285.141 313.019 283.642 313.224 282.678 313.403ZM284.284 311.074C284.171 311.074 284.059 311.095 283.954 311.136C283.266 311.553 282.728 312.178 282.419 312.921C283.713 312.475 284.972 311.823 285.007 311.44C285.007 311.315 284.82 311.19 284.704 311.136C284.571 311.084 284.427 311.063 284.284 311.074Z" fill="#577AFA"/>
<path opacity="0.2" d="M278.591 307.014L271.782 308.611L268.659 301.008L275.539 297.76L278.591 307.014Z" fill="black"/>
<path d="M225.084 227.173C225.084 227.173 224.379 217.463 224.049 215.482C223.776 213.519 223.374 211.575 222.844 209.664C220.694 203.194 191.843 210.806 191.843 210.806L191.022 215.268C191.022 215.268 178.002 239.818 186.703 248.661C189.38 251.338 194.529 252.552 199.821 252.516C199.821 252.516 216 253.292 246.091 251.891C246.091 251.891 243.86 269.418 268.659 303.756L276.958 301.079C276.958 301.079 260.574 238.738 259.182 237.631C247.188 227.94 225.084 227.173 225.084 227.173Z" fill="#263238"/>
<path d="M267.16 303.337L277.467 299.687L278.868 304.586L269.31 307.817L267.16 303.337Z" fill="#263238"/>
<path d="M234.784 167C234.784 167 233.749 169.534 232.304 173.96C231.956 174.995 231.599 176.138 231.224 177.369C230.733 178.984 230.206 180.76 229.68 182.723C229.296 184.115 228.912 185.57 228.538 187.105C228.163 188.64 227.761 190.3 227.378 191.986C227.378 192.182 227.288 192.388 227.253 192.584C225.621 199.489 224.429 206.49 223.683 213.546L191.986 210.78C191.981 203.823 192.342 196.871 193.066 189.952C193.637 183.957 194.745 178.026 196.376 172.229C197.635 168.053 199.259 164.465 201.347 162.118C201.347 162.154 218.534 156.514 234.784 167Z" fill="#407BFF"/>
<path d="M218.632 157.602C209.093 154.55 205.39 162.064 205.39 162.064L210.467 161.564L220.774 174.504L226.815 166.678L230.617 168.721C230.617 168.721 226.896 160.244 218.632 157.602Z" fill="#407BFF"/>
<path opacity="0.6" d="M218.632 157.602C209.093 154.55 205.39 162.064 205.39 162.064L210.467 161.564L220.774 174.504L226.815 166.678L230.617 168.721C230.617 168.721 226.896 160.244 218.632 157.602Z" fill="white"/>
<path d="M220.506 173.8L211.761 160.708C215.884 158.843 218.615 150.955 219.212 146.511L225.388 155.845C223.371 158.843 222.023 162.27 226.646 164.858C226.664 164.858 220.497 173.773 220.506 173.8Z" fill="#EEC1BB"/>
<path opacity="0.2" d="M221.729 150.321L225.388 155.845C224.907 156.53 224.492 157.259 224.147 158.022C222.318 157.201 220.372 154.453 220.828 152.552C220.983 151.757 221.289 151 221.729 150.321Z" fill="black"/>
<path d="M191.495 211.787L201.409 212.439L201.053 215.241L190.522 214.482L191.495 211.787Z" fill="black"/>
<path d="M224.477 216.91L202.248 215.322L202.605 212.52L224.12 213.938L224.477 216.91Z" fill="black"/>
<path d="M216.33 216.901H216.241L213.564 216.722C213.244 216.702 212.945 216.556 212.732 216.318C212.518 216.079 212.407 215.766 212.421 215.446L212.493 213.661C212.492 213.493 212.527 213.326 212.597 213.172C212.666 213.018 212.767 212.88 212.894 212.769C213.012 212.656 213.153 212.569 213.306 212.514C213.46 212.459 213.624 212.436 213.787 212.448L216.571 212.608C216.733 212.618 216.892 212.659 217.038 212.73C217.184 212.801 217.315 212.901 217.422 213.023C217.529 213.145 217.611 213.287 217.662 213.441C217.714 213.595 217.734 213.758 217.722 213.92L217.588 215.776C217.559 216.088 217.413 216.377 217.18 216.586C216.946 216.794 216.643 216.907 216.33 216.901ZM213.349 213.653L213.269 215.437C213.267 215.524 213.298 215.609 213.356 215.674C213.414 215.739 213.495 215.779 213.581 215.785L216.259 215.973C216.347 215.978 216.434 215.948 216.501 215.889C216.568 215.831 216.609 215.749 216.616 215.66L216.749 213.813C216.754 213.768 216.749 213.723 216.735 213.68C216.721 213.637 216.699 213.597 216.669 213.563C216.639 213.531 216.604 213.505 216.564 213.486C216.524 213.468 216.481 213.458 216.437 213.456L213.653 213.296C213.564 213.293 213.477 213.325 213.412 213.385C213.378 213.413 213.351 213.449 213.333 213.489C213.314 213.529 213.305 213.573 213.305 213.617L213.349 213.653Z" fill="white"/>
<path opacity="0.5" d="M267.16 303.337L277.467 299.687L278.868 304.586L269.31 307.817L267.16 303.337Z" fill="white"/>
<path d="M240.879 144.11C240.833 144.111 240.788 144.099 240.748 144.076C240.709 144.052 240.677 144.017 240.656 143.976C240.409 143.495 240.056 143.076 239.623 142.751C239.19 142.426 238.689 142.204 238.158 142.102C238.124 142.101 238.092 142.093 238.062 142.079C238.032 142.064 238.005 142.044 237.983 142.019C237.961 141.994 237.945 141.964 237.935 141.933C237.925 141.901 237.922 141.867 237.926 141.834C237.934 141.77 237.967 141.712 238.016 141.671C238.066 141.63 238.129 141.608 238.193 141.611C238.81 141.717 239.394 141.965 239.898 142.337C240.402 142.709 240.811 143.194 241.094 143.753C241.109 143.781 241.118 143.813 241.121 143.845C241.124 143.877 241.12 143.91 241.11 143.941C241.1 143.971 241.084 144 241.063 144.024C241.042 144.049 241.016 144.069 240.986 144.083L240.879 144.11Z" fill="#263238"/>
<path d="M237.899 147.974C237.996 149.213 238.242 150.435 238.631 151.615C238.315 151.808 237.952 151.911 237.582 151.911C237.212 151.911 236.849 151.808 236.533 151.615L237.899 147.974Z" fill="#D4827D"/>
<path d="M239.871 146.644C239.639 147.198 239.157 147.537 238.782 147.376C238.407 147.215 238.291 146.644 238.523 146.091C238.756 145.538 239.237 145.199 239.612 145.359C239.987 145.52 240.094 146.082 239.871 146.644Z" fill="#263238"/>
<path d="M239.443 145.324H240.844C240.844 145.324 239.826 146.118 239.443 145.324Z" fill="#263238"/>
<path d="M219.328 151.446C219.362 151.538 219.407 151.625 219.462 151.705C219.551 151.883 219.65 152.044 219.748 152.223C220.321 153.321 221.099 154.3 222.041 155.105C225.084 157.63 227.708 158.434 230.073 157.782C230.189 157.782 230.296 157.711 230.412 157.675C233.91 156.354 236.658 152.321 238.987 146.877C239.996 144.77 240.656 142.512 240.942 140.193C240.942 140.193 240.942 140.113 240.942 140.095C240.942 140.077 240.942 139.908 240.942 139.827C241.056 138.494 240.835 137.153 240.299 135.926C239.763 134.7 238.928 133.627 237.872 132.804C236.97 132.062 235.988 131.421 234.945 130.895C224.808 125.63 214.429 141.648 219.328 151.446Z" fill="#EEC1BB"/>
<path d="M240.942 140.103C240.942 140.103 237.89 147.564 229.537 147.242C229.537 147.242 222.862 153.23 218.516 151.169C212.582 148.358 211.618 137.417 217.927 129.948C226.128 120.257 243.262 127.771 240.942 140.103Z" fill="#263238"/>
<path d="M234.044 146.921C234.606 145.797 234.651 143.468 232.785 142.843C230.92 142.218 227.61 146.136 231.536 149.357C232.098 149.821 232.91 149.259 234.044 146.921Z" fill="#EEC1BB"/>
<path d="M232.313 126.209C232.313 126.209 240.032 127.923 242.423 132.581C245.225 138.025 245.225 142.192 237.39 144.717C237.39 144.717 227.779 135.205 223.558 134.071C221.097 133.395 218.584 132.926 216.044 132.67C219.07 124.675 229.27 122.729 232.313 126.209Z" fill="#263238"/>
<path d="M229.555 147.243C224.701 156.943 214.028 173.425 202.65 161.798C202.65 161.798 206.737 148.644 214.991 143.218C223.246 137.793 229.555 147.243 229.555 147.243Z" fill="#263238"/>
<path d="M227.797 163.421C231.947 166.491 226.637 176.592 231.875 178.841C231.383 178.161 231.074 177.365 230.977 176.531C230.88 175.696 230.999 174.851 231.322 174.076C232.42 171.327 236.873 164.063 235.097 154.229L227.797 163.421Z" fill="#263238"/>
<path opacity="0.2" d="M206.3 184.721C206.3 184.721 199.518 189.317 193.101 189.888C193.665 183.916 194.761 178.006 196.376 172.228C197.197 171.766 198.113 171.497 199.054 171.443C203.819 171.532 205.559 176.003 205.559 176.003C206.075 178.88 206.323 181.799 206.3 184.721Z" fill="black"/>
<path d="M231.054 216.553L229.626 214.84C229.358 214.527 229.019 214.283 228.637 214.128C228.255 213.972 227.842 213.911 227.431 213.947L223.523 214.233C222.75 214.289 222.002 214.53 221.342 214.935C220.682 215.341 220.129 215.899 219.73 216.562L219.23 217.392C221.408 220.399 225.968 222.05 225.968 222.05L227.217 222.666C227.468 222.801 227.744 222.886 228.027 222.914C228.311 222.943 228.598 222.915 228.871 222.832C229.144 222.749 229.398 222.613 229.618 222.431C229.838 222.249 230.02 222.026 230.153 221.773L231.402 219.311C231.626 218.869 231.713 218.37 231.651 217.879C231.589 217.387 231.381 216.925 231.054 216.553Z" fill="#EEC1BB"/>
<path d="M203.578 175.53C203.469 181.15 203.872 186.769 204.783 192.316C205.117 194.09 205.549 195.845 206.077 197.572L205.684 196.796C207.745 199.946 210.762 202.864 213.394 205.719L217.802 210.271L222.264 214.848C222.657 215.244 222.89 215.772 222.917 216.329C222.944 216.886 222.764 217.433 222.412 217.866C222.059 218.298 221.559 218.585 221.008 218.67C220.457 218.756 219.893 218.634 219.427 218.329C217.579 217.16 215.857 215.928 214.072 214.679C208.629 210.583 203.141 206.755 198.902 201.293C195.207 193.11 194.306 184.017 194.619 175.129C195.145 169.194 203.748 169.632 203.676 175.584L203.578 175.53Z" fill="#EBC0BB"/>
<path d="M201.044 162.208C195.199 164.215 192.78 170.462 192.521 181.028C195.511 183.803 205.345 182.884 205.345 182.884C205.345 182.884 207.121 166.875 201.044 162.208Z" fill="#407BFF"/>
<path d="M264.028 224.763V227.556C264.028 228.279 263.135 228.574 262.457 228.574H206.139C205.416 228.574 204.542 228.279 204.542 227.556V224.736L264.028 224.763Z" fill="#263238"/>
<path opacity="0.4" d="M264.028 224.763V227.556C264.028 228.279 263.135 228.574 262.457 228.574H206.139C205.416 228.574 204.542 228.279 204.542 227.556V224.736L264.028 224.763Z" fill="white"/>
<path opacity="0.2" d="M264.028 224.763V227.556C264.028 228.279 263.135 228.574 262.457 228.574H225.316C224.593 228.574 223.737 228.279 223.737 227.556V224.736L264.028 224.763Z" fill="black"/>
<path d="M273.451 195.511L266.74 225.915C266.621 226.404 266.343 226.84 265.949 227.153C265.554 227.467 265.067 227.64 264.563 227.646H227.976C227.748 227.639 227.525 227.58 227.324 227.473C227.123 227.367 226.95 227.215 226.817 227.03C226.684 226.846 226.595 226.633 226.558 226.408C226.521 226.184 226.535 225.954 226.601 225.736L233.303 195.556C233.439 195.096 233.728 194.698 234.123 194.426C234.518 194.155 234.994 194.028 235.472 194.066H272.104C273.067 194.066 273.665 194.539 273.451 195.511Z" fill="#263238"/>
<path opacity="0.4" d="M273.451 195.511L266.74 225.914C266.621 226.404 266.343 226.84 265.948 227.153C265.554 227.467 265.067 227.64 264.563 227.646H229.189C228.961 227.64 228.737 227.582 228.535 227.476C228.333 227.37 228.158 227.218 228.024 227.034C227.89 226.849 227.801 226.635 227.763 226.41C227.725 226.185 227.74 225.954 227.806 225.736L234.508 195.556C234.644 195.095 234.935 194.695 235.331 194.423C235.728 194.152 236.206 194.025 236.685 194.065H272.068C273.067 194.065 273.665 194.538 273.451 195.511Z" fill="white"/>
<path opacity="0.2" d="M255.389 210.967C255.389 213.564 252.596 215.679 250.553 215.679C248.509 215.679 247.295 213.564 247.876 210.967C248.456 208.37 250.499 206.327 252.498 206.255C251.918 208.852 253.167 210.967 255.175 210.967H255.389Z" fill="black"/>
</svg>
