<svg width="420" height="359" viewBox="0 0 420 359" fill="none" xmlns="http://www.w3.org/2000/svg">
<rect x="14.9738" width="390" height="359" rx="9" fill="#BBB6DA"/>
<path d="M419.964 285.987H0V286.197H419.964V285.987Z" fill="#EBEBEB"/>
<path d="M377.884 299.503H350.065V299.713H377.884V299.503Z" fill="#EBEBEB"/>
<path d="M278.201 301.787H245.259V301.997H278.201V301.787Z" fill="#EBEBEB"/>
<path d="M349.225 291.708H301.333V291.918H349.225V291.708Z" fill="#EBEBEB"/>
<path d="M204.195 293.119H146.551V293.329H204.195V293.119Z" fill="#EBEBEB"/>
<path d="M216.987 293.119H211.67V293.329H216.987V293.119Z" fill="#EBEBEB"/>
<path d="M189.101 296.662H82.5902V296.872H189.101V296.662Z" fill="#EBEBEB"/>
<path d="M199.063 248.526H36.8813C35.6108 248.524 34.393 248.018 33.4954 247.119C32.5978 246.219 32.0937 245.001 32.0937 243.73V15.7486C32.1047 14.4854 32.6138 13.2775 33.5102 12.3874C34.4066 11.4973 35.618 10.9968 36.8813 10.9946H199.063C200.335 10.9946 201.555 11.4999 202.454 12.3993C203.354 13.2988 203.859 14.5186 203.859 15.7906V243.73C203.859 245.002 203.354 246.222 202.454 247.122C201.555 248.021 200.335 248.526 199.063 248.526ZM36.8813 11.1626C35.6665 11.1648 34.5021 11.649 33.6439 12.5088C32.7857 13.3686 32.3037 14.5338 32.3037 15.7486V243.73C32.3037 244.945 32.7857 246.11 33.6439 246.97C34.5021 247.83 35.6665 248.314 36.8813 248.316H199.063C200.279 248.314 201.444 247.83 202.303 246.971C203.163 246.111 203.647 244.946 203.649 243.73V15.7486C203.647 14.533 203.163 13.3678 202.303 12.5083C201.444 11.6487 200.279 11.1648 199.063 11.1626H36.8813Z" fill="#EBEBEB"/>
<path d="M380.748 248.526H218.558C217.286 248.524 216.068 248.018 215.169 247.119C214.27 246.22 213.764 245.002 213.762 243.73V15.7486C213.775 14.4846 214.286 13.2768 215.183 12.3869C216.081 11.497 217.294 10.9968 218.558 10.9946H380.748C382.009 10.999 383.219 11.5005 384.113 12.3904C385.008 13.2802 385.516 14.4868 385.527 15.7486V243.73C385.527 244.999 385.024 246.217 384.128 247.116C383.232 248.015 382.017 248.522 380.748 248.526ZM218.558 11.1626C217.342 11.1648 216.177 11.6487 215.317 12.5083C214.458 13.3678 213.974 14.533 213.972 15.7486V243.73C213.974 244.946 214.458 246.111 215.317 246.971C216.177 247.83 217.342 248.314 218.558 248.316H380.748C381.963 248.314 383.128 247.83 383.988 246.971C384.848 246.111 385.331 244.946 385.334 243.73V15.7486C385.331 14.533 384.848 13.3678 383.988 12.5083C383.128 11.6487 381.963 11.1648 380.748 11.1626H218.558Z" fill="#EBEBEB"/>
<path d="M244.142 170.33V32.7158L59.5846 32.7158V170.33H244.142Z" fill="#EBEBEB"/>
<path d="M245.259 170.33V32.7158H244.142V170.33H245.259Z" fill="#E0E0E0"/>
<path d="M68.7146 161.183L235.004 161.183L235.004 41.8372L68.7146 41.8372L68.7146 161.183Z" fill="#F5F5F5"/>
<path d="M190.781 167.583H220.363V126.175H190.781V167.583Z" fill="white"/>
<path d="M147.391 153.01H176.964L179.089 111.601H149.516L147.391 153.01Z" fill="white"/>
<path d="M128.87 167.583H158.452V126.175H128.87V167.583Z" fill="white"/>
<path d="M85.4795 153.01H115.062L117.187 111.601H87.6129L85.4795 153.01Z" fill="white"/>
<path d="M110.493 101.305L150.759 104.177L157.68 48.0195L117.405 45.147L110.493 101.305Z" fill="white"/>
<path d="M207.286 79.3313H236.86L238.993 37.9229H209.411L207.286 79.3313Z" fill="white"/>
<path d="M168.423 103.035L197.977 104.33L199.79 62.9614L170.236 61.6658L168.423 103.035Z" fill="white"/>
<path d="M64.8163 91.5249L94.3862 90.668L93.1867 49.2769L63.6168 50.1338L64.8163 91.5249Z" fill="white"/>
<path d="M282.728 154.883H357.868V44.3824L282.728 44.3824V154.883Z" fill="#E0E0E0"/>
<path d="M278.201 154.883H355.819V44.3824L278.201 44.3824V154.883Z" fill="#F5F5F5"/>
<path d="M284.702 53.0924V146.182H349.318V53.0924H284.702Z" fill="white"/>
<path d="M325.052 104.136V111.217C322.94 111.218 320.849 110.803 318.897 109.996C316.946 109.188 315.173 108.004 313.679 106.511C312.185 105.018 311 103.246 310.192 101.295C309.384 99.3438 308.967 97.2526 308.967 95.1407V88.0518C313.233 88.0518 317.325 89.7464 320.341 92.7628C323.357 95.7793 325.052 99.8705 325.052 104.136Z" fill="#F5F5F5"/>
<path d="M325.052 80.2305V87.3195C320.786 87.3195 316.695 85.6249 313.679 82.6084C310.662 79.592 308.967 75.5008 308.967 71.2349V64.1543C311.079 64.1532 313.171 64.5682 315.122 65.3756C317.074 66.183 318.847 67.367 320.341 68.8599C321.834 70.3529 323.019 72.1255 323.828 74.0765C324.636 76.0275 325.052 78.1186 325.052 80.2305Z" fill="#F5F5F5"/>
<path d="M325.052 128.03V135.119C320.786 135.119 316.695 133.425 313.679 130.408C310.662 127.392 308.967 123.301 308.967 119.035V111.946C313.233 111.946 317.325 113.64 320.341 116.657C323.357 119.673 325.052 123.765 325.052 128.03Z" fill="#F5F5F5"/>
<path d="M218.482 280.427H242.059V192.73H218.482V280.427Z" fill="#F0F0F0"/>
<path d="M76.3074 285.987H234.457V280.426H76.3074V285.987Z" fill="#F0F0F0"/>
<path d="M218.482 192.738H68.7229V280.435H218.482V192.738Z" fill="#F5F5F5"/>
<path d="M202.935 203.532H84.27V232.291H202.935V203.532Z" fill="#F0F0F0"/>
<path d="M202.935 240.875H84.2701V269.634H202.935V240.875Z" fill="#F0F0F0"/>
<path d="M125.813 233.24H161.392C162.352 233.24 163.131 232.462 163.131 231.502V231.031C163.131 230.071 162.352 229.293 161.392 229.293H125.813C124.853 229.293 124.074 230.071 124.074 231.031V231.502C124.074 232.462 124.853 233.24 125.813 233.24Z" fill="#F5F5F5"/>
<path d="M125.813 270.591H161.392C162.352 270.591 163.131 269.813 163.131 268.853V268.382C163.131 267.422 162.352 266.644 161.392 266.644H125.813C124.853 266.644 124.074 267.422 124.074 268.382V268.853C124.074 269.813 124.853 270.591 125.813 270.591Z" fill="#F5F5F5"/>
<path d="M321.76 264.367C321.818 244.049 322.322 216.34 325.732 206.311L330.402 204.413C330.402 204.413 329.252 206.295 326.732 237.464C324.355 266.568 324.095 261.369 324.271 264.342C324.271 264.754 323.7 265.098 322.977 265.081C322.297 265.064 321.76 264.754 321.76 264.367Z" fill="#E6E6E6"/>
<path d="M319.08 201.718C312.319 196.099 297.57 191.891 282.048 191.588C275.95 191.471 293.614 204.867 305.566 211.326C314.444 216.131 324.237 220.49 326.648 225.605C326.018 214.905 325.892 207.328 319.08 201.718Z" fill="#E6E6E6"/>
<path d="M320.088 229.621C315.376 225.707 305.095 222.775 294.277 222.566C290.027 222.482 302.34 231.805 310.664 236.324C316.846 239.683 323.675 242.707 325.354 246.293C324.926 238.818 324.809 233.577 320.088 229.621Z" fill="#E6E6E6"/>
<path d="M332.973 215.938C340.717 209.714 357.331 205.145 374.767 204.951C381.604 204.884 366.133 218.617 349.763 224.95C338.407 229.377 326.648 236.936 323.801 242.698C324.809 230.687 325.228 222.195 332.973 215.938Z" fill="#E6E6E6"/>
<path d="M328.748 196.325C333.829 191.126 345.252 186.246 357.448 184.431C362.236 183.717 355.869 193.133 341.078 200.986C333.275 205.119 325.472 211.905 323.792 216.281C323.834 207.613 323.658 201.515 328.748 196.325Z" fill="#E6E6E6"/>
<path d="M310.009 260.949L311.244 284.945C311.259 285.226 311.38 285.489 311.583 285.683C311.786 285.876 312.055 285.985 312.336 285.987H339.465C339.746 285.985 340.015 285.876 340.218 285.683C340.421 285.489 340.542 285.226 340.557 284.945L341.792 260.949H310.009Z" fill="#F0F0F0"/>
<path d="M343.85 266.039H307.951L306.927 256.725H344.883L343.85 266.039Z" fill="#F0F0F0"/>
<path d="M209.982 332.318C299.924 332.318 372.836 328.061 372.836 322.81C372.836 317.559 299.924 313.302 209.982 313.302C120.041 313.302 47.1285 317.559 47.1285 322.81C47.1285 328.061 120.041 332.318 209.982 332.318Z" fill="#F5F5F5"/>
<path d="M320.323 33.6729L319.525 33.4041C320.02 31.92 320.273 30.3657 320.273 28.8013H321.113C321.111 30.4568 320.844 32.1015 320.323 33.6729Z" fill="#B0A7E4"/>
<path d="M319.66 24.5848C318.989 22.3674 317.811 20.3368 316.219 18.6543C314.627 16.9717 312.665 15.6836 310.488 14.8921L310.773 14.1025C313.074 14.9377 315.148 16.2992 316.83 18.0784C318.511 19.8575 319.753 22.0051 320.457 24.3497L319.66 24.5848Z" fill="#B0A7E4"/>
<path d="M318.173 28.8095C318.175 26.4831 317.538 24.2007 316.332 22.2115C315.125 20.2224 313.395 18.6029 311.331 17.5298C309.267 16.4567 306.947 15.9712 304.626 16.1264C302.305 16.2816 300.071 17.0715 298.168 18.4098C296.265 19.7481 294.766 21.5835 293.835 23.7155C292.904 25.8476 292.576 28.1945 292.888 30.5C293.2 32.8055 294.139 34.981 295.603 36.7892C297.067 38.5973 299 39.9686 301.19 40.7533L309.908 44.113L308.253 41.2321C311.074 40.5993 313.594 39.0235 315.397 36.7649C317.201 34.5062 318.18 31.6999 318.173 28.8095Z" fill="#B0A7E4"/>
<path d="M285.861 36.9308C285.86 35.226 286.326 33.5536 287.211 32.0961C288.095 30.6385 289.362 29.4518 290.875 28.6655C292.387 27.8791 294.087 27.5233 295.788 27.6369C297.489 27.7505 299.126 28.3291 300.52 29.3096C301.915 30.2901 303.013 31.6349 303.696 33.197C304.378 34.7592 304.618 36.4788 304.39 38.1682C304.162 39.8577 303.474 41.4519 302.402 42.7771C301.329 44.1023 299.914 45.1074 298.309 45.6828L291.917 48.2026L293.135 46.0104C291.073 45.5457 289.23 44.3941 287.908 42.7443C286.586 41.0946 285.865 39.0446 285.861 36.9308Z" fill="#263238"/>
<path d="M335.333 64.2544C331.813 67.3621 324.338 69.6635 320.038 69.294C317.845 83.388 329.63 94.6094 329.63 94.6094C329.63 94.6094 344.69 88.4359 347.755 74.5015C343.614 73.292 337.483 68.4288 335.333 64.2544Z" fill="#B0A7E4"/>
<path opacity="0.3" d="M321.902 71.3852C321.239 81.1283 327.622 89.2924 330.108 92.0726C333.468 90.3928 342.338 85.0928 345.227 75.778C341.13 73.7889 337.551 70.8764 334.77 67.2695C330.857 69.6192 326.452 71.0281 321.902 71.3852Z" fill="white"/>
<path d="M178.527 25.7189L190.017 13.5063L205.236 20.5197L178.527 25.7189Z" fill="#B0A7E4"/>
<path d="M205.241 20.525L178.528 25.7223C177.303 25.9606 176.504 27.1468 176.742 28.3716L179.618 43.1543C179.856 44.3792 181.042 45.179 182.267 44.9407L208.98 39.7434C210.205 39.5051 211.005 38.3189 210.766 37.0941L207.89 22.3113C207.652 21.0865 206.466 20.2867 205.241 20.525Z" fill="#B0A7E4"/>
<path opacity="0.4" d="M178.527 25.7197L193.754 32.7247L205.236 20.5205L178.527 25.7197Z" fill="black"/>
<path d="M178.804 16.4037L182.625 27.5999L193.754 32.7235L202.725 23.1903L198.147 9.79346L178.804 16.4037Z" fill="#B0A7E4"/>
<g opacity="0.7">
<path d="M178.804 16.4037L182.625 27.5999L193.754 32.7235L202.725 23.1903L198.147 9.79346L178.804 16.4037Z" fill="white"/>
</g>
<path d="M177.065 64.9934L175.553 64.9094C175.24 64.4225 174.877 63.9693 174.47 63.5571L174.722 62.0621L171.018 60.021L169.892 61.0289C169.323 60.9098 168.743 60.8451 168.162 60.8358L167.322 59.6011L163.257 60.777L163.173 62.2972C162.681 62.6081 162.225 62.9714 161.812 63.3808L160.325 63.1204L158.284 66.8329L159.284 67.95C159.164 68.522 159.099 69.1042 159.091 69.6886L157.864 70.5285L159.04 74.5938L160.544 74.6778C160.861 75.165 161.223 75.6207 161.627 76.0385L161.375 77.5251L165.088 79.5662L166.205 78.5582C166.777 78.6778 167.359 78.7425 167.944 78.7514L168.783 79.9861L172.849 78.8102L172.924 77.2984C173.41 76.9766 173.866 76.6111 174.285 76.2064L175.772 76.4584L177.813 72.7543L176.796 71.6288C176.92 71.077 176.987 70.5143 176.998 69.949L178.233 69.1091L177.065 64.9934ZM169.203 73.8463C168.406 74.0756 167.558 74.0634 166.767 73.8112C165.976 73.5589 165.278 73.0779 164.76 72.429C164.242 71.78 163.929 70.9922 163.858 70.1651C163.788 69.3379 163.965 68.5085 164.366 67.7817C164.767 67.0548 165.374 66.4631 166.111 66.0812C166.848 65.6993 167.682 65.5445 168.507 65.6362C169.332 65.7279 170.111 66.062 170.747 66.5964C171.382 67.1308 171.844 67.8415 172.076 68.6387C172.23 69.1692 172.278 69.725 172.217 70.2741C172.156 70.8231 171.987 71.3548 171.72 71.8385C171.453 72.3223 171.094 72.7487 170.662 73.0932C170.23 73.4377 169.734 73.6936 169.203 73.8463Z" fill="#B0A7E4"/>
<path d="M157.209 62.8352L156.285 62.7848C156.096 62.4814 155.873 62.1997 155.622 61.9449L155.781 61.0294L153.514 59.7779L152.816 60.3994C152.472 60.3225 152.12 60.2831 151.766 60.2818L151.229 59.5259L148.709 60.2482L148.659 61.1721C148.355 61.3619 148.074 61.5844 147.819 61.8357L146.903 61.6761L145.652 63.9439L146.265 64.6326C146.195 64.9842 146.156 65.3411 146.147 65.6993L145.4 66.2285L146.114 68.7483L147.038 68.7987C147.236 69.0984 147.461 69.3796 147.71 69.6386L147.55 70.5457L149.818 71.7972L150.507 71.1841C150.858 71.2532 151.215 71.2925 151.573 71.3017L152.102 72.0576L154.622 71.3353L154.673 70.4113C154.972 70.2162 155.253 69.9941 155.513 69.7478L156.42 69.899L157.671 67.6312L157.05 66.9424C157.126 66.5946 157.168 66.2401 157.176 65.8841L157.923 65.3466L157.209 62.8352ZM152.867 69.7898C152.068 70.0225 151.219 70.0128 150.426 69.762C149.633 69.5113 148.932 69.0307 148.413 68.3813C147.893 67.7318 147.578 66.9427 147.507 66.114C147.437 65.2853 147.614 64.4543 148.016 63.7264C148.419 62.9985 149.028 62.4064 149.767 62.0252C150.506 61.6441 151.342 61.491 152.168 61.5853C152.995 61.6797 153.774 62.0173 154.409 62.5553C155.043 63.0933 155.503 63.8076 155.731 64.6074C156.035 65.6744 155.904 66.8183 155.368 67.7893C154.831 68.7602 153.932 69.4794 152.867 69.7898Z" fill="#263238"/>
<path d="M246.813 45.7511C242.915 45.0204 241.261 47.431 241.387 50.8747C241.513 54.3184 238.817 59.274 242.227 59.9375C245.637 60.6011 251.021 46.5323 246.813 45.7511Z" fill="#263238"/>
<path d="M232.458 221.817C244.133 188.472 252.978 145.098 252.978 145.098L221.002 144.577C221.002 144.577 216.08 199.382 213.342 222.657C210.477 246.855 200.684 300.535 200.684 300.535L214.719 304.499C214.719 304.499 230.484 251.928 232.458 221.817Z" fill="#263238"/>
<path opacity="0.2" d="M238.539 169.187C238.539 169.187 237.607 194.796 236.465 209.612C239.472 199.995 242.202 190.109 244.537 181.055L238.539 169.187Z" fill="black"/>
<path d="M210.066 314.99L208.865 321.827C208.829 321.996 208.76 322.156 208.661 322.297C208.562 322.438 208.435 322.558 208.288 322.648C208.14 322.739 207.977 322.798 207.806 322.823C207.635 322.848 207.461 322.838 207.294 322.793C205.219 322.205 204.363 321.6 200.759 320.525C196.56 319.257 192.805 318.786 187.867 317.308C184.876 316.409 186.187 312.764 188.706 312.789C194.032 312.848 197.047 310.975 199.827 310.169C201.163 307.968 202.943 299.695 202.943 299.695L214.249 303.735C214.249 303.735 210.948 311.487 210.066 314.99Z" fill="#B0A7E4"/>
<path d="M200.743 302.584L213.585 306.431C213.845 306.505 214.124 306.483 214.369 306.369C214.614 306.255 214.81 306.056 214.921 305.809L216.819 301.668C216.885 301.531 216.921 301.382 216.925 301.229C216.929 301.077 216.9 300.926 216.84 300.786C216.78 300.646 216.691 300.52 216.579 300.418C216.467 300.315 216.334 300.237 216.189 300.19L202.271 295.78C202.118 295.735 201.957 295.723 201.798 295.745C201.64 295.766 201.487 295.82 201.351 295.904C201.215 295.988 201.098 296.1 201.007 296.232C200.917 296.364 200.856 296.513 200.827 296.671L199.987 301.374C199.941 301.634 199.993 301.901 200.133 302.124C200.272 302.347 200.49 302.511 200.743 302.584Z" fill="#263238"/>
<path opacity="0.1" d="M200.743 302.584L213.585 306.431C213.845 306.505 214.124 306.483 214.369 306.369C214.614 306.255 214.81 306.056 214.921 305.809L216.819 301.668C216.885 301.531 216.921 301.382 216.925 301.229C216.929 301.077 216.9 300.926 216.84 300.786C216.78 300.646 216.691 300.52 216.579 300.418C216.467 300.315 216.334 300.237 216.189 300.19L202.271 295.78C202.118 295.735 201.957 295.723 201.798 295.745C201.64 295.766 201.487 295.82 201.351 295.904C201.215 295.988 201.098 296.1 201.007 296.232C200.917 296.364 200.856 296.513 200.827 296.671L199.987 301.374C199.941 301.634 199.993 301.901 200.133 302.124C200.272 302.347 200.49 302.511 200.743 302.584Z" fill="white"/>
<path d="M268.138 320.432L266.828 314.552C266.425 310.974 266.694 302.684 266.694 302.684L255.405 302.97C255.405 302.97 256.245 310.529 256.203 313.192C254.036 314.712 251.861 316.837 247.165 318.231C244.956 318.878 245.166 322.708 248.089 322.758C252.936 322.842 256.371 322.28 260.504 322.355C264.031 322.414 264.443 322.758 266.467 322.758C266.746 322.756 267.021 322.689 267.269 322.56C267.517 322.432 267.732 322.247 267.894 322.02C268.057 321.793 268.164 321.531 268.207 321.255C268.249 320.979 268.226 320.697 268.138 320.432Z" fill="#B0A7E4"/>
<path d="M264.182 219.818C263.208 185.323 267.08 165.475 261.999 145.266L232.912 144.83C232.912 144.83 240.698 199.559 244.52 222.355C248.341 245.151 253.759 302.711 253.759 302.711L268.038 302.887C268.038 302.887 269.692 246.511 264.182 219.818Z" fill="#263238"/>
<path d="M254.078 305.272L267.584 305.482C267.875 305.494 268.159 305.396 268.38 305.208C268.602 305.019 268.743 304.754 268.777 304.465L269.239 299.997C269.256 299.853 269.244 299.706 269.202 299.567C269.159 299.429 269.088 299.3 268.993 299.19C268.899 299.08 268.782 298.991 268.65 298.929C268.519 298.867 268.376 298.833 268.231 298.829L253.524 298.376C253.358 298.372 253.193 298.404 253.041 298.47C252.889 298.536 252.753 298.634 252.643 298.758C252.532 298.882 252.45 299.029 252.402 299.187C252.354 299.346 252.342 299.513 252.365 299.678L253.095 304.381C253.13 304.621 253.248 304.841 253.427 305.003C253.606 305.166 253.836 305.261 254.078 305.272Z" fill="#263238"/>
<path opacity="0.1" d="M254.078 305.272L267.584 305.482C267.875 305.494 268.159 305.396 268.38 305.208C268.602 305.019 268.743 304.754 268.777 304.465L269.239 299.997C269.256 299.853 269.244 299.706 269.202 299.567C269.159 299.429 269.088 299.3 268.993 299.19C268.899 299.08 268.782 298.991 268.65 298.929C268.519 298.867 268.376 298.833 268.231 298.829L253.524 298.376C253.358 298.372 253.193 298.404 253.041 298.47C252.889 298.536 252.753 298.634 252.643 298.758C252.532 298.882 252.45 299.029 252.402 299.187C252.354 299.346 252.342 299.513 252.365 299.678L253.095 304.381C253.13 304.621 253.248 304.841 253.427 305.003C253.606 305.166 253.836 305.261 254.078 305.272Z" fill="white"/>
<path d="M231.081 81.5901H230.98L217.356 80.557C213.526 80.2434 209.716 79.8795 205.925 79.4651C205.448 78.6235 205.021 77.754 204.648 76.8613C203.889 75.0285 203.258 73.1453 202.758 71.2254C202.229 69.2516 201.793 67.2021 201.423 65.1275C201.053 63.0529 200.743 60.9279 200.482 58.8701V58.7021C200.392 58.0171 200.06 57.3867 199.547 56.924C199.034 56.4613 198.373 56.1966 197.682 56.1774C196.991 56.1582 196.316 56.3857 195.778 56.8191C195.24 57.2526 194.874 57.8636 194.746 58.5425C194.342 60.8719 194.1 63.2266 194.023 65.5895C193.922 67.959 193.975 70.3327 194.183 72.6953C194.4 75.1519 194.827 77.5853 195.46 79.9691C196.143 82.5508 197.183 85.0245 198.55 87.3184C198.888 87.8719 199.335 88.3509 199.863 88.7263C200.392 89.1018 200.991 89.3658 201.625 89.5022L202.036 89.5862C204.388 90.0902 206.748 90.5773 209.108 90.9553C211.469 91.3333 213.829 91.7196 216.197 92.022C218.566 92.3244 220.935 92.5764 223.312 92.7864C225.689 92.9963 228.032 93.1475 230.51 93.2147C232.011 93.2274 233.459 92.6595 234.552 91.6297C235.644 90.5999 236.296 89.1879 236.372 87.6885C236.448 86.1891 235.942 84.7184 234.959 83.5835C233.976 82.4487 232.593 81.7375 231.098 81.5985L231.081 81.5901Z" fill="#FF8B7B"/>
<path d="M239.648 82.3882C232.286 80.9909 224.839 80.0874 217.356 79.6836C215.901 85.6442 216.014 91.88 217.684 97.784C217.684 97.784 221.002 99.4639 230.417 98.3048C240.942 96.9441 248.509 84.194 239.648 82.3882Z" fill="#B0A7E4"/>
<path d="M264.191 85.5042C256.304 83.6333 248.246 82.5723 240.144 82.3377C231.375 82.1613 224.513 86.4953 222.841 95.113C219.55 112.364 218.638 129.984 220.128 147.483C220.195 150.599 259.706 150.33 262.965 147.483C264.384 136.353 262.822 124.426 270.121 99.5142C271.616 94.3907 269.331 86.7305 264.191 85.5042Z" fill="#B0A7E4"/>
<path d="M240.539 94.1471C240.371 94.8695 239.925 95.3818 239.539 95.2894C239.153 95.1971 238.985 94.5419 239.153 93.8196C239.321 93.0972 239.766 92.5849 240.152 92.6773C240.539 92.7697 240.707 93.4584 240.539 94.1471Z" fill="white"/>
<path d="M308.388 73.6198C308.658 71.1294 308.751 68.6228 308.665 66.1192C308.635 65.3883 308.345 64.6922 307.847 64.1558C307.35 63.6195 306.677 63.2782 305.951 63.1932C305.224 63.1082 304.491 63.2851 303.883 63.6921C303.275 64.0991 302.833 64.7095 302.634 65.4137L302.584 65.5901C302.004 67.6563 301.366 69.8989 300.652 71.9987C299.938 74.0986 299.182 76.1984 298.317 78.1806C297.504 80.1193 296.558 81.9996 295.487 83.8081C294.957 84.6812 294.376 85.5226 293.748 86.3279C289.716 86.1879 285.668 85.9891 281.603 85.7316L267.173 84.7405H267.097C265.471 84.5901 263.852 85.0919 262.595 86.1354C261.339 87.179 260.549 88.6788 260.399 90.305C260.248 91.9311 260.75 93.5504 261.794 94.8066C262.837 96.0628 264.337 96.853 265.963 97.0034C268.567 97.3142 271.003 97.4989 273.565 97.6585C276.126 97.8181 278.604 97.9021 281.124 97.9357C283.644 97.9693 286.163 97.9357 288.683 97.9357C291.203 97.9357 293.765 97.7425 296.31 97.5745H296.763C297.447 97.5277 298.114 97.3419 298.723 97.0285C299.333 96.7151 299.872 96.2807 300.308 95.7519C302.089 93.5582 303.551 91.1234 304.65 88.5201C305.681 86.1235 306.501 83.642 307.103 81.1036C307.696 78.6401 308.125 76.14 308.388 73.6198Z" fill="#FF8B7B"/>
<path d="M258.009 84.1951C265.933 83.8527 273.871 84.0407 281.771 84.7579C282.394 91.2242 281.329 97.7415 278.68 103.673C278.68 103.673 274.942 104.941 265.241 102.279C254.431 99.297 248.442 84.7747 258.009 84.1951Z" fill="#B0A7E4"/>
<path d="M307.178 69.7897L313.763 64.9433L306.12 58.7446C306.12 58.7446 300.694 63.9102 302.869 67.2699L307.178 69.7897Z" fill="#FF8B7B"/>
<path d="M315.2 56.3509L312.168 54.671C311.583 54.3432 310.898 54.24 310.243 54.3807C309.587 54.5214 309.005 54.8964 308.606 55.4354L306.087 58.7279L313.73 64.9265L316.25 60.3573C316.637 59.6856 316.743 58.8885 316.547 58.1387C316.35 57.3888 315.866 56.7466 315.2 56.3509Z" fill="#FF8B7B"/>
<path d="M315.888 105.108C315.612 104.39 315.063 103.811 314.361 103.497C313.66 103.182 312.862 103.157 312.142 103.428H312.042C310.059 104.176 307.968 104.974 305.935 105.688C303.903 106.402 301.845 107.115 299.804 107.737C297.763 108.359 295.73 108.905 293.731 109.417C292.597 109.669 291.472 109.879 290.371 110.038C287.572 107.446 284.772 104.797 281.972 102.093L272.254 92.4671L272.195 92.4083C271.106 91.3766 269.661 90.8051 268.161 90.8131C266.661 90.821 265.222 91.4079 264.144 92.4511C263.066 93.4944 262.433 94.9135 262.376 96.4126C262.319 97.9116 262.843 99.3747 263.838 100.497C265.518 102.319 267.198 103.974 268.878 105.646C270.558 107.317 272.33 108.93 274.127 110.509C275.925 112.088 277.722 113.642 279.578 115.154C281.435 116.665 283.341 118.144 285.265 119.588L285.634 119.874C286.15 120.254 286.738 120.525 287.362 120.669C287.986 120.814 288.633 120.829 289.263 120.714C291.737 120.25 294.167 119.579 296.528 118.706C298.768 117.871 300.96 116.915 303.096 115.842C305.196 114.778 307.232 113.63 309.203 112.399C311.193 111.174 313.119 109.848 314.973 108.426C315.458 108.042 315.808 107.513 315.973 106.916C316.137 106.32 316.108 105.687 315.888 105.108Z" fill="#FF8B7B"/>
<path d="M266.686 86.4883C272.571 91.1232 278.141 96.146 283.358 101.523C279.821 106.535 275.047 110.546 269.499 113.164C269.499 113.164 266.039 111.77 260.747 103.925C254.826 95.0975 259.471 81.0119 266.686 86.4883Z" fill="#B0A7E4"/>
<path d="M314.654 108.604L321.986 106.084L316.544 98.5244C316.544 98.5244 310.32 101.884 311.504 105.538L314.654 108.604Z" fill="#FF8B7B"/>
<path d="M325.229 98.7089L322.885 96.4075C322.434 95.9648 321.837 95.7018 321.207 95.6678C320.576 95.6338 319.954 95.8311 319.458 96.2227L316.376 98.6165L321.961 106.058L325.245 102.615C325.755 102.091 326.038 101.389 326.035 100.658C326.032 99.928 325.742 99.228 325.229 98.7089Z" fill="#FF8B7B"/>
<path d="M241.899 89.6539C243.077 91.07 243.727 92.8513 243.739 94.6934C251.541 93.358 258.017 89.4859 258.857 84.3119C257.539 83.0688 256.665 83.2872 256.665 83.2872C256.665 83.2872 251.298 87.9152 241.899 89.6539Z" fill="white"/>
<path d="M241.899 89.6537C239.797 90.0168 237.879 91.0793 236.456 92.669C233.458 89.7545 237.364 83.5054 239.757 82.3295C240.805 82.0278 241.904 81.9506 242.983 82.1027C242.983 82.1027 239.665 83.875 241.899 89.6537Z" fill="white"/>
<path d="M258.026 65.1206C256.522 69.8914 254.624 78.2403 256.539 83.0363C256.771 83.6138 256.802 84.2527 256.627 84.85C256.452 85.4472 256.081 85.9681 255.573 86.3288C252.035 89.0164 247.629 90.3026 243.201 89.9405C238.212 89.5289 237.901 86.9419 238.901 84.7497C239.165 84.197 239.55 83.7104 240.026 83.3253C240.503 82.9402 241.06 82.6664 241.656 82.5239C246.695 81.2892 246.922 77.0392 246.368 72.9403L258.026 65.1206Z" fill="#FF8B7B"/>
<path opacity="0.2" d="M253.272 68.3115L246.376 72.9395C246.527 73.9767 246.592 75.0246 246.569 76.0725C248.98 76.0137 252.541 73.7879 253.07 71.3353C253.322 70.3481 253.39 69.3233 253.272 68.3115Z" fill="black"/>
<path d="M262.419 58.0314C260.025 65.3136 258.992 69.6896 254.28 72.5789C247.191 76.9298 238.993 71.3526 239.161 63.5581C239.329 56.5363 243.21 45.8188 251.189 44.6177C252.931 44.3316 254.718 44.5043 256.373 45.1189C258.028 45.7335 259.495 46.7687 260.629 48.1225C261.762 49.4764 262.523 51.1021 262.837 52.8397C263.151 54.5772 263.007 56.3665 262.419 58.0314Z" fill="#FF8B7B"/>
<path d="M241.899 59.4748C241.565 59.473 241.233 59.4162 240.916 59.3069C240.367 59.0828 239.882 58.7263 239.504 58.269C239.125 57.8117 238.866 57.268 238.749 56.6863C238.44 55.2665 238.533 53.7885 239.018 52.4188C239.504 51.049 240.362 49.8421 241.496 48.9337C241.939 48.5301 242.483 48.2541 243.07 48.1354C243.657 48.0167 244.266 48.0597 244.831 48.2597C245.395 48.4598 245.895 48.8094 246.277 49.2713C246.659 49.7332 246.908 50.29 246.998 50.8824C247.336 52.3024 247.242 53.7912 246.729 55.1576C245.847 57.7362 243.831 59.4748 241.899 59.4748ZM243.831 48.5054C243.071 48.5288 242.339 48.7936 241.74 49.2613C240.667 50.1183 239.855 51.2585 239.396 52.5529C238.938 53.8472 238.85 55.2441 239.144 56.5855C239.244 57.1022 239.47 57.5861 239.803 57.9937C240.136 58.4013 240.564 58.7198 241.051 58.9205C242.966 59.6008 245.343 57.8538 246.351 55.0148C246.832 53.7288 246.923 52.329 246.611 50.9916C246.509 50.4738 246.28 49.9893 245.946 49.5806C245.612 49.1719 245.183 48.8517 244.696 48.6482C244.429 48.5542 244.148 48.5059 243.865 48.5054H243.831Z" fill="#263238"/>
<path d="M250.492 62.5076C250.157 62.5105 249.824 62.4536 249.509 62.3396C247.384 61.5837 246.527 58.4927 247.611 55.4522C248.069 54.0685 248.932 52.8542 250.088 51.9665C250.537 51.5793 251.08 51.3177 251.663 51.2082C252.245 51.0987 252.846 51.1453 253.405 51.3432C253.964 51.5411 254.46 51.8832 254.844 52.3349C255.228 52.7866 255.485 53.3318 255.59 53.9151C255.928 55.3351 255.835 56.8239 255.321 58.1904C254.406 60.7773 252.381 62.5076 250.492 62.5076ZM252.423 51.5381C251.662 51.5666 250.928 51.8307 250.324 52.2941C249.236 53.1359 248.423 54.2819 247.989 55.5866C246.989 58.4171 247.728 61.2813 249.668 61.9616C251.609 62.642 253.961 60.8865 254.968 58.056C255.451 56.767 255.539 55.3634 255.22 54.0243C255.119 53.5072 254.893 53.0229 254.56 52.6142C254.228 52.2055 253.8 51.8849 253.314 51.6809C253.027 51.5846 252.726 51.5363 252.423 51.5381Z" fill="#263238"/>
<path d="M247.779 55.721C247.722 55.7184 247.668 55.6944 247.628 55.6538C247.513 55.5019 247.357 55.3863 247.178 55.3207C246.999 55.2552 246.805 55.2425 246.62 55.2842C246.568 55.2977 246.514 55.2914 246.467 55.2664C246.421 55.2415 246.385 55.1999 246.368 55.1498C246.351 55.0985 246.355 55.0429 246.379 54.9945C246.402 54.946 246.443 54.9084 246.494 54.8895C246.757 54.8268 247.032 54.8401 247.288 54.9278C247.544 55.0156 247.769 55.1741 247.938 55.385C247.974 55.4238 247.994 55.4748 247.994 55.5278C247.994 55.5807 247.974 55.6318 247.938 55.6706C247.917 55.6904 247.892 55.7052 247.864 55.714C247.837 55.7227 247.807 55.7251 247.779 55.721Z" fill="#263238"/>
<path d="M260.974 62.1546C260.936 62.1663 260.895 62.1663 260.856 62.1546C256.589 59.072 254.977 58.7109 254.977 58.7109C254.923 58.7009 254.876 58.67 254.845 58.6251C254.815 58.5802 254.803 58.525 254.813 58.4715C254.823 58.418 254.854 58.3707 254.899 58.34C254.944 58.3093 254.999 58.2977 255.052 58.3077C255.12 58.3077 256.732 58.6605 261.108 61.827C261.152 61.859 261.181 61.9065 261.191 61.9597C261.2 62.0129 261.189 62.0676 261.159 62.1126C261.133 62.133 261.103 62.1474 261.071 62.1547C261.039 62.1619 261.006 62.1619 260.974 62.1546Z" fill="#263238"/>
<path d="M257.555 64.2044C254.7 61.5418 257.455 58.5685 259.235 57.485C261.192 56.2755 258.244 54.8728 260.646 51.933C250.903 52.1682 252.986 47.6578 247.846 48.187C245.041 48.4725 242.235 45.9948 242.588 42.0387C243.252 34.5633 253.944 32.8751 255.64 35.6804C251.617 36.3944 252.465 38.8638 254.229 39.0402C258.815 39.4181 257.933 41.7531 260.369 43.9453C263.83 47.0531 268.088 44.3653 267.551 50.8579C274.354 52.5378 270.583 60.0971 266.266 62.113C263.484 63.2458 260.548 63.951 257.555 64.2044Z" fill="#263238"/>
<path d="M265.207 50.732C265.891 50.7406 266.569 50.6029 267.195 50.328C267.821 50.0532 268.381 49.6477 268.838 49.1386C269.295 48.6294 269.637 48.0286 269.842 47.3763C270.048 46.724 270.111 46.0353 270.028 45.3564C272.582 50.144 269.482 51.6475 265.207 50.732Z" fill="#263238"/>
<path d="M263.166 65.9001C261.885 67.2165 260.161 68.0123 258.328 68.1343C256.035 68.2183 255.758 65.9001 257.127 63.9346C258.362 62.1372 261.05 59.9282 263.007 60.7933C264.964 61.6584 264.829 64.2286 263.166 65.9001Z" fill="#FF8B7B"/>
<path d="M262.956 66.8166C261.847 67.9169 260.243 68.1184 259.386 67.2533C258.53 66.3882 258.74 64.8007 259.857 63.692C260.974 62.5833 262.57 62.3817 263.426 63.2469C264.283 64.112 264.073 65.7078 262.956 66.8166Z" fill="#263238"/>
<path d="M245.838 69.4712C245.614 69.3068 245.441 69.0828 245.337 68.8246C245.234 68.5664 245.205 68.2844 245.254 68.0106C245.303 67.7369 245.428 67.4823 245.614 67.276C245.8 67.0696 246.041 66.9196 246.308 66.843C246.576 66.7665 246.859 66.7665 247.127 66.843C247.394 66.9195 247.634 67.0695 247.821 67.2759C248.007 67.4823 248.132 67.7368 248.181 68.0106C248.23 68.2843 248.201 68.5663 248.098 68.8245C247.881 69.2063 247.522 69.4879 247.1 69.6087C246.678 69.7296 246.225 69.6803 245.838 69.4712Z" fill="#263238"/>
<path d="M250.979 68.9916C249.533 69.0037 248.091 68.8543 246.678 68.5465C246.623 68.5338 246.571 68.5104 246.525 68.4776C246.479 68.4447 246.44 68.4031 246.41 68.3552C246.38 68.3072 246.359 68.2538 246.35 68.198C246.341 68.1422 246.342 68.0851 246.355 68.0299C246.368 67.9748 246.391 67.9227 246.424 67.8766C246.457 67.8305 246.498 67.7913 246.546 67.7613C246.594 67.7312 246.648 67.7109 246.703 67.7016C246.759 67.6922 246.816 67.6939 246.872 67.7066C250.996 68.6893 257.665 68.0341 260.075 65.7243C260.114 65.685 260.161 65.6537 260.212 65.6324C260.263 65.6111 260.318 65.6001 260.373 65.6001C260.429 65.6001 260.484 65.6111 260.535 65.6324C260.586 65.6537 260.632 65.685 260.672 65.7243C260.711 65.7626 260.742 65.8084 260.763 65.8589C260.784 65.9093 260.795 65.9635 260.795 66.0183C260.795 66.0731 260.784 66.1273 260.763 66.1777C260.742 66.2282 260.711 66.274 260.672 66.3123C258.815 68.1097 254.742 68.9916 250.979 68.9916Z" fill="#263238"/>
<path d="M250.802 57.1916C250.601 57.7796 250.13 58.1576 249.744 58.0316C249.358 57.9056 249.215 57.3344 249.416 56.7465C249.618 56.1585 250.097 55.7806 250.475 55.9066C250.853 56.0325 251.004 56.5617 250.802 57.1916Z" fill="#263238"/>
<path d="M243.579 54.6706C243.377 55.2586 242.907 55.6366 242.521 55.5106C242.134 55.3846 241.992 54.8134 242.193 54.2255C242.395 53.6375 242.873 53.2596 243.251 53.3856C243.629 53.5115 243.814 54.0827 243.579 54.6706Z" fill="#263238"/>
<path d="M246.225 56.6289C244.411 57.5711 242.652 58.6171 240.959 59.7618C241.379 61.1813 243.588 61.6853 243.588 61.6853L246.225 56.6289Z" fill="#FF5652"/>
<path d="M244.419 64.3039C245.082 64.5177 245.782 64.5951 246.477 64.5316C247.171 64.4681 247.845 64.265 248.459 63.9344C248.501 63.9098 248.532 63.8695 248.545 63.8222C248.557 63.775 248.55 63.7247 248.526 63.6824C248.5 63.6415 248.459 63.6125 248.412 63.6015C248.365 63.5905 248.315 63.5984 248.274 63.6236C247.591 63.981 246.834 64.1726 246.064 64.1828C245.293 64.193 244.531 64.0216 243.839 63.6824C243.796 63.6619 243.746 63.6592 243.7 63.6749C243.655 63.6906 243.617 63.7234 243.596 63.7664C243.584 63.7872 243.577 63.8102 243.574 63.8339C243.572 63.8576 243.574 63.8816 243.581 63.9043C243.588 63.9271 243.6 63.9482 243.616 63.9663C243.631 63.9845 243.65 63.9993 243.671 64.0099C243.914 64.1232 244.164 64.2214 244.419 64.3039Z" fill="#263238"/>
<path d="M254.33 56.1399C254.391 56.1568 254.454 56.1568 254.515 56.1399C254.561 56.1257 254.604 56.1023 254.641 56.0712C254.678 56.04 254.708 56.0018 254.73 55.9587C254.752 55.9156 254.765 55.8686 254.769 55.8204C254.772 55.7721 254.766 55.7237 254.75 55.678C254.584 55.1312 254.287 54.6333 253.884 54.2277C253.482 53.8222 252.986 53.5213 252.44 53.3514C252.345 53.3283 252.244 53.3434 252.159 53.3936C252.074 53.4438 252.012 53.5251 251.987 53.6202C251.964 53.7126 251.978 53.8103 252.027 53.8921C252.076 53.9739 252.155 54.0331 252.247 54.0569C252.678 54.1975 253.068 54.4406 253.384 54.7655C253.7 55.0903 253.933 55.487 254.061 55.9216C254.084 55.9776 254.121 56.0269 254.168 56.0651C254.215 56.1032 254.271 56.129 254.33 56.1399Z" fill="#263238"/>
<path d="M242.218 51.412C242.271 51.4407 242.33 51.4557 242.391 51.4557C242.451 51.4557 242.51 51.4407 242.563 51.412C242.959 51.1824 243.404 51.0504 243.861 51.027C244.318 51.0037 244.774 51.0896 245.192 51.2777C245.278 51.3225 245.378 51.3317 245.47 51.3034C245.563 51.2752 245.641 51.2116 245.687 51.1265C245.712 51.0861 245.729 51.0411 245.735 50.9941C245.742 50.9471 245.739 50.8993 245.727 50.8535C245.714 50.8078 245.692 50.7651 245.662 50.7283C245.632 50.6914 245.595 50.6611 245.553 50.6393C245.024 50.3862 244.442 50.2661 243.856 50.2895C243.271 50.3129 242.7 50.4791 242.193 50.7737C242.135 50.8044 242.087 50.8504 242.053 50.9066C242.019 50.9628 242.001 51.0272 242.001 51.0929C242.001 51.1585 242.019 51.2229 242.053 51.2791C242.087 51.3354 242.135 51.3813 242.193 51.412H242.218Z" fill="#263238"/>
<path d="M196.106 61.39L190.286 56.3504L197.962 51.1177C197.962 51.1177 202.683 56.3756 200.365 59.433L196.106 61.39Z" fill="#FF8B7B"/>
<path d="M189.605 48.1451L192.587 46.7676C193.163 46.5063 193.814 46.4628 194.419 46.6451C195.025 46.8273 195.544 47.223 195.88 47.7587L197.963 51.0597L190.286 56.2924L188.261 51.8072C187.958 51.1429 187.928 50.3855 188.18 49.6997C188.432 49.014 188.944 48.4553 189.605 48.1451Z" fill="#FF8B7B"/>
<path d="M230.216 96.2473C229.902 95.5691 229.456 94.9596 228.906 94.4541C228.355 93.9485 227.71 93.5568 227.008 93.3016C226.305 93.0463 225.559 92.9325 224.812 92.9667C224.065 93.0009 223.333 93.1824 222.657 93.5008L222.396 93.6184L221.119 94.2147L219.734 94.8447C218.793 95.2478 217.844 95.6846 216.886 96.0458C214.98 96.8857 213.039 97.5492 211.091 98.2296C209.142 98.9099 207.168 99.5063 205.211 100.035C203.481 100.506 201.742 100.875 199.995 101.211C198.483 100.825 196.888 100.313 195.292 99.733C193.284 99.0023 191.243 98.154 189.211 97.2637C187.178 96.3733 185.129 95.4326 183.088 94.4751L176.964 91.5605H176.906C176.29 91.2721 175.592 91.2138 174.938 91.3963C174.283 91.5788 173.716 91.99 173.339 92.5552C172.962 93.1204 172.8 93.8021 172.883 94.4764C172.965 95.1508 173.287 95.7732 173.79 96.2305C175.587 97.8516 177.418 99.2963 179.308 100.733C181.198 102.169 183.146 103.513 185.187 104.806C187.219 106.127 189.316 107.343 191.47 108.451C193.75 109.644 196.127 110.642 198.576 111.433C199.071 111.58 199.589 111.634 200.104 111.593H200.457C202.85 111.422 205.231 111.113 207.588 110.669C208.773 110.467 209.915 110.19 211.082 109.938C212.25 109.686 213.375 109.359 214.509 109.014C216.785 108.367 219.011 107.595 221.229 106.73C222.321 106.293 223.421 105.89 224.496 105.344C225.034 105.092 225.579 104.848 226.117 104.579C226.655 104.311 227.159 104.05 227.797 103.689C229.078 102.996 230.043 101.837 230.493 100.451C230.943 99.0664 230.844 97.5613 230.216 96.2473Z" fill="#FF8B7B"/>
<path d="M229.645 89.1074C222.742 91.5151 216.008 94.38 209.486 97.6831C211.163 103.421 214.293 108.629 218.574 112.802C218.574 112.802 222.211 112.617 229.594 107.04C237.859 100.866 238.044 86.3693 229.645 89.1074Z" fill="#B0A7E4"/>
<path d="M175.419 96.9951L167.918 96.2727L171.034 87.7559C171.034 87.7559 177.754 89.2509 177.661 92.997L175.419 96.9951Z" fill="#FF8B7B"/>
<path d="M162.744 90.1915L164.332 87.4113C164.636 86.8725 165.127 86.4643 165.713 86.2644C166.298 86.0646 166.937 86.0872 167.507 86.3278L171.034 87.7557L167.918 96.2726L163.786 93.862C163.164 93.5105 162.706 92.9279 162.511 92.2408C162.316 91.5536 162.4 90.8172 162.744 90.1915Z" fill="#FF8B7B"/>
<path d="M343.447 167.642H76.5176C75.9429 167.642 75.3917 167.413 74.9853 167.007C74.5789 166.601 74.3506 166.049 74.3506 165.475C74.3495 165.189 74.4047 164.907 74.5131 164.643C74.6216 164.379 74.781 164.139 74.9823 163.937C75.1837 163.735 75.4229 163.574 75.6864 163.465C75.9499 163.356 76.2323 163.299 76.5176 163.299H343.447C343.732 163.299 344.015 163.356 344.278 163.465C344.542 163.574 344.781 163.735 344.982 163.937C345.183 164.139 345.343 164.379 345.451 164.643C345.56 164.907 345.615 165.189 345.614 165.475C345.614 166.049 345.386 166.601 344.979 167.007C344.573 167.413 344.022 167.642 343.447 167.642Z" fill="#B0A7E4"/>
<path d="M297.108 147.207H286.583C285.971 147.207 285.475 147.703 285.475 148.315V162.199C285.475 162.812 285.971 163.308 286.583 163.308H297.108C297.72 163.308 298.216 162.812 298.216 162.199V148.315C298.216 147.703 297.72 147.207 297.108 147.207Z" fill="#B0A7E4"/>
<path d="M298.217 161.032C297.073 161.033 295.955 160.696 295.004 160.062C294.052 159.428 293.31 158.526 292.872 157.47C292.433 156.414 292.317 155.252 292.539 154.131C292.761 153.009 293.311 151.979 294.119 151.17C294.927 150.361 295.956 149.809 297.078 149.586C298.199 149.362 299.361 149.476 300.418 149.913C301.474 150.35 302.377 151.091 303.012 152.041C303.648 152.992 303.987 154.11 303.987 155.253C303.985 156.783 303.376 158.251 302.295 159.334C301.213 160.417 299.747 161.027 298.217 161.032ZM298.217 151.162C297.405 151.161 296.612 151.4 295.936 151.85C295.261 152.299 294.734 152.939 294.423 153.689C294.112 154.438 294.03 155.263 294.188 156.059C294.346 156.855 294.736 157.586 295.31 158.16C295.884 158.733 296.615 159.124 297.411 159.282C298.206 159.44 299.031 159.358 299.781 159.046C300.53 158.735 301.17 158.209 301.62 157.533C302.069 156.858 302.309 156.064 302.307 155.253C302.305 154.169 301.873 153.13 301.106 152.363C300.34 151.596 299.301 151.165 298.217 151.162Z" fill="#B0A7E4"/>
<path opacity="0.3" d="M343.447 167.642H269.256C268.68 167.642 268.128 167.414 267.721 167.008C267.313 166.601 267.083 166.05 267.081 165.475C267.081 164.898 267.31 164.344 267.718 163.936C268.126 163.529 268.679 163.299 269.256 163.299H343.447C343.732 163.299 344.015 163.356 344.278 163.465C344.541 163.574 344.781 163.735 344.982 163.937C345.183 164.139 345.343 164.379 345.451 164.643C345.56 164.907 345.615 165.189 345.614 165.475C345.614 166.049 345.385 166.601 344.979 167.007C344.573 167.413 344.021 167.642 343.447 167.642Z" fill="black"/>
<path d="M310.446 167.643H302.256V233.157H310.446V167.643Z" fill="#263238"/>
<path d="M318.727 167.643H334.35V169.205C334.35 169.682 334.161 170.139 333.824 170.476C333.487 170.813 333.029 171.002 332.553 171.002H320.525C320.048 171.002 319.591 170.813 319.254 170.476C318.917 170.139 318.727 169.682 318.727 169.205V167.643Z" fill="#263238"/>
<path d="M312.47 216.92H300.232V282.435H312.47V216.92Z" fill="#263238"/>
<path d="M314.528 257.296H298.174V322.811H314.528V257.296Z" fill="#263238"/>
<path d="M324.036 322.811H288.666C288.666 321.842 289.051 320.913 289.737 320.227C290.422 319.542 291.351 319.157 292.32 319.157H320.382C321.351 319.157 322.28 319.542 322.966 320.227C323.651 320.913 324.036 321.842 324.036 322.811Z" fill="#263238"/>
<path d="M117.708 167.643H109.518V233.157H117.708V167.643Z" fill="#263238"/>
<path d="M119.732 216.92H107.494V282.435H119.732V216.92Z" fill="#263238"/>
<path d="M121.79 257.296H105.436V322.811H121.79V257.296Z" fill="#263238"/>
<path d="M131.298 322.811H95.9282C95.9282 321.842 96.3132 320.913 96.9984 320.227C97.6836 319.542 98.6129 319.157 99.5819 319.157H127.669C128.638 319.157 129.567 319.542 130.253 320.227C130.938 320.913 131.323 321.842 131.323 322.811H131.298Z" fill="#263238"/>
<path d="M215.248 160.687H114.642C114.296 160.689 113.965 160.828 113.721 161.074C113.477 161.319 113.34 161.651 113.34 161.997C113.342 162.342 113.48 162.672 113.724 162.915C113.967 163.159 114.297 163.297 114.642 163.299H215.248C215.594 163.299 215.926 163.162 216.172 162.918C216.417 162.674 216.556 162.343 216.559 161.997C216.559 161.65 216.421 161.317 216.175 161.071C215.929 160.825 215.596 160.687 215.248 160.687Z" fill="#B0A7E4"/>
<path opacity="0.3" d="M215.248 160.687H114.642C114.296 160.689 113.965 160.828 113.721 161.074C113.477 161.319 113.34 161.651 113.34 161.997C113.342 162.342 113.48 162.672 113.724 162.915C113.967 163.159 114.297 163.297 114.642 163.299H215.248C215.594 163.299 215.926 163.162 216.172 162.918C216.417 162.674 216.556 162.343 216.559 161.997C216.559 161.65 216.421 161.317 216.175 161.071C215.929 160.825 215.596 160.687 215.248 160.687Z" fill="black"/>
<path d="M180.123 113.777H108.729C108.259 113.766 107.793 113.859 107.363 114.05C106.934 114.242 106.553 114.526 106.247 114.883C105.942 115.24 105.719 115.661 105.597 116.115C105.474 116.568 105.453 117.044 105.537 117.506L111.417 158.268C111.588 159.286 112.107 160.214 112.885 160.893C113.662 161.573 114.651 161.963 115.683 161.997H187.077C187.547 162.008 188.014 161.915 188.443 161.723C188.872 161.532 189.253 161.247 189.559 160.89C189.864 160.533 190.087 160.113 190.209 159.659C190.332 159.206 190.353 158.73 190.269 158.268L184.389 117.506C184.218 116.488 183.699 115.56 182.921 114.88C182.144 114.201 181.155 113.811 180.123 113.777Z" fill="#B0A7E4"/>
<path opacity="0.2" d="M157.974 119.404C158.307 118.836 158.483 118.191 158.487 117.533C158.49 116.874 158.319 116.227 157.992 115.656C157.665 115.085 157.192 114.61 156.623 114.28C156.053 113.95 155.407 113.777 154.748 113.777H108.729C108.259 113.766 107.793 113.859 107.363 114.05C106.934 114.242 106.553 114.526 106.247 114.883C105.942 115.24 105.719 115.661 105.597 116.115C105.474 116.568 105.453 117.044 105.537 117.506L111.417 158.268C111.588 159.286 112.107 160.214 112.885 160.893C113.662 161.573 114.651 161.963 115.683 161.997H128.954C130.203 161.996 131.43 161.669 132.513 161.047C133.596 160.425 134.497 159.531 135.128 158.453L157.974 119.404Z" fill="white"/>
</svg>
